<svg id="Capa_1" data-name="Capa 1" xmlns="http://www.w3.org/2000/svg" viewBox="0 0 201.17 201.17"><defs><style>.cls-1{fill:#eef4ef;stroke:#eef4ef;}.cls-1,.cls-2{stroke-miterlimit:10;}.cls-2{fill:none;stroke:#7c7c7c;}</style></defs><path class="cls-1" d="M129.36,29.21H71.81A42.62,42.62,0,0,0,29.16,71.8h0v57.55A42.62,42.62,0,0,0,71.78,172h57.58A42.62,42.62,0,0,0,172,129.36V71.81A42.62,42.62,0,0,0,129.36,29.21Zm28.94,100a29.11,29.11,0,0,1-29.09,29.09H72a29.11,29.11,0,0,1-29.09-29.09V72A29.1,29.1,0,0,1,72,42.88h57.25A29.1,29.1,0,0,1,158.3,72Z"/><path class="cls-1" d="M100.59,64.07A36.52,36.52,0,1,0,137.1,100.6h0A36.52,36.52,0,0,0,100.59,64.07Zm0,59.35a22.84,22.84,0,1,1,22.83-22.85v0A22.84,22.84,0,0,1,100.59,123.42Z"/><path class="cls-1" d="M144.79,62.21a6.62,6.62,0,1,1-6.63-6.61h0a6.61,6.61,0,0,1,6.62,6.6Z"/><rect class="cls-2" x="13.78" y="13.78" width="173.61" height="173.61" rx="12.64"/><path class="cls-1" d="M181.39.5H19.78A19.28,19.28,0,0,0,.5,19.78V181.39a19.28,19.28,0,0,0,19.28,19.28H181.39a19.28,19.28,0,0,0,19.28-19.28h0V19.78A19.28,19.28,0,0,0,181.39.5Zm6,174.25a12.64,12.64,0,0,1-12.64,12.64H26.42a12.64,12.64,0,0,1-12.64-12.64h0V26.42A12.64,12.64,0,0,1,26.42,13.78H174.75a12.64,12.64,0,0,1,12.64,12.64h0Z"/></svg>