<svg id="Capa_1" data-name="Capa 1" xmlns="http://www.w3.org/2000/svg" viewBox="0 0 526.03 313.11"><defs><style>.cls-1{fill:#fff;}.cls-2,.cls-5{fill:#541111;}.cls-3{fill:#e62f2c;}.cls-4{fill:#f4a6a7;}.cls-5{opacity:0.16;}.cls-6{fill:#f4e600;}.cls-6,.cls-7,.cls-8{opacity:0.34;}.cls-7{fill:#e52823;}.cls-8{fill:#3d4193;}.cls-9{fill:#0a8d45;}.cls-10{fill:#204c2f;}</style></defs><path class="cls-1" d="M228.41,306.12s3.68-17.76,12.2-33.1,11.44-22,4.17-34.09-36.44-32.69-36.44-32.69-35-24.62-41.57-50,7.33-37.65,12.66-44.28,17.82-21,55.66-34.31c0,0-53.49,31.39-52,65.87.18,7.15,2.93,19.18,7.9,25.4a44.3,44.3,0,0,1,5.87-41.77c6.79-8.55,19.3-15.38,25.8-18.55a110.19,110.19,0,0,0,12.49-7.13c8.28-5.48,20.16-14.21,23.1-21,4.62-10.66-1.74-16.6-9.3-22.68S232.36,40.74,229.7,30.4s1.2-15.94,7.43-22.46c0,0-6.33,14.7,24.8,40.21C272.74,57.21,280,69.48,279.67,82c-.28,10.38-4.48,21.73-15.19,31.34A46.51,46.51,0,0,1,252.64,121c-16.57,7.53-23.26,16.2-24.86,21.34-1.74,5.55-6,25.52,25.91,44.75a118.36,118.36,0,0,1,35.78,33.72c12.16,17.52,7.84,41.87-9.85,53.75l-1.15.76a57.33,57.33,0,0,1-7.17,3.83C258.67,284.81,246.63,288.32,228.41,306.12Z" transform="translate(-17.42 -7.17)"/><path class="cls-1" d="M205.28,307.63s3.16-16.36,11.15-30.56,10.68-20.32,3.21-31.37-36.71-29.64-36.71-29.64-35.09-22.23-42.2-45.49S147,135.89,152,129.74s17-19.53,53.88-32.15c0,0-51.82,29.44-49.43,61.11.36,6.58,3.38,17.59,8.44,23.26a38.29,38.29,0,0,1,4.68-38.46c6.47-7.93,18.6-14.34,24.91-17.33a107.81,107.81,0,0,0,12.11-6.69c8-5.12,19.47-13.29,22.19-19.54,4.27-9.85-2.15-15.24-9.74-20.75s-16.8-15.49-19.69-25,.76-14.66,6.73-20.73c0,0-5.85,13.59,25.45,36.68,10.88,8.21,18.33,19.41,18.33,30.95,0,9.54-3.84,20-14.13,29a45.31,45.31,0,0,1-11.45,7.1c-16.11,7.11-22.47,15.15-23.91,19.89-1.57,5.13-5.24,23.52,26.66,40.84a116.12,116.12,0,0,1,36.08,30.59,33.68,33.68,0,0,1-8.3,49.51l-1.11.7a55,55,0,0,1-7,3.6C234.51,287.71,222.75,291.07,205.28,307.63Z" transform="translate(-17.42 -7.17)"/><path class="cls-1" d="M203.06,307.65s-1.28-15.38-6.92-29.22-7.43-19.74,0-29.22,34.35-23.84,34.35-23.84,32.3-17.17,40.5-37.94-2.31-32.55-6.15-38.7-12.95-19.61-43.7-34.73c0,0,42.16,32,37.29,61-.9,6-4.49,15.89-9.36,20.64a37.5,37.5,0,0,0-.64-35.89c-4.88-7.92-14.79-15-20-18.33a93.91,93.91,0,0,1-9.87-7.31c-6.46-5.48-15.65-14.09-17.44-20.11-2.82-9.49,3.21-13.85,10.25-18.2s15.9-12.69,19.23-21.15.64-13.59-4-19.74c0,0,3.84,13.08-25.25,31.4-10.13,6.54-17.56,16.15-18.59,26.79-.84,8.79,1.55,18.82,9.65,28a39.82,39.82,0,0,0,9.27,7.63c13.29,8.07,18.06,16.09,18.89,20.59.9,4.87,2.44,22.17-26.66,35.12a101.15,101.15,0,0,0-33.89,24.78,32.61,32.61,0,0,0,2.78,46.42l.9.75a47.57,47.57,0,0,0,5.69,4C179.58,286.52,189.44,290.73,203.06,307.65Z" transform="translate(-17.42 -7.17)"/><path class="cls-2" d="M138,248.15c-7.11-23.16-5.24-48.15,6.23-69.6,14.82-27.73,47.29-52.77,115.06,10.85,28.11,26.79,82.32,56,130.51,41.4,32.63-8.76,88.85-24.84,151.6,33.61-20-12.18-48.28-18.11-77.88-10.14A106.36,106.36,0,0,0,433.19,268c-33.64,21.92-78.7,41.2-129.19,49.52C304,317.5,166.75,341.6,138,248.15Z" transform="translate(-17.42 -7.17)"/><path class="cls-3" d="M140.05,239.63c-7.12-23.87-5.24-49.63,6.23-71.74,14.82-28.57,47.29-54.38,115.06,11.19,28.11,27.61,82.32,57.73,130.51,42.67,32.63-9,88.85-25.6,151.59,34.63-20-12.54-48.27-18.66-77.87-10.44a104.69,104.69,0,0,0-30.38,14.13c-33.63,22.59-78.69,42.46-129.18,51C306,311.1,168.76,335.94,140.05,239.63Z" transform="translate(-17.42 -7.17)"/><path class="cls-4" d="M425,266.4a339,339,0,0,1-119.32,44.7s-137.25,24.84-166-71.48A100,100,0,0,1,135.86,219C169.1,313,302.07,300.3,302.07,300.3A352,352,0,0,0,425,266.4Z" transform="translate(-17.42 -7.17)"/><path class="cls-5" d="M264.45,211.25s-14.74-68.93-71.24-65.12-60.56,79.59-38.73,100.08,43,50.78,120.64,43.06C275.12,289.27,149.61,235.06,264.45,211.25Z" transform="translate(-17.42 -7.17)"/><path class="cls-6" d="M228.41,305.36s3.68-17.76,12.2-33.11,11.44-22,4.17-34.09-36.44-32.68-36.44-32.68-35-24.62-41.57-50,7.33-37.65,12.66-44.28,17.82-21,55.66-34.32c0,0-53.49,31.4-52,65.88.18,7.15,2.93,19.17,7.9,25.4a44.32,44.32,0,0,1,5.87-41.78c6.79-8.54,19.3-15.37,25.8-18.54a110.19,110.19,0,0,0,12.49-7.13c8.28-5.48,20.16-14.22,23.1-21,4.62-10.66-1.74-16.6-9.3-22.69S232.36,40,229.7,29.64s1.2-15.94,7.43-22.47c0,0-6.33,14.71,24.8,40.22,10.81,9.06,18.07,21.33,17.74,33.88-.28,10.39-4.48,21.74-15.19,31.34a46.51,46.51,0,0,1-11.84,7.59c-16.57,7.54-23.26,16.21-24.86,21.34-1.74,5.56-6,25.52,25.91,44.75A118.6,118.6,0,0,1,289.47,220c12.16,17.52,7.84,41.88-9.85,53.76l-1.15.75a56.11,56.11,0,0,1-7.17,3.84C258.67,284.05,246.63,287.56,228.41,305.36Z" transform="translate(-17.42 -7.17)"/><path class="cls-7" d="M205.28,307.63s3.16-16.36,11.15-30.56,10.68-20.32,3.21-31.37-36.71-29.64-36.71-29.64-35.09-22.23-42.2-45.49S147,135.89,152,129.74s17-19.53,53.88-32.15c0,0-51.82,29.44-49.43,61.11.36,6.58,3.38,17.59,8.44,23.26a38.29,38.29,0,0,1,4.68-38.46c6.47-7.93,18.6-14.34,24.91-17.33a107.81,107.81,0,0,0,12.11-6.69c8-5.12,19.47-13.29,22.19-19.54,4.27-9.85-2.15-15.24-9.74-20.75s-16.8-15.49-19.69-25,.76-14.66,6.73-20.73c0,0-5.85,13.59,25.45,36.68,10.88,8.21,18.33,19.41,18.33,30.95,0,9.54-3.84,20-14.13,29a45.31,45.31,0,0,1-11.45,7.1c-16.11,7.11-22.47,15.15-23.91,19.89-1.57,5.13-5.24,23.52,26.66,40.84a116.12,116.12,0,0,1,36.08,30.59,33.68,33.68,0,0,1-8.3,49.51l-1.11.7a55,55,0,0,1-7,3.6C234.51,287.71,222.75,291.07,205.28,307.63Z" transform="translate(-17.42 -7.17)"/><path class="cls-8" d="M203.06,307.39s-1.28-15.38-6.92-29.22-7.43-19.74,0-29.22,34.35-23.84,34.35-23.84,32.3-17.18,40.5-37.94-2.31-32.55-6.15-38.7-12.95-19.61-43.7-34.74c0,0,42.16,32.05,37.29,61-.9,6-4.49,15.89-9.36,20.63a37.48,37.48,0,0,0-.64-35.88c-4.88-7.92-14.79-15-20-18.33a93.91,93.91,0,0,1-9.87-7.31c-6.46-5.48-15.65-14.09-17.44-20.12-2.82-9.48,3.21-13.84,10.25-18.19s15.9-12.69,19.23-21.15.64-13.59-4-19.74c0,0,3.84,13.07-25.25,31.4-10.13,6.54-17.56,16.15-18.59,26.79-.84,8.79,1.55,18.81,9.65,28a39.61,39.61,0,0,0,9.27,7.64c13.29,8.07,18.06,16.09,18.89,20.59.9,4.87,2.44,22.17-26.66,35.12A101.15,101.15,0,0,0,160.07,229a32.61,32.61,0,0,0,2.78,46.42l.9.75a48.74,48.74,0,0,0,5.69,4C179.58,286.26,189.44,290.47,203.06,307.39Z" transform="translate(-17.42 -7.17)"/><path class="cls-9" d="M126.56,224.5S116,203.58,133.2,181.71c0,0,2.54-3.79-1.62-2.71s-17.18,5.55-22.34,18.93c0,0-4.22,12,15.34,27.49C124.58,225.42,126.09,226.72,126.56,224.5Z" transform="translate(-17.42 -7.17)"/><path class="cls-9" d="M64.32,192.68c-50.27-18.37-48.39-47.22-45.88-57.47a4.82,4.82,0,0,1,4.8-3.67l6.19.17C28.72,145.89,33,170.38,64.32,192.68Z" transform="translate(-17.42 -7.17)"/><path class="cls-10" d="M133.2,181.71c-17.23,21.87-6.64,42.79-6.64,42.79-.47,2.22-2,.93-2,.93-.86-.68-1.66-1.35-2.43-2-7.51-10.15-13.29-31.68,9.43-44.42h0C135.74,177.91,133.2,181.71,133.2,181.71Z" transform="translate(-17.42 -7.17)"/><path class="cls-10" d="M106.32,194.62l-1,4.63a3.74,3.74,0,0,1-4.31,2.94,218.63,218.63,0,0,1-36.71-9.51c-31.29-22.3-35.6-46.79-34.89-61l8.49.23A4.83,4.83,0,0,1,42.6,137c-2.1,46.61,45.28,52.39,60.23,53.06A3.77,3.77,0,0,1,106.32,194.62Z" transform="translate(-17.42 -7.17)"/><path class="cls-2" d="M434.23,202.66l.94.47c.44.16.74.63.87,1.42a1.27,1.27,0,0,1-.11.65,7,7,0,0,0-.27.81q-1,3.28-3.06,3.64a4.22,4.22,0,0,1-2.26-.83A5.88,5.88,0,0,1,428.2,207a4.71,4.71,0,0,0-.82-1.12.79.79,0,0,1-.32-.39,2.06,2.06,0,0,1,.19-1.12,4.17,4.17,0,0,0,.3-1.51,1.81,1.81,0,0,1,.72-1.43,4.31,4.31,0,0,0,1-1,1.21,1.21,0,0,1,.85-.55,1.06,1.06,0,0,1,.75.19,5,5,0,0,0,1.09.46,3.8,3.8,0,0,1,1.54,1.2Z" transform="translate(-17.42 -7.17)"/><path class="cls-2" d="M453.14,201.11l.84.62c.42.24.62.76.62,1.56a1.22,1.22,0,0,1-.22.62,6.72,6.72,0,0,0-.4.75c-1,2-2.25,3.06-3.64,3.06a4.14,4.14,0,0,1-2.08-1.2,5.93,5.93,0,0,1-1.8-2.17,4.78,4.78,0,0,0-.62-1.25.72.72,0,0,1-.24-.44,1.94,1.94,0,0,1,.38-1.07,4.13,4.13,0,0,0,.55-1.44,1.82,1.82,0,0,1,1-1.28,4.52,4.52,0,0,0,1.13-.82,1.18,1.18,0,0,1,.93-.4,1.07,1.07,0,0,1,.71.31,5,5,0,0,0,1,.64,3.87,3.87,0,0,1,1.31,1.45Z" transform="translate(-17.42 -7.17)"/><path class="cls-2" d="M479.15,201.14l1.09,1.35c.56.56.68,1.47.34,2.75a2,2,0,0,1-.61.9,9.65,9.65,0,0,0-1,1.05q-3.78,4.25-7.12,3.37c-.71-.19-1.66-1.12-2.84-2.8a9.92,9.92,0,0,1-2-4.24,7.47,7.47,0,0,0-.47-2.25,1.28,1.28,0,0,1-.2-.82,3.18,3.18,0,0,1,1-1.54,7.15,7.15,0,0,0,1.5-2.08,3,3,0,0,1,2.07-1.66,7.58,7.58,0,0,0,2.16-.84,2,2,0,0,1,1.66-.25,1.84,1.84,0,0,1,1,.8,8.6,8.6,0,0,0,1.32,1.45,6.1,6.1,0,0,1,1.49,2.86Z" transform="translate(-17.42 -7.17)"/><path class="cls-2" d="M499.7,213.82l.4,1c.23.41.14,1-.28,1.65a1.16,1.16,0,0,1-.51.41,6.15,6.15,0,0,0-.73.44q-2.91,1.82-4.7.73a4.11,4.11,0,0,1-1.16-2.1,5.92,5.92,0,0,1-.41-2.79,4.57,4.57,0,0,0,.11-1.39.72.72,0,0,1,0-.5,2,2,0,0,1,.88-.72,4,4,0,0,0,1.22-.94A1.81,1.81,0,0,1,496,209a4.3,4.3,0,0,0,1.39-.11,1.18,1.18,0,0,1,1,.14,1,1,0,0,1,.44.63,5.39,5.39,0,0,0,.52,1.07,3.77,3.77,0,0,1,.38,1.91Z" transform="translate(-17.42 -7.17)"/></svg>