<svg id="Capa_1" data-name="Capa 1" xmlns="http://www.w3.org/2000/svg" viewBox="0 0 19.57 636.44"><defs><style>.cls-1,.cls-2,.cls-3,.cls-4{fill:none;}.cls-1{stroke:#474647;}.cls-1,.cls-2,.cls-3{stroke-miterlimit:10;stroke-width:0.34px;}.cls-2{stroke:#ff8b00;}.cls-3{stroke:#bc0000;}</style></defs><path class="cls-1" d="M8.91,20.67a3.31,3.31,0,1,1,3.31-3.31h0A3.31,3.31,0,0,1,8.91,20.67Zm0-5.2a1.9,1.9,0,1,0,1.88,1.92v0A1.89,1.89,0,0,0,8.91,15.47Z" transform="translate(0.9 -8.17)"/><path class="cls-1" d="M8.91,47.65a3.31,3.31,0,1,1,3.31-3.31h0A3.31,3.31,0,0,1,8.91,47.65Zm0-5.21a1.9,1.9,0,1,0,1.88,1.92v0A1.89,1.89,0,0,0,8.91,42.44Z" transform="translate(0.9 -8.17)"/><path class="cls-1" d="M8.91,74.63a3.31,3.31,0,1,1,3.31-3.31h0A3.31,3.31,0,0,1,8.91,74.63Zm0-5.21a1.9,1.9,0,1,0,1.9,1.9h0A1.9,1.9,0,0,0,8.91,69.42Z" transform="translate(0.9 -8.17)"/><path class="cls-1" d="M8.91,101.6a3.31,3.31,0,1,1,3.31-3.31h0A3.31,3.31,0,0,1,8.91,101.6Zm0-5.21a1.9,1.9,0,1,0,1.9,1.9,1.9,1.9,0,0,0-1.9-1.9Z" transform="translate(0.9 -8.17)"/><path class="cls-1" d="M8.91,128.58a3.31,3.31,0,1,1,3.31-3.31h0A3.31,3.31,0,0,1,8.91,128.58Zm0-5.21a1.91,1.91,0,1,0,1.9,1.9h0a1.9,1.9,0,0,0-1.89-1.9Z" transform="translate(0.9 -8.17)"/><path class="cls-1" d="M8.91,155.56a3.31,3.31,0,1,1,3.31-3.31h0A3.31,3.31,0,0,1,8.91,155.56Zm0-5.21a1.9,1.9,0,1,0,1.9,1.9,1.9,1.9,0,0,0-1.9-1.9Z" transform="translate(0.9 -8.17)"/><path class="cls-1" d="M8.91,182.54a3.32,3.32,0,1,1,3.31-3.32h0A3.32,3.32,0,0,1,8.91,182.54Zm0-5.22a1.91,1.91,0,1,0,1.9,1.9,1.9,1.9,0,0,0-1.9-1.9Z" transform="translate(0.9 -8.17)"/><path class="cls-1" d="M8.91,209.51a3.31,3.31,0,1,1,3.31-3.31h0A3.31,3.31,0,0,1,8.91,209.51Zm0-5.21a1.9,1.9,0,1,0,1.9,1.9,1.9,1.9,0,0,0-1.9-1.9Z" transform="translate(0.9 -8.17)"/><path class="cls-2" d="M8.91,236.49a3.32,3.32,0,1,1,3.31-3.31h0A3.31,3.31,0,0,1,8.91,236.49Zm0-5.21a1.9,1.9,0,1,0,1.9,1.9h0a1.9,1.9,0,0,0-1.89-1.9Z" transform="translate(0.9 -8.17)"/><path class="cls-2" d="M8.91,263.47a3.31,3.31,0,1,1,3.31-3.31h0A3.32,3.32,0,0,1,8.91,263.47Zm0-5.21a1.9,1.9,0,1,0,1.9,1.9,1.9,1.9,0,0,0-1.9-1.9Z" transform="translate(0.9 -8.17)"/><path class="cls-2" d="M8.91,290.44a3.31,3.31,0,1,1,3.31-3.31h0A3.31,3.31,0,0,1,8.91,290.44Zm0-5.21a1.91,1.91,0,1,0,1.9,1.91h0a1.9,1.9,0,0,0-1.89-1.9Z" transform="translate(0.9 -8.17)"/><path class="cls-2" d="M8.91,317.42a3.31,3.31,0,1,1,3.31-3.31h0A3.31,3.31,0,0,1,8.91,317.42Zm0-5.21a1.9,1.9,0,1,0,1.9,1.9,1.9,1.9,0,0,0-1.9-1.9Z" transform="translate(0.9 -8.17)"/><path class="cls-2" d="M8.91,347.69a3.31,3.31,0,1,1,3.31-3.31h0A3.31,3.31,0,0,1,8.91,347.69Zm0-5.2a1.9,1.9,0,1,0,1.88,1.92v0A1.89,1.89,0,0,0,8.91,342.49Z" transform="translate(0.9 -8.17)"/><path class="cls-2" d="M8.91,374.67a3.31,3.31,0,1,1,3.31-3.31h0A3.31,3.31,0,0,1,8.91,374.67Zm0-5.21a1.91,1.91,0,1,0,1.88,1.92v0A1.89,1.89,0,0,0,8.91,369.46Z" transform="translate(0.9 -8.17)"/><path class="cls-2" d="M8.91,401.65a3.31,3.31,0,1,1,3.31-3.31h0A3.31,3.31,0,0,1,8.91,401.65Zm0-5.21a1.9,1.9,0,1,0,1.9,1.9h0A1.9,1.9,0,0,0,8.91,396.44Z" transform="translate(0.9 -8.17)"/><path class="cls-2" d="M8.91,428.62a3.31,3.31,0,1,1,3.31-3.31h0A3.31,3.31,0,0,1,8.91,428.62Zm0-5.21a1.91,1.91,0,1,0,1.9,1.9,1.9,1.9,0,0,0-1.9-1.9Z" transform="translate(0.9 -8.17)"/><path class="cls-3" d="M8.91,455.6a3.31,3.31,0,1,1,3.31-3.31h0A3.31,3.31,0,0,1,8.91,455.6Zm0-5.21a1.91,1.91,0,1,0,1.9,1.91h0a1.9,1.9,0,0,0-1.89-1.9Z" transform="translate(0.9 -8.17)"/><path class="cls-3" d="M8.91,482.58a3.31,3.31,0,1,1,3.31-3.31h0A3.31,3.31,0,0,1,8.91,482.58Zm0-5.21a1.9,1.9,0,1,0,1.9,1.9,1.9,1.9,0,0,0-1.9-1.9Z" transform="translate(0.9 -8.17)"/><path class="cls-3" d="M8.91,509.56a3.32,3.32,0,1,1,3.31-3.31h0A3.31,3.31,0,0,1,8.91,509.56Zm0-5.22a1.91,1.91,0,1,0,1.9,1.91,1.91,1.91,0,0,0-1.9-1.91Z" transform="translate(0.9 -8.17)"/><path class="cls-3" d="M8.91,536.53a3.31,3.31,0,1,1,3.31-3.31h0A3.31,3.31,0,0,1,8.91,536.53Zm0-5.21a1.9,1.9,0,1,0,1.9,1.9,1.9,1.9,0,0,0-1.9-1.9Z" transform="translate(0.9 -8.17)"/><path class="cls-3" d="M8.91,563.51a3.32,3.32,0,1,1,3.31-3.31h0A3.31,3.31,0,0,1,8.91,563.51Zm0-5.21a1.9,1.9,0,1,0,1.9,1.9h0a1.9,1.9,0,0,0-1.89-1.9Z" transform="translate(0.9 -8.17)"/><path class="cls-3" d="M8.91,590.49a3.31,3.31,0,1,1,3.31-3.31h0A3.32,3.32,0,0,1,8.91,590.49Zm0-5.21a1.9,1.9,0,1,0,1.9,1.9,1.9,1.9,0,0,0-1.9-1.9Z" transform="translate(0.9 -8.17)"/><path class="cls-3" d="M8.91,617.46a3.31,3.31,0,1,1,3.31-3.31h0A3.31,3.31,0,0,1,8.91,617.46Zm0-5.21a1.91,1.91,0,1,0,1.9,1.91h0a1.9,1.9,0,0,0-1.89-1.9Z" transform="translate(0.9 -8.17)"/><path class="cls-3" d="M8.91,644.44a3.31,3.31,0,1,1,3.31-3.31h0A3.31,3.31,0,0,1,8.91,644.44Zm0-5.21a1.9,1.9,0,1,0,1.9,1.9,1.9,1.9,0,0,0-1.9-1.9Z" transform="translate(0.9 -8.17)"/><rect class="cls-4" width="19.57" height="1.81"/></svg>