<svg id="Capa_1" data-name="Capa 1" xmlns="http://www.w3.org/2000/svg" viewBox="0 0 1798.88 1162.06"><defs><style>.cls-1,.cls-17,.cls-19,.cls-20,.cls-4,.cls-8{fill:#fff;}.cls-1,.cls-19,.cls-20,.cls-3{stroke:#541111;}.cls-1,.cls-10,.cls-11,.cls-12,.cls-17,.cls-18,.cls-19,.cls-20,.cls-3,.cls-7{stroke-miterlimit:10;}.cls-1,.cls-10,.cls-11,.cls-12,.cls-17,.cls-7{stroke-width:7px;}.cls-14,.cls-18,.cls-2{fill:#541111;}.cls-11,.cls-12,.cls-3,.cls-7{fill:none;}.cls-3{stroke-width:10px;}.cls-5,.cls-6{fill:#088036;}.cls-5{opacity:0.84;}.cls-13,.cls-6{opacity:0.77;}.cls-7{stroke:#17863d;opacity:0.96;}.cls-8{font-size:132.44px;font-family:MyriadPro-Regular, Myriad Pro;}.cls-9{font-size:70.69px;}.cls-14,.cls-9{font-family:MyriadPro-Bold, Myriad Pro;font-weight:700;}.cls-10{fill:#d34318;stroke:#d34318;}.cls-11{stroke:#faea29;}.cls-12{stroke:#273d8e;}.cls-13{fill:#70c5c9;}.cls-14{font-size:51.17px;letter-spacing:-0.03em;}.cls-15{letter-spacing:0em;}.cls-16{letter-spacing:0em;}.cls-17{stroke:#531313;}.cls-18{stroke:#fff;}.cls-19{stroke-width:5px;}</style></defs><path class="cls-1" d="M168,3.5H1449.46a183.05,183.05,0,0,1,183.05,183.05v972a0,0,0,0,1,0,0H351.06A183.05,183.05,0,0,1,168,975.51V3.5A0,0,0,0,1,168,3.5Z"/><path class="cls-2" d="M467.05,420.09v294H-814.4A183.06,183.06,0,0,1-997.46,531V420.09Z" transform="translate(1165.46 444.51)"/><circle class="cls-3" cx="296.35" cy="130.51" r="51.87"/><path class="cls-4" d="M-834.58,489c24.92,0,30.09,18.09,30.09,27,0,40.74-59.43,46.67-59.43,65.82,0,12.76,5.32,31.31,5.32,32.22,0,1.82-3.49,1.37-4.56,1.37h-20.21c-3.8,0-8.36,2.89-8.36-54.11,0-75.09,7.9-72.35,10.49-72.35Zm5.47,31.92c0-10.49-9.12-14-18.24-14-10.94,0-19.91,1.67-19.76,36.63,0,3.64.3,7,4.71,7C-854.49,550.57-829.11,531.87-829.11,520.93Z" transform="translate(1165.46 444.51)"/><path class="cls-2" d="M-861.47,617.52c-.43,0-.84,0-1.21,0l-.48,0h-20.67a5.32,5.32,0,0,1-4.32-1.4c-2.7-2.6-5.58-9.2-5.58-54.72,0-58.22,4.63-69.44,8.11-72.82a5.28,5.28,0,0,1,4.17-1.53h46.87c25.33,0,32.09,18.26,32.09,29.06,0,25.32-21.59,37.62-38.94,47.51-11,6.26-20.49,11.67-20.49,18.3,0,9.83,3.26,23.29,4.66,29a16.82,16.82,0,0,1,.66,3.18,3.07,3.07,0,0,1-.95,2.25A5.57,5.57,0,0,1-861.47,617.52Zm-21.9-4h20.21l.67,0a16.43,16.43,0,0,0,1.73,0l-.39-1.63c-1.43-5.88-4.77-19.67-4.77-30,0-9,10.43-14.9,22.51-21.78,16.45-9.37,36.92-21,36.92-44,0-2.57-.79-25.06-28.09-25.06h-47a1.36,1.36,0,0,0-1.26.42c-2.58,2.49-6.9,14.9-6.9,69.94,0,31.61,1.46,49,4.36,51.85.28.27.46.3,1.4.27Zm21-60.9c-6.71,0-6.71-6.08-6.71-9-.08-18.38,2.24-28.94,7.51-34.23,4-4.06,9.25-4.4,14.25-4.4,12.67,0,20.24,6,20.24,16,0,7.76-10.08,16.9-14.41,20.47C-848.27,547-857.34,552.57-862.4,552.57Zm15-43.62c-4.49,0-8.45.24-11.42,3.22-4.34,4.36-6.41,14.63-6.34,31.4,0,4.57.74,5,2.71,5,7.39,0,31.29-18.28,31.29-27.64C-831.11,510.11-842.47,509-847.35,509Z" transform="translate(1165.46 444.51)"/><path class="cls-4" d="M-789.44,615.47c-7.45,0-8,3.19-8-50.31,0-52,2.43-47,7.44-47h8.36c6.39,0,6.54.46,6.54,2.28,0,5.63-1.82,11.25-1.82,27.82,0,38.3,5.92,61.86,5.92,63.23,0,4.86-4.56,4-8.05,4Zm-6.38-119.16c0-6.54,5.62-10.49,11.7-10.49s11.71,3.95,11.71,10.49-5.63,10-11.71,10S-795.82,502.84-795.82,496.31Z" transform="translate(1165.46 444.51)"/><path class="cls-2" d="M-776.12,617.54c-.53,0-1.07,0-1.59,0l-1.39,0h-10.34l-1.14,0c-1.87,0-3.81.09-5.38-1.43-3.23-3.16-3.53-11.84-3.53-50.9,0-37.84,1.26-45.38,4.08-48a5.16,5.16,0,0,1,4.32-1.07c.33,0,.68.06,1,.06h8.36c5.33,0,8.54,0,8.54,4.28a58.93,58.93,0,0,1-.57,7A156.79,156.79,0,0,0-775,548.29c0,32,4.13,53.49,5.49,60.55a17.27,17.27,0,0,1,.43,2.68,5.8,5.8,0,0,1-1.61,4.36C-772.12,617.29-774.14,617.54-776.12,617.54Zm-13.32-4.07h10.34l1.52,0c1.56.06,3.5.12,4.14-.49a2.23,2.23,0,0,0,.39-1.49c0-.12-.18-1-.36-1.93-1.38-7.15-5.56-28.9-5.56-61.3A161.19,161.19,0,0,1-777.7,527a55,55,0,0,0,.55-6.52v-.07a30.4,30.4,0,0,0-4.54-.21H-790c-.48,0-1,0-1.39-.07-.7-.06-1.13-.09-1.27,0-2.45,2.25-2.78,24-2.78,45,0,30.07.1,45.86,2.33,48,.32.32,1,.34,2.48.3Zm5.32-105.13c-6.81,0-13.7-4.13-13.7-12,0-7.12,5.89-12.49,13.7-12.49s13.71,5.37,13.71,12.49C-770.41,504.21-777.31,508.34-784.12,508.34Zm0-20.52c-4.82,0-9.7,2.91-9.7,8.49s4.87,8,9.7,8c4.68,0,9.71-2.52,9.71-8S-779.3,487.82-784.12,487.82Z" transform="translate(1165.46 444.51)"/><path class="cls-4" d="M-760.86,571.69c0-26.14,13.22-55.78,43.16-55.78,13.23,0,22.8,7.15,22.8,15.81,0,4.56-3.34,13.38-9,13.38-3.49,0-2.88-11.25-15.19-11.25-15.66,0-21.28,20.67-21.28,33.44,0,14.74,7,27.05,21.43,27.05,16.41,0,20.21-15,21.58-15,.76,0,2.28,2.73,2.28,9,0,18.24-12,29.49-29.94,29.49C-750.22,617.75-760.86,593.89-760.86,571.69Z" transform="translate(1165.46 444.51)"/><path class="cls-2" d="M-725,619.75c-26.16,0-37.87-24.14-37.87-48.06,0-27.83,14.13-57.78,45.16-57.78,14.14,0,24.8,7.66,24.8,17.81,0,5.37-3.76,15.38-11,15.38-2.41,0-3.54-2.14-4.64-4.2-1.74-3.31-3.73-7-10.55-7-14.05,0-19.28,19.28-19.28,31.44s5.1,25.05,19.43,25.05c11.57,0,16.21-8.17,18.44-12.1,1-1.77,1.67-2.94,3.14-2.94,3.16,0,4.28,5.66,4.28,11C-693,607.39-705.59,619.75-725,619.75Zm7.29-101.84c-28.28,0-41.16,27.88-41.16,53.78,0,21.93,10.47,44.06,33.87,44.06,17.23,0,27.94-10.53,27.94-27.49a24.16,24.16,0,0,0-.47-5.13c-2.66,4.59-8.42,13.21-21.39,13.21-14.24,0-23.43-11.4-23.43-29.05,0-13.7,6.32-35.44,23.28-35.44,9.23,0,12.27,5.74,14.09,9.18a11.93,11.93,0,0,0,1.25,2.06c4-.17,6.82-7.52,6.82-11.37C-696.9,524-706,517.91-717.7,517.91Z" transform="translate(1165.46 444.51)"/><path class="cls-4" d="M-649,552.24c4.4-.76,7.9-1.52,7.9-6.54,0-7.75-8.06-11.85-14.74-11.85-15.51,0-13.23,13.07-16.57,13.07-4.86,0-10.18-5.93-10.18-12.46,0-11.25,12.61-18.55,26.59-18.55,4.87,0,25.69-.15,33.44,21.13,3.19,8.82,3.5,53.81,3.5,59.13,0,6.68,1.22,10.64,1.22,15.8,0,3.19-14.29,3.5-27.82,3.5-36.63,0-39.21-18.85-39.21-28C-684.86,568.35-666,555.13-649,552.24Zm9.42,26.6c0-5.32.91-11.7-6.38-11.7-9,0-18.39,7.59-18.39,16.87,0,8.51,7.44,13.52,15.5,13.52,9,0,9.27-4.56,9.27-12Z" transform="translate(1165.46 444.51)"/><path class="cls-2" d="M-645.65,617.47c-27,0-41.21-10.36-41.21-30,0-20,19.33-34.14,37.53-37.23,4.91-.85,6.24-1.51,6.24-4.57,0-6.79-7.45-9.85-12.74-9.85-9.21,0-11,4.8-12.47,8.66-.77,2.07-1.66,4.41-4.1,4.41-6.26,0-12.18-7-12.18-14.46,0-11.72,12.29-20.55,28.59-20.55h.12c22.34,0,31.47,12.21,35.2,22.45,3.52,9.71,3.62,59.31,3.62,59.81a66.22,66.22,0,0,0,.65,8.7,55.62,55.62,0,0,1,.57,7.1C-615.83,616.29-622.24,617.47-645.65,617.47Zm-10.18-85.62c8.23,0,16.74,5.18,16.74,13.85,0,6.86-5.53,7.81-9.56,8.51h0c-16.58,2.82-34.2,15.44-34.2,33.29,0,6.43,0,26,37.21,26,5.76,0,23,0,25.81-1.9a55.52,55.52,0,0,0-.53-6.21,70.25,70.25,0,0,1-.68-9.19c0-10.38-.57-50.7-3.38-58.45-3.29-9-11.42-19.81-31.44-19.81H-656c-12.09,0-24.59,6.19-24.59,16.55,0,5.34,4.25,10.11,7.79,10.44a16.18,16.18,0,0,0,.75-1.79C-670.56,539.17-667.8,531.85-655.83,531.85Zm7,67.68c-8.49,0-17.5-5.44-17.5-15.52,0-10.8,10.76-18.87,20.39-18.87a8.13,8.13,0,0,1,6.06,2.16c2.46,2.5,2.4,6.46,2.34,10,0,.53,0,1.06,0,1.58v6.69C-637.57,592.41-637.57,599.53-648.84,599.53Zm2.89-30.39c-7.58,0-16.39,6.49-16.39,14.87,0,7.56,6.79,11.52,13.5,11.52,6.94,0,7.27-2.4,7.27-10v-6.69c0-.54,0-1.09,0-1.65,0-2.84.1-5.78-1.19-7.09A4.36,4.36,0,0,0-645.95,569.14Z" transform="translate(1165.46 444.51)"/><path class="cls-4" d="M-556.88,615.47c-2,0-5.32.45-5.32-2.43,0-1.52,7.75-21.74,7.75-52.59,0-10.79-.91-24.32-11.25-24.32-5.78,0-17.63,3.8-17.63,33.89,0,18.24,4.41,41.65,4.41,43.47,0,2.13-2.59,2-4.11,2h-12.92c-5.62,0-7.9,2.58-7.9-37.54,0-68.86,5.32-64.6,17-64.6,5.32,0,10.8-.76,10.8,2.73,0,1.52-1.37,3.35-1.37,5.48,0,1.52.76,2.88,2.28,2.88,2.58,0,9.57-6.23,19.3-6.23,4.26,0,21.89.61,21.89,40.59,0,59.73-4.72,56.69-9.88,56.69Z" transform="translate(1165.46 444.51)"/><path class="cls-2" d="M-597.73,617.5a5.57,5.57,0,0,1-4.2-1.45c-2.71-2.64-3.92-8.77-3.92-38.12,0-47.76,2.59-59.35,7.37-64,2.8-2.75,6.19-2.67,9.77-2.6,1.36,0,2.86,0,4.3,0,3.89-.08,7.25-.16,9.13,1.69a4.17,4.17,0,0,1,1.25,3.09,8.42,8.42,0,0,1-.73,3,7.39,7.39,0,0,0-.64,2.49,1.38,1.38,0,0,0,.23.89,16.06,16.06,0,0,0,3.22-1.45c3.68-1.91,9.22-4.79,16.13-4.79,8.92,0,23.89,5.54,23.89,42.59,0,42.54-2.39,53.58-6,57.07a6.53,6.53,0,0,1-5.25,1.63h-14.41c-1.66,0-3.94.1-5.44-1.36a4.16,4.16,0,0,1-1.2-3.08,13.45,13.45,0,0,1,.75-3.19,173.81,173.81,0,0,0,7-49.4c0-11-1.1-22.32-9.25-22.32-4.7,0-15.63,3.11-15.63,31.89,0,13.71,2.53,30.45,3.74,38.49.5,3.27.67,4.42.67,5a3.66,3.66,0,0,1-1.06,2.67c-1.34,1.33-3.4,1.33-4.77,1.31h-13.2l-.9,0Zm7.31-102.22c-2.47,0-4,.23-5.26,1.48-4.44,4.34-6.17,21.49-6.17,61.17,0,16.94.33,32.94,2.71,35.26.34.32.86.33,2.18.3l1,0h13.22a8.36,8.36,0,0,0,1.79-.11c-.06-.65-.32-2.4-.6-4.25-1.23-8.14-3.79-25.08-3.79-39.09,0-32.39,13.73-35.89,19.63-35.89,13.25,0,13.25,18.44,13.25,26.32A177.42,177.42,0,0,1-559.61,611c-.26.9-.52,1.84-.59,2.17a.83.83,0,0,0,0,.17,7.41,7.41,0,0,0,2.51.18H-543c1.32,0,1.83,0,2.35-.5,3.25-3.16,4.76-20.38,4.76-54.2,0-24.88-7.07-38.59-19.89-38.59-5.93,0-10.76,2.51-14.28,4.34-2.2,1.14-3.66,1.89-5,1.89-2.48,0-4.28-2-4.28-4.88a10.87,10.87,0,0,1,.9-3.9,6.34,6.34,0,0,0,.47-1.57.56.56,0,0,0,0-.23c-.69-.67-4-.6-6.25-.55-1.5,0-3.06,0-4.48,0Z" transform="translate(1165.46 444.51)"/><path class="cls-4" d="M-484.38,499.19c0,4.11-4.56,13.38-4.56,15.2,0,2.74.76,4.56,3,4.56,2,0,3.8-.76,5.77-.76,5.78,0,5.93,4.11,5.93,9.28,0,2.12,0,7.9-3.19,7.9-1.22,0-4.26-1.37-7-1.37-8.36,0-8.36,9.73-8.36,23.26,0,40.43,8.51,47.11,8.51,49.7,0,2.28-17.63,10.79-21.13,10.79-5.77,0-7.29-33.9-7.29-42.26,0-18.69.91-26,.91-28.87,0-4.56,1.37-12.62-5.47-12.62-2.74,0-4.26,1.82-5.93,1.82-2,0-1.82-2-1.82-4.71,0-11.55,3.34-12.92,9.12-12.92a22.35,22.35,0,0,0,2.88.61c4.72,0,5.17-7.45,5.93-12.77.76-5.77,17.79-10,20.83-10C-485.14,496-484.38,496.31-484.38,499.19Z" transform="translate(1165.46 444.51)"/><path class="cls-2" d="M-505.36,619.75c-2.86,0-5.79-2.4-7.8-19.76-1.09-9.41-1.49-20-1.49-24.5,0-13.48.48-21.2.74-25.34.1-1.62.17-2.78.17-3.53s0-1.35,0-2.09c.1-2.66.23-6.3-1.15-7.74a2.93,2.93,0,0,0-2.37-.79,6.1,6.1,0,0,0-2.81.87,6.9,6.9,0,0,1-3.12,1,3.51,3.51,0,0,1-2.6-1c-1.24-1.24-1.23-3.06-1.23-5.17v-.54c0-12.47,4.07-14.92,11.12-14.92a5.41,5.41,0,0,1,1.57.32,4.78,4.78,0,0,0,1.31.29c2.3,0,3.05-4.24,3.72-9.37.08-.58.15-1.14.23-1.68,1-7.82,20.44-11.75,22.81-11.75,3.82,0,3.82,3.77,3.82,5.19,0,2.83-1.64,7.15-3.09,11a34.81,34.81,0,0,0-1.47,4.29c0,2.51.65,2.51,1,2.51a12.59,12.59,0,0,0,2.49-.34,16.79,16.79,0,0,1,3.28-.42c7.93,0,7.93,6.52,7.93,11.28,0,2.44,0,9.9-5.19,9.9a11.07,11.07,0,0,1-2.74-.56,17,17,0,0,0-4.25-.81c-6.08,0-6.36,7.29-6.36,21.26,0,31.79,5.37,42.47,7.4,46.49a7.32,7.32,0,0,1,1.11,3.21c0,1.07,0,2.88-10.36,8C-494.18,615.79-502.28,619.75-505.36,619.75ZM-517.21,532a7,7,0,0,1,5.25,2c2.56,2.67,2.4,7.1,2.27,10.66,0,.69-.05,1.35-.05,2,0,.87-.07,2-.18,3.78-.26,4.1-.73,11.74-.73,25.09,0,14.49,2.32,38.11,5.42,40.25,3-.19,16.32-6.66,18.86-9.08-.14-.31-.35-.73-.55-1.11-2.34-4.65-7.82-15.55-7.82-48.29,0-14.11,0-25.26,10.36-25.26a19.84,19.84,0,0,1,5.33,1,12.93,12.93,0,0,0,1.67.41s1.18-.07,1.18-5.9c0-6.19-.59-7.28-3.93-7.28a13.49,13.49,0,0,0-2.49.34,16.06,16.06,0,0,1-3.28.42c-1.88,0-5-.85-5-6.56,0-1,.56-2.58,1.73-5.66s2.83-7.44,2.83-9.54a9,9,0,0,0-.07-1.18c-3.88.19-18.11,4.61-18.6,8.28-.07.55-.15,1.1-.22,1.66C-506,513.37-507,520.8-513,520.8a8.2,8.2,0,0,1-2.52-.47c-.16-.05-.31-.11-.44-.14-4.25,0-7,.07-7,10.92v.56a19.4,19.4,0,0,0,.07,2.1,7.67,7.67,0,0,0,1.1-.48A9.87,9.87,0,0,1-517.21,532Zm31.14,74.32Z" transform="translate(1165.46 444.51)"/><path class="cls-4" d="M-456.72,615.47c-7.44,0-8,3.19-8-50.31,0-52,2.43-47,7.45-47H-449c6.39,0,6.54.46,6.54,2.28,0,5.63-1.82,11.25-1.82,27.82,0,38.3,5.92,61.86,5.92,63.23,0,4.86-4.56,4-8.05,4Zm-6.38-119.16c0-6.54,5.62-10.49,11.7-10.49s11.71,3.95,11.71,10.49-5.63,10-11.71,10S-463.1,502.84-463.1,496.31Z" transform="translate(1165.46 444.51)"/><path class="cls-2" d="M-443.39,617.54c-.54,0-1.08,0-1.6,0l-1.39,0h-10.34l-1.14,0c-1.87,0-3.81.09-5.38-1.43-3.23-3.16-3.53-11.84-3.53-50.9,0-37.84,1.26-45.38,4.08-48a5.16,5.16,0,0,1,4.32-1.07c.34,0,.68.06,1.05.06H-449c5.33,0,8.54,0,8.54,4.28a58.93,58.93,0,0,1-.57,7,156.79,156.79,0,0,0-1.25,20.82c0,32,4.13,53.49,5.49,60.55a17.27,17.27,0,0,1,.43,2.68,5.8,5.8,0,0,1-1.61,4.36C-439.4,617.29-441.42,617.54-443.39,617.54Zm-13.33-4.07h10.34l1.52,0c1.56.06,3.5.12,4.14-.49a2.23,2.23,0,0,0,.39-1.49c0-.12-.18-1-.36-1.93-1.38-7.15-5.56-28.9-5.56-61.3A160.7,160.7,0,0,1-445,527a57,57,0,0,0,.54-6.52v-.07a30.4,30.4,0,0,0-4.54-.21h-8.35c-.49,0-.95,0-1.4-.07-.7-.06-1.13-.09-1.27,0-2.45,2.25-2.78,24-2.78,45,0,30.07.1,45.86,2.33,48,.33.32,1,.34,2.48.3Zm5.32-105.13c-6.81,0-13.7-4.13-13.7-12,0-7.12,5.89-12.49,13.7-12.49s13.71,5.37,13.71,12.49C-437.69,504.21-444.59,508.34-451.4,508.34Zm0-20.52c-4.82,0-9.7,2.91-9.7,8.49s4.87,8,9.7,8c4.68,0,9.71-2.52,9.71-8S-446.58,487.82-451.4,487.82Z" transform="translate(1165.46 444.51)"/><path class="cls-4" d="M-428.14,571.69c0-26.14,13.22-55.78,43.16-55.78,13.23,0,22.8,7.15,22.8,15.81,0,4.56-3.34,13.38-9,13.38-3.5,0-2.89-11.25-15.2-11.25-15.66,0-21.28,20.67-21.28,33.44,0,14.74,7,27.05,21.43,27.05,16.41,0,20.21-15,21.58-15,.76,0,2.28,2.73,2.28,9,0,18.24-12,29.49-29.94,29.49C-417.5,617.75-428.14,593.89-428.14,571.69Z" transform="translate(1165.46 444.51)"/><path class="cls-2" d="M-392.27,619.75c-26.16,0-37.87-24.14-37.87-48.06,0-27.83,14.13-57.78,45.16-57.78,14.14,0,24.8,7.66,24.8,17.81,0,5.37-3.76,15.38-11,15.38-2.42,0-3.55-2.14-4.65-4.2-1.74-3.31-3.73-7-10.55-7-14.05,0-19.28,19.28-19.28,31.44s5.1,25.05,19.43,25.05c11.57,0,16.21-8.17,18.44-12.1,1-1.77,1.67-2.94,3.14-2.94,3.16,0,4.28,5.66,4.28,11C-360.33,607.39-372.87,619.75-392.27,619.75ZM-385,517.91c-28.28,0-41.16,27.88-41.16,53.78,0,21.93,10.47,44.06,33.87,44.06,17.23,0,27.94-10.53,27.94-27.49a24.16,24.16,0,0,0-.47-5.13c-2.66,4.59-8.42,13.21-21.39,13.21-14.24,0-23.43-11.4-23.43-29.05,0-13.7,6.32-35.44,23.28-35.44,9.23,0,12.27,5.74,14.09,9.18a11.93,11.93,0,0,0,1.25,2.06c3.95-.17,6.82-7.52,6.82-11.37C-364.18,524-373.31,517.91-385,517.91Z" transform="translate(1165.46 444.51)"/><path class="cls-4" d="M-354,566.68c0-24.47,11.71-50.77,38.15-50.77s38.15,26.3,38.15,50.77c0,35.72-20.67,51.07-38.15,51.07S-354,602.4-354,566.68Zm57.46-3.8c0-12-4.26-29-19.31-29s-19.3,17-19.3,29,3.95,29.49,19.3,29.49S-296.51,575-296.51,562.88Z" transform="translate(1165.46 444.51)"/><path class="cls-2" d="M-315.82,619.75c-10,0-19.91-4.67-27.12-12.82-8.52-9.62-13-23.54-13-40.25,0-25.41,12.57-52.77,40.15-52.77s40.15,27.36,40.15,52.77c0,16.71-4.5,30.63-13,40.25C-295.9,615.08-305.79,619.75-315.82,619.75Zm0-101.84c-24.84,0-36.15,25.28-36.15,48.77,0,33.71,18.74,49.07,36.15,49.07s36.15-15.36,36.15-49.07C-279.67,543.19-291,517.91-315.82,517.91Zm0,76.46c-15.7,0-21.3-16.27-21.3-31.49,0-14.31,5.58-31,21.3-31s21.31,16.72,21.31,31C-294.51,578.1-300.11,594.37-315.82,594.37Zm0-58.52c-16.81,0-17.3,24.26-17.3,27,0,4.59.83,27.49,17.3,27.49s17.31-22.9,17.31-27.49C-298.51,560.11-299,535.85-315.82,535.85Z" transform="translate(1165.46 444.51)"/><path class="cls-4" d="M-189.51,552.24c4.41-.76,7.91-1.52,7.91-6.54,0-7.75-8.06-11.85-14.75-11.85-15.5,0-13.22,13.07-16.56,13.07-4.87,0-10.19-5.93-10.19-12.46,0-11.25,12.62-18.55,26.6-18.55,4.86,0,25.69-.15,33.44,21.13,3.19,8.82,3.5,53.81,3.5,59.13,0,6.68,1.21,10.64,1.21,15.8,0,3.19-14.29,3.5-27.81,3.5-36.63,0-39.22-18.85-39.22-28C-225.38,568.35-206.53,555.13-189.51,552.24Zm9.43,26.6c0-5.32.91-11.7-6.39-11.7-9,0-18.39,7.59-18.39,16.87,0,8.51,7.45,13.52,15.5,13.52,9,0,9.28-4.56,9.28-12Z" transform="translate(1165.46 444.51)"/><path class="cls-2" d="M-186.16,617.47c-27,0-41.22-10.36-41.22-30,0-20,19.34-34.14,37.54-37.23,4.91-.85,6.24-1.51,6.24-4.57,0-6.79-7.46-9.85-12.75-9.85-9.2,0-11,4.8-12.46,8.66-.78,2.07-1.66,4.41-4.1,4.41-6.27,0-12.19-7-12.19-14.46,0-11.72,12.3-20.55,28.6-20.55h.11c22.34,0,31.48,12.21,35.21,22.45,3.52,9.71,3.62,59.31,3.62,59.81a66.22,66.22,0,0,0,.65,8.7,55.65,55.65,0,0,1,.56,7.1C-156.35,616.29-162.76,617.47-186.16,617.47Zm-10.19-85.62c8.23,0,16.75,5.18,16.75,13.85,0,6.86-5.53,7.81-9.57,8.51h0c-16.58,2.82-34.21,15.44-34.21,33.29,0,6.43,0,26,37.22,26,5.75,0,23,0,25.81-1.9a55.52,55.52,0,0,0-.53-6.21,70.25,70.25,0,0,1-.68-9.19c0-10.38-.58-50.7-3.38-58.45-3.29-9-11.42-19.81-31.45-19.81h-.11c-12.09,0-24.6,6.19-24.6,16.55,0,5.34,4.26,10.11,7.8,10.44a18.36,18.36,0,0,0,.75-1.79C-211.07,539.17-208.32,531.85-196.35,531.85Zm7,67.68c-8.48,0-17.5-5.44-17.5-15.52,0-10.8,10.77-18.87,20.39-18.87a8.14,8.14,0,0,1,6.07,2.16c2.46,2.5,2.39,6.46,2.33,10,0,.53,0,1.06,0,1.58v6.69C-178.08,592.41-178.08,599.53-189.36,599.53Zm2.89-30.39c-7.58,0-16.39,6.49-16.39,14.87,0,7.56,6.79,11.52,13.5,11.52,7,0,7.28-2.4,7.28-10v-6.69c0-.54,0-1.09,0-1.65,0-2.84.1-5.78-1.18-7.09A4.38,4.38,0,0,0-186.47,569.14Z" transform="translate(1165.46 444.51)"/><path class="cls-4" d="M-118.53,485.82c1.37,0,2.44,1.67,2.44,3.19,0,2.13-5.78,17-5.78,29.18,0,1.83,0,4.71,2.59,4.71,1.21,0,3.64-1.36,7-3.34,3.49-1.82,7.75-3.65,12.76-3.65,13.84,0,24,9.88,24,46.51,0,14.59-2.13,53.05-6.84,53.05H-98.16c-1.37,0-5.47.45-5.47-2,0-1.06,7.6-31.16,7.6-51.37,0-23.56-4-28.27-11.4-28.27-15.5,0-15.81,23.71-15.81,34.5,0,30.4,3.35,40.28,3.35,44.69,0,2.43-2.89,2.43-4.41,2.43h-15c-4.41,0-4.41,5.17-4.41-62.32,0-12.16.31-67.33,8.67-67.33Z" transform="translate(1165.46 444.51)"/><path class="cls-2" d="M-140.87,617.56a3.33,3.33,0,0,1-2.37-.86c-2.52-2.3-2.52-6.92-2.52-63.55,0-8.2.16-24.08,1.21-38.37,2-27.21,5.72-31,9.46-31h16.56c2.66,0,4.44,2.68,4.44,5.19,0,.88-.38,2.2-1.29,5.37-1.68,5.81-4.49,15.52-4.49,23.81,0,.59,0,2.37.36,2.69h0a1,1,0,0,0,.23,0c.89,0,4.32-2.08,6-3.06l.09-.05c3.46-1.81,8.14-3.88,13.69-3.88,17.75,0,26,15.42,26,48.51,0,7.34-.52,20.54-1.66,32.19-2.07,21.09-4.68,22.86-7.18,22.86H-98.68c-1.61,0-4.31.14-5.87-1.37a3.55,3.55,0,0,1-1.08-2.62,24.5,24.5,0,0,1,.74-3.8C-103,601.12-98,578.35-98,562.12c0-24.3-4.26-26.27-9.4-26.27-12.37,0-13.81,18.55-13.81,32.5,0,21.86,1.76,33.12,2.7,39.17a39.4,39.4,0,0,1,.65,5.52c0,2.94-2.16,4.43-6.41,4.43h-15c-.25,0-.48,0-.69,0S-140.57,617.56-140.87,617.56Zm5.78-129.74c-2.66.86-6.67,19-6.67,65.33,0,41.19,0,57.56,1.14,60.4l.22,0c.32,0,.68-.06,1.05-.06h15a5.06,5.06,0,0,0,2.41-.32s0,0,0-.11a38.41,38.41,0,0,0-.6-4.91c-1-6.15-2.75-17.61-2.75-39.78,0-4.9,0-14,2.17-21.83,3.35-12.13,10.36-14.67,15.64-14.67,9.89,0,13.4,7.92,13.4,30.27,0,16.66-5,39.74-7,48.42-.25,1.13-.49,2.22-.6,2.78a9.53,9.53,0,0,0,2.77.16h16c2.93-3.72,5.27-33.15,5.27-51.05,0-39.45-11.77-44.51-22-44.51a25.37,25.37,0,0,0-11.79,3.4c-4.29,2.53-6.35,3.59-8,3.59-4.59,0-4.59-5-4.59-6.71,0-8.85,2.91-18.91,4.64-24.92a43.71,43.71,0,0,0,1.14-4.29,1.64,1.64,0,0,0-.51-1.16Z" transform="translate(1165.46 444.51)"/><path class="cls-4" d="M2.31,518.19c6.39,0,6.54,31.92,6.54,46.36,0,55.78-3.95,53.2-14.9,53.2-16,0-3.8-8.51-12.46-8.51-1.37,0-4.86,3.19-7.6,5a20.57,20.57,0,0,1-11.25,3.5c-12.61,0-24.32-7.91-24.32-51.37,0-2.59,1.07-48.19,7.45-48.19h14c2,0,6.08-.76,6.08,2.28,0,2.28-7,17.48-7,46.21,0,8.51-.15,31.61,12.92,31.61,5,0,16.57-1.52,16.57-34.2,0-18.23-5.32-41.64-5.32-44.07,0-2,3.5-1.83,5.17-1.83Z" transform="translate(1165.46 444.51)"/><path class="cls-2" d="M-3.46,619.77H-6c-5,0-7.92-.77-9.56-2.49A6,6,0,0,1-17,612.44a7,7,0,0,0,0-1,4.32,4.32,0,0,0-1.41-.18A24.91,24.91,0,0,0-22,613.72c-1,.76-2,1.55-3,2.2a22.73,22.73,0,0,1-12.36,3.83c-18.2,0-26.32-16.46-26.32-53.37,0-1.31.27-13.43,1.34-25.24,1.88-20.7,4.6-24.95,8.11-24.95h14l.94,0c1.83-.09,4.33-.22,5.92,1.29a4,4,0,0,1,1.22,3,16.32,16.32,0,0,1-.95,4c-1.8,6-6,20.13-6,42.25V567c0,4.18,0,12,1.56,18.47,2.6,10.85,7.69,10.85,9.36,10.85,9.67,0,14.57-10.83,14.57-32.2,0-13.18-2.83-29.18-4.35-37.77a57.7,57.7,0,0,1-1-6.3,3.28,3.28,0,0,1,1-2.38c1.48-1.47,4.11-1.46,5.86-1.45H2.31c6.22,0,8.54,13.11,8.54,48.36s-1.5,48.09-6.17,52.71C2.38,619.53-.44,619.77-3.46,619.77Zm-15-12.53c1.33,0,3.25.15,4.47,1.43a5,5,0,0,1,1,4c0,1,0,1.55.27,1.87S-11,615.75-6,615.75h1.41c3.35,0,5.15,0,6.5-1.34,3.64-3.6,5-17.11,5-49.87,0-5.66,0-17.44-.78-27.36-1.21-15.41-3.56-16.89-3.78-17H-12.17a13.22,13.22,0,0,0-2.79.2c.11.91.49,3,.88,5.23,1.54,8.72,4.41,24.94,4.41,38.47,0,24-6.25,36.2-18.57,36.2-4.52,0-10.5-2.41-13.25-13.92-1.67-7-1.67-15-1.67-19.4v-.29c0-22.71,4.35-37.21,6.21-43.4a28.72,28.72,0,0,0,.78-2.85.41.41,0,0,0,0-.14,9.17,9.17,0,0,0-2.92-.14c-.41,0-.8,0-1.14,0H-54c-.52.48-2.83,3.65-4.46,22.86-.95,11.21-1.19,22.16-1.19,23.33,0,43.76,11.93,49.37,22.32,49.37a18.71,18.71,0,0,0,10.21-3.2c.79-.54,1.77-1.28,2.72-2C-21.66,608.43-20,607.24-18.51,607.24Z" transform="translate(1165.46 444.51)"/><path class="cls-4" d="M31.19,615.47c-5.16,0-8.36,4.86-8.36-40.13,0-64-2-62,18.7-62,3.19,0,6.54.15,6.54,2.43,0,1.82-1.83,4.71-1.83,6.84a2.87,2.87,0,0,0,3,2.58c1.83,0,3.95-1.82,7.3-3.49a28.93,28.93,0,0,1,14.28-3.5c7.45,0,12.32,7,16.12,7a17.06,17.06,0,0,0,9-2.73c3.8-2.13,8.51-4.26,14-4.26,28,0,27.36,36.63,27.36,56.09,0,46.36-5.78,41.19-10.19,41.19H116.77c-1.52,0-5.78.3-5.78-2.43s5.78-19.46,5.78-44.84c0-29-10.34-32.07-16.12-32.07-5.31,0-10.33-.46-10.33,24.62,0,54.57-.76,54.72-5.62,54.72H71c-2.89,0-5.32.61-5.32-1.52,0-2.28,5.77-32.83,5.77-47.27,0-9.12,0-30.55-12.46-30.55-11.4,0-15.66,14-15.66,36.63,0,30.55,4.26,36.32,4.26,40.58,0,2.58-2.74,2.13-4.41,2.13Z" transform="translate(1165.46 444.51)"/><path class="cls-2" d="M129.58,617.64a12.75,12.75,0,0,1-1.47-.1c-.34,0-.68-.07-1-.07H116.37c-1.7,0-4.54.07-6.22-1.59A3.89,3.89,0,0,1,109,613a27.91,27.91,0,0,1,.94-5,170.61,170.61,0,0,0,4.84-39.88c0-13.72-2.45-30.07-14.12-30.07h-.28c-2.16,0-3.44,0-4.51,1.11-2.35,2.35-3.54,9.59-3.54,21.51,0,26.16-.16,40.78-1,48-.78,6.73-2.27,8.67-6.62,8.67H71c-.53,0-1,0-1.52,0-1.84.08-3.58.15-4.8-1a3.4,3.4,0,0,1-1-2.55c0-.78.33-2.91,1.16-8.1,1.61-10.13,4.61-29,4.61-39.17,0-8.54,0-28.55-10.46-28.55-9.19,0-13.66,11.33-13.66,34.63,0,22,2.23,31,3.43,35.83a20.29,20.29,0,0,1,.83,4.75,3.93,3.93,0,0,1-1.15,2.95c-1.34,1.3-3.25,1.24-4.65,1.19H31.19c-.41,0-.81,0-1.2.07a5.76,5.76,0,0,1-4.8-1.16c-2.89-2.64-4.36-9.71-4.36-41,0-5.59,0-10.68,0-15.31-.1-30.63-.13-40.95,4.58-45.66,3.08-3.08,7.57-3.06,14.34-3.05h1.8c3,0,8.54,0,8.54,4.43a11.46,11.46,0,0,1-1,3.87,10.77,10.77,0,0,0-.84,3c0,.23.48.58,1,.58a9.58,9.58,0,0,0,3.21-1.51c.93-.54,2-1.16,3.19-1.77a31,31,0,0,1,15.18-3.71c5,0,8.77,2.62,11.83,4.72C84.33,522,86,523.18,87,523.18a15.23,15.23,0,0,0,7.93-2.45c3.8-2.12,8.89-4.54,15-4.54,12.84,0,21.54,7.22,25.87,21.46,3.5,11.54,3.49,25.34,3.49,35.41v1.22c0,32.28-2.75,39.22-5.73,41.9A5.63,5.63,0,0,1,129.58,617.64Zm-12.81-4.17H127.1c.5,0,1,0,1.42.09,1.28.13,1.82.14,2.36-.35,2.92-2.64,4.41-15.74,4.41-38.93v-1.22c0-9.82,0-23.28-3.32-34.25-3.81-12.53-11-18.62-22-18.62-5.2,0-9.68,2.14-13,4a19,19,0,0,1-9.94,3c-2.21,0-4.22-1.38-6.55-3-2.74-1.88-5.84-4-9.57-4a27.09,27.09,0,0,0-13.32,3.26c-1.16.58-2.15,1.16-3,1.67-2,1.15-3.51,2.06-5.25,2.06a4.83,4.83,0,0,1-5-4.58,13.06,13.06,0,0,1,1.09-4.38,11,11,0,0,0,.73-2.39c-.36-.24-1.46-.5-4.53-.5H39.72c-6,0-9.6,0-11.5,1.88-3.53,3.53-3.5,15-3.41,42.81,0,4.64,0,9.73,0,15.33,0,15.15.32,35.59,3.06,38.09.25.23.61.23,1.75.13.46,0,1-.09,1.55-.09H43.93a7.09,7.09,0,0,0,1.68-.06v-.08a17.76,17.76,0,0,0-.71-3.79c-1.24-5-3.55-14.3-3.55-36.79,0-26,5.78-38.63,17.66-38.63,14.46,0,14.46,22.81,14.46,32.55,0,10.49-2.92,28.84-4.66,39.8-.49,3-1,5.92-1.08,7.06.45,0,1.09,0,1.6,0s1.1,0,1.69,0H84.7c1.57,0,2,0,2.64-5.13.82-7,1-22.16,1-47.59,0-13.76,1.41-21,4.72-24.34,2.29-2.29,5.09-2.26,7.34-2.28h.27c8.27,0,18.12,5.91,18.12,34.07a173.8,173.8,0,0,1-5,40.78A38.61,38.61,0,0,0,113,613c.18.21.93.46,3.33.43Z" transform="translate(1165.46 444.51)"/><path class="cls-4" d="M185.17,552.24c4.41-.76,7.9-1.52,7.9-6.54,0-7.75-8-11.85-14.74-11.85-15.51,0-13.23,13.07-16.57,13.07-4.86,0-10.18-5.93-10.18-12.46,0-11.25,12.61-18.55,26.6-18.55,4.86,0,25.68-.15,33.43,21.13,3.2,8.82,3.5,53.81,3.5,59.13,0,6.68,1.22,10.64,1.22,15.8,0,3.19-14.29,3.5-27.82,3.5-36.63,0-39.21-18.85-39.21-28C149.3,568.35,168.14,555.13,185.17,552.24Zm9.42,26.6c0-5.32.91-11.7-6.38-11.7-9,0-18.39,7.59-18.39,16.87,0,8.51,7.44,13.52,15.5,13.52,9,0,9.27-4.56,9.27-12Z" transform="translate(1165.46 444.51)"/><path class="cls-2" d="M188.51,617.47c-27,0-41.21-10.36-41.21-30,0-20,19.34-34.14,37.53-37.23,4.91-.85,6.24-1.51,6.24-4.57,0-6.79-7.45-9.85-12.74-9.85-9.2,0-11,4.8-12.47,8.67-.77,2.06-1.65,4.4-4.1,4.4-6.26,0-12.18-7-12.18-14.46,0-11.72,12.29-20.55,28.6-20.55h.11c22.34,0,31.47,12.21,35.2,22.45,3.52,9.71,3.62,59.31,3.62,59.81a66.22,66.22,0,0,0,.65,8.7,55.62,55.62,0,0,1,.57,7.1C218.33,616.29,211.92,617.47,188.51,617.47Zm-10.18-85.62c8.23,0,16.74,5.18,16.74,13.85,0,6.86-5.53,7.81-9.56,8.51h0c-16.58,2.82-34.2,15.44-34.2,33.29,0,6.43,0,26,37.21,26,5.76,0,23,0,25.81-1.9a53.25,53.25,0,0,0-.53-6.21,70.25,70.25,0,0,1-.68-9.19c0-10.38-.57-50.7-3.38-58.45-3.29-9-11.42-19.81-31.44-19.81h-.11c-12.1,0-24.6,6.19-24.6,16.55,0,5.34,4.25,10.11,7.79,10.44a16.18,16.18,0,0,0,.75-1.79C163.6,539.17,166.36,531.85,178.33,531.85Zm7,67.68c-8.49,0-17.5-5.44-17.5-15.52,0-10.8,10.76-18.87,20.39-18.87a8.13,8.13,0,0,1,6.06,2.16c2.46,2.5,2.4,6.46,2.34,10,0,.53,0,1.06,0,1.58v6.69C196.59,592.41,196.59,599.53,185.32,599.53Zm2.89-30.39c-7.58,0-16.39,6.49-16.39,14.87,0,7.56,6.79,11.52,13.5,11.52,6.94,0,7.27-2.4,7.27-10v-6.69c0-.54,0-1.09,0-1.65,0-2.84.1-5.78-1.19-7.09A4.36,4.36,0,0,0,188.21,569.14Z" transform="translate(1165.46 444.51)"/><path class="cls-4" d="M258.43,615.47c-17,0-31.92-15.05-31.92-45.75,0-34.81,23.1-53.81,36.48-53.81,3.19,0,6.54,3.5,8.66,3.5,3,0,3.5-5.47,3.5-7.9,0-12.32-3.8-17.79-3.8-23.56,0-2.13,3.8-2.13,5.32-2.13h15.81c6.84,0,6.23,68.09,6.23,75.24,0,3.49.61,54.41-4.71,54.41Zm19.76-56.54c0-26.75-4.1-28.58-9.73-28.58-6.53,0-21.43,8.51-21.43,36.18,0,10.48,3.95,26.75,16.87,26.75C280.32,593.28,278.19,569.87,278.19,558.93Z" transform="translate(1165.46 444.51)"/><path class="cls-2" d="M294,617.47H258.43c-9.4,0-17.9-4.31-23.93-12.14-6.53-8.49-10-20.8-10-35.61,0-20.26,7.44-33.6,13.68-41.22,7.36-9,16.86-14.59,24.8-14.59,2.3,0,4.37,1.22,6.19,2.29a10.05,10.05,0,0,0,2.47,1.21c.6,0,1.5-2.36,1.5-5.9a54.35,54.35,0,0,0-2.36-15.66,30.11,30.11,0,0,1-1.44-7.9c0-4.13,5.51-4.13,7.32-4.13h15.81a3.29,3.29,0,0,1,2.34,1c1.51,1.52,6.11,6.13,5.89,74.53v2.71c.28,49.57-3.36,53.23-4.55,54.43A3,3,0,0,1,294,617.47Zm-31-99.56c-6.67,0-15.19,5.15-21.71,13.12-5.82,7.12-12.77,19.61-12.77,38.69,0,26.58,11.74,43.75,29.92,43.75h35.05c.76-1.33,3.47-9.06,3.23-51.36v-2.74c.19-61.07-3.53-70.2-4.6-71.55H276.67a8.63,8.63,0,0,0-3.32.38,28.25,28.25,0,0,0,1.3,6.59,58,58,0,0,1,2.5,16.72c0,6.2-2.06,9.9-5.5,9.9-1.5,0-2.95-.86-4.49-1.76S264.2,517.91,263,517.91Zm.91,77.37C249,595.28,245,577.21,245,566.53c0-28.85,15.79-38.18,23.43-38.18,8,0,11.73,4.58,11.73,30.58,0,1,0,2.18,0,3.41.15,8.89.37,22.31-6.15,28.94A13.7,13.7,0,0,1,263.9,595.28Zm4.56-62.93c-6.09,0-19.43,8.61-19.43,34.18,0,8.56,3.11,24.75,14.87,24.75a9.74,9.74,0,0,0,7.33-2.8c5.35-5.44,5.14-17.85,5-26.07,0-1.25,0-2.43,0-3.48C276.19,532.35,272.08,532.35,268.46,532.35Z" transform="translate(1165.46 444.51)"/><path class="cls-4" d="M308.89,566.68c0-24.47,11.71-50.77,38.15-50.77s38.15,26.3,38.15,50.77c0,35.72-20.67,51.07-38.15,51.07S308.89,602.4,308.89,566.68Zm57.46-3.8c0-12-4.26-29-19.31-29s-19.3,17-19.3,29,3.95,29.49,19.3,29.49S366.35,575,366.35,562.88Z" transform="translate(1165.46 444.51)"/><path class="cls-2" d="M347,619.75c-10,0-19.91-4.67-27.12-12.82-8.52-9.62-13-23.54-13-40.25,0-25.41,12.57-52.77,40.15-52.77s40.15,27.36,40.15,52.77c0,16.71-4.5,30.63-13,40.25C367,615.08,357.07,619.75,347,619.75Zm0-101.84c-24.83,0-36.15,25.28-36.15,48.77,0,33.71,18.74,49.07,36.15,49.07s36.15-15.36,36.15-49.07C383.19,543.19,371.88,517.91,347,517.91Zm0,76.46c-15.7,0-21.3-16.27-21.3-31.49,0-14.31,5.58-31,21.3-31s21.31,16.72,21.31,31C368.35,578.1,362.75,594.37,347,594.37Zm0-58.52c-16.81,0-17.3,24.26-17.3,27,0,4.59.84,27.49,17.3,27.49s17.31-22.9,17.31-27.49C364.35,560.11,363.86,535.85,347,535.85Z" transform="translate(1165.46 444.51)"/><path class="cls-5" d="M281.32-200.1H268.94c-70.57,0-127.77-60.74-127.77-135.68,38.86,0,74.05,16.73,99.52,43.78A153,153,0,0,1,281.32-200.1Z" transform="translate(1165.46 444.51)"/><path class="cls-6" d="M268.45-251.33c-71.89,0-131.19-57.24-139.69-131.15v0h16.18C213.15-382.5,268.45-323.77,268.45-251.33Z" transform="translate(1165.46 444.51)"/><path class="cls-7" d="M324.6-275.6c0,.83-.75,2.34-2.25,4.5a69.13,69.13,0,0,1-14.15,13.84,33.5,33.5,0,0,1-8.92,4.87,31,31,0,0,1-10.61,1.82,30.19,30.19,0,0,1-10.79-1.82,23.45,23.45,0,0,1-7.61-4.62q-7.14-6.45-7.13-19.09a74.39,74.39,0,0,1,3-19.53,120.13,120.13,0,0,1,3.74-11.48h5.55a95.37,95.37,0,0,0-4.29,13.48,71.45,71.45,0,0,0-2.13,16.9,22.57,22.57,0,0,0,2.32,10.27,18.2,18.2,0,0,0,6.64,7.38A18.3,18.3,0,0,0,288-256.32a32,32,0,0,0,16.59-4.39A81.56,81.56,0,0,0,319.34-272a28,28,0,0,0,1.76-2.82c1-1.71,1.75-2.57,2.25-2.57a1.12,1.12,0,0,1,1,.38A2.64,2.64,0,0,1,324.6-275.6Z" transform="translate(1165.46 444.51)"/><path class="cls-7" d="M305-319.93a12.24,12.24,0,0,1-.82,4.33,18.13,18.13,0,0,1-1.81,3.69q-1,1.5-1.5,1.5c-.67,0-1-.37-1-1.13a7.62,7.62,0,0,1,.44-1.68,7.32,7.32,0,0,0,.44-2.2,22.34,22.34,0,0,0-.75-5.88,7.58,7.58,0,0,0-2.5-3.94,6.29,6.29,0,0,0-4.13-1.56q-9,0-16.91,17.39c-.33.76-.66,1.52-1,2.3h-5.55c1-2.66,2.12-5.13,3.26-7.43a51.79,51.79,0,0,1,9.59-13.52q5.44-5.38,10.95-5.39a9.85,9.85,0,0,1,8.33,3.89A15.56,15.56,0,0,1,305-319.93Z" transform="translate(1165.46 444.51)"/><text class="cls-8" transform="translate(1327.82 191.66) scale(0.82 1)">B<tspan class="cls-9" x="71.78" y="0">y</tspan></text><path class="cls-10" d="M361.8-278.74a32.11,32.11,0,0,1-2.85,6.43,33.29,33.29,0,0,1-10.27,11,26,26,0,0,1-15.14,4.57,23,23,0,0,1-5.18-.54l9.11-5.84h0a18.3,18.3,0,0,0,8.39-3.14,25.89,25.89,0,0,0,6.8-6.59h0Z" transform="translate(1165.46 444.51)"/><path class="cls-11" d="M357.31-295.81,352-292.1a55.79,55.79,0,0,0-6.33-5.25,42.25,42.25,0,0,1-4.75-3.87,4.09,4.09,0,0,1-1.51-2.5c0-1,.71-1.82,2.13-2.45a12.27,12.27,0,0,1,5-.94,7.21,7.21,0,0,1,2.12.19.67.67,0,0,1,.5.69,1.69,1.69,0,0,1-.44.81,1.69,1.69,0,0,0-.43.94c0,.25.83,1.09,2.5,2.5A61.53,61.53,0,0,1,357.31-295.81Z" transform="translate(1165.46 444.51)"/><path class="cls-11" d="M339.42-312a3.37,3.37,0,0,1-.69,1.19l-1.06,1.43a58.33,58.33,0,0,0-6.88,10.15,67,67,0,0,0-5.45,12.65,45.6,45.6,0,0,0-1.94,13.64c0,.3,0,.58,0,.86l-5.72,4a20,20,0,0,1-.57-4.86,63.93,63.93,0,0,1,2.2-14.9,61,61,0,0,1,6.19-15.89c.17-.34.86-1.58,2.07-3.7a15.31,15.31,0,0,1,4.07-4.88,7.78,7.78,0,0,1,4.76-1.7,3.9,3.9,0,0,1,2.06.57A1.64,1.64,0,0,1,339.42-312Z" transform="translate(1165.46 444.51)"/><path class="cls-12" d="M362.58-283.57a16.69,16.69,0,0,1-.78,4.83l-9.13,5.84c.32-.44.62-.88.9-1.35a16.7,16.7,0,0,0,2.88-8.57,11.19,11.19,0,0,0-2.88-7.64c-.48-.54-1-1.09-1.56-1.64l5.3-3.71c.67.74,1.3,1.47,1.89,2.22A15.6,15.6,0,0,1,362.58-283.57Z" transform="translate(1165.46 444.51)"/><path class="cls-12" d="M337.47-263.16l-9.11,5.84a13,13,0,0,1-7.22-4.09,16.08,16.08,0,0,1-3.44-6.66l5.72-4q.52,9,12,9A17.49,17.49,0,0,0,337.47-263.16Z" transform="translate(1165.46 444.51)"/><rect class="cls-13" x="1527.36" y="187.19" width="29.74" height="9.85"/><text class="cls-14" transform="translate(1450.2 239.87) scale(0.75 1)">F<tspan class="cls-15" x="25.64" y="0">oo</tspan><tspan class="cls-16" x="84.99" y="0">d</tspan></text><path class="cls-17" d="M68.19,226.85h98.19a0,0,0,0,1,0,0V864.59a0,0,0,0,1,0,0H74a70.5,70.5,0,0,1-70.5-70.5V291.54a64.69,64.69,0,0,1,64.69-64.69Z"/><rect class="cls-18" x="-1322.29" y="72.01" width="493.28" height="56.99" rx="22.16" transform="translate(-10.7 -530.64) rotate(-90)"/><path class="cls-19" d="M-1034.12,17.4H-1115a12.06,12.06,0,0,0-12.06,12.06v116.7A12.06,12.06,0,0,0-1115,158.22h80.91A12.06,12.06,0,0,0-1022,146.16V29.46A12.06,12.06,0,0,0-1034.12,17.4Zm.22,114.33a10.61,10.61,0,0,1-10.61,10.61h-60.13a10.61,10.61,0,0,1-10.61-10.61V43.88a10.61,10.61,0,0,1,10.61-10.61h60.13a10.61,10.61,0,0,1,10.61,10.61Z" transform="translate(1165.46 444.51)"/><path class="cls-19" d="M-1101,127h55.75a0,0,0,0,1,0,0v19.24a0,0,0,0,1,0,0H-1101a5,5,0,0,1-5-5v-9.16A5,5,0,0,1-1101,127Z" transform="translate(-46.86 -494.48) rotate(-90)"/><circle class="cls-20" cx="89.47" cy="516.77" r="7.12"/><circle class="cls-20" cx="89.47" cy="390.4" r="7.12"/><circle class="cls-20" cx="89.47" cy="756.77" r="7.12"/><circle class="cls-20" cx="89.47" cy="700.4" r="7.12"/><circle class="cls-20" cx="89.47" cy="756.77" r="7.12"/><circle class="cls-20" cx="89.47" cy="756.77" r="7.12"/><circle class="cls-20" cx="89.47" cy="700.4" r="7.12"/><circle class="cls-20" cx="89.47" cy="646.77" r="7.12"/><circle class="cls-20" cx="89.47" cy="336.77" r="7.12"/><rect class="cls-19" x="54.56" y="417.96" width="72.51" height="22.71"/><path class="cls-17" d="M68.19,226.85h98.19a0,0,0,0,1,0,0V864.59a0,0,0,0,1,0,0H74a70.5,70.5,0,0,1-70.5-70.5V291.54a64.69,64.69,0,0,1,64.69-64.69Z"/><rect class="cls-18" x="-1322.29" y="72.01" width="493.28" height="56.99" rx="22.16" transform="translate(-10.7 -530.64) rotate(-90)"/><path class="cls-19" d="M-1034.12,17.4H-1115a12.06,12.06,0,0,0-12.06,12.06v116.7A12.06,12.06,0,0,0-1115,158.22h80.91A12.06,12.06,0,0,0-1022,146.16V29.46A12.06,12.06,0,0,0-1034.12,17.4Zm.22,114.33a10.61,10.61,0,0,1-10.61,10.61h-60.13a10.61,10.61,0,0,1-10.61-10.61V43.88a10.61,10.61,0,0,1,10.61-10.61h60.13a10.61,10.61,0,0,1,10.61,10.61Z" transform="translate(1165.46 444.51)"/><path class="cls-19" d="M-1101,127h55.75a0,0,0,0,1,0,0v19.24a0,0,0,0,1,0,0H-1101a5,5,0,0,1-5-5v-9.16A5,5,0,0,1-1101,127Z" transform="translate(-46.86 -494.48) rotate(-90)"/><circle class="cls-20" cx="89.47" cy="516.77" r="7.12"/><circle class="cls-20" cx="89.47" cy="390.4" r="7.12"/><circle class="cls-20" cx="89.47" cy="756.77" r="7.12"/><circle class="cls-20" cx="89.47" cy="700.4" r="7.12"/><circle class="cls-20" cx="89.47" cy="756.77" r="7.12"/><circle class="cls-20" cx="89.47" cy="756.77" r="7.12"/><circle class="cls-20" cx="89.47" cy="700.4" r="7.12"/><circle class="cls-20" cx="89.47" cy="646.77" r="7.12"/><circle class="cls-20" cx="89.47" cy="336.77" r="7.12"/><rect class="cls-19" x="54.56" y="417.96" width="72.51" height="22.71"/><path class="cls-17" d="M537.54-217.66h92.38a0,0,0,0,1,0,0V420.09a0,0,0,0,1,0,0H531.73A64.69,64.69,0,0,1,467,355.39V-147.15a70.5,70.5,0,0,1,70.5-70.5Z" transform="translate(2262.42 646.94) rotate(-180)"/><rect class="cls-18" x="301.97" y="72.01" width="493.28" height="56.99" rx="22.16" transform="translate(1613.56 1093.63) rotate(-90)"/><path class="cls-19" d="M495,29.46v116.7a12.06,12.06,0,0,0,12.07,12.06H588a12.06,12.06,0,0,0,12.06-12.06V29.46A12.06,12.06,0,0,0,588,17.4H507.08A12.06,12.06,0,0,0,495,29.46Zm11.85,14.42a10.61,10.61,0,0,1,10.61-10.61H577.6a10.61,10.61,0,0,1,10.61,10.61v87.85a10.61,10.61,0,0,1-10.61,10.61H517.47a10.61,10.61,0,0,1-10.61-10.61Z" transform="translate(1165.46 444.51)"/><path class="cls-19" d="M523.25,127H579a0,0,0,0,1,0,0v19.24a0,0,0,0,1,0,0H523.25a5,5,0,0,1-5-5v-9.16a5,5,0,0,1,5-5Z" transform="translate(1577.4 1129.78) rotate(-90)"/><circle class="cls-20" cx="1714.41" cy="516.77" r="7.12"/><circle class="cls-20" cx="1714.41" cy="390.4" r="7.12"/><circle class="cls-20" cx="1714.41" cy="756.77" r="7.12"/><circle class="cls-20" cx="1714.41" cy="700.4" r="7.12"/><circle class="cls-20" cx="1714.41" cy="756.77" r="7.12"/><circle class="cls-20" cx="1714.41" cy="756.77" r="7.12"/><circle class="cls-20" cx="1714.41" cy="700.4" r="7.12"/><circle class="cls-20" cx="1714.41" cy="646.77" r="7.12"/><circle class="cls-20" cx="1714.41" cy="336.77" r="7.12"/><rect class="cls-19" x="511.34" y="-26.55" width="72.51" height="22.71" transform="translate(2260.66 414.13) rotate(-180)"/></svg>