<svg id="Capa_1" data-name="Capa 1" xmlns="http://www.w3.org/2000/svg" viewBox="0 0 213 169"><defs><style>.cls-1{fill:#f2f2f1;stroke:#f2f2f1;stroke-miterlimit:10;stroke-width:0.69px;}.cls-2{fill:none;}</style></defs><path class="cls-1" d="M366.39,23.79a15.78,15.78,0,0,0-13.3-7.39H207.33a15.67,15.67,0,0,0-11.83,5.43,16.51,16.51,0,0,0-4.08,10.93v105.3a16.56,16.56,0,0,0,3.17,9.8,15.75,15.75,0,0,0,12.74,6.56H353.09a15.76,15.76,0,0,0,12.55-6.3,16.62,16.62,0,0,0,3.36-9.83V32.76A16.6,16.6,0,0,0,366.39,23.79Zm-163,7.57a10.32,10.32,0,0,1,9.07-5.47H348a10.4,10.4,0,0,1,9.7,6.86L297.62,94.54a23.5,23.5,0,0,1-33.9,0L203,32.09C203.09,31.84,203.21,31.6,203.34,31.36Zm-1.31,13,39.78,40.85L202,126.13ZM348,144.93H212.41a10.34,10.34,0,0,1-9.27-5.87l45.52-46.81,10.72,11a30.17,30.17,0,0,0,43.52,0l9.57-9.83,44.66,45.92A10.34,10.34,0,0,1,348,144.93Zm10.38-17.54L318.93,86.81l39.46-40.59Z" transform="translate(-174)"/><rect class="cls-2" width="213" height="169"/></svg>