<svg id="Capa_1" data-name="Capa 1" xmlns="http://www.w3.org/2000/svg" viewBox="0 0 190.3 190.3"><defs><style>.cls-1{fill:#fff;stroke:#fff;stroke-miterlimit:10;stroke-width:0.24px;}</style></defs><path class="cls-1" d="M411.25,40.58a95,95,0,1,0,27.84,67.19A94.71,94.71,0,0,0,411.25,40.58Zm-67.2,150.3a83.11,83.11,0,1,1,83.11-83.11A83.11,83.11,0,0,1,344.05,190.88Z" transform="translate(-248.9 -12.62)"/><path class="cls-1" d="M350.85,75.22v16H373l-3,21.7H350.85v57.24H328.2V112.9H308.64V91.2H328.2v-18a28,28,0,0,1,23.25-27.62,106,106,0,0,1,22.06,1.68V65.92H360.15A9.3,9.3,0,0,0,350.85,75.22Z" transform="translate(-248.9 -12.62)"/></svg>