<svg id="Capa_1" data-name="Capa 1" xmlns="http://www.w3.org/2000/svg" viewBox="0 0 479.35 378.55"><defs><style>.cls-1,.cls-17,.cls-3{fill:#fff;}.cls-1,.cls-12,.cls-13{stroke:#541111;}.cls-1,.cls-12,.cls-13,.cls-16,.cls-19,.cls-20,.cls-21{stroke-miterlimit:10;}.cls-1,.cls-16,.cls-19,.cls-20,.cls-21{stroke-width:2.28px;}.cls-12,.cls-2,.cls-23,.cls-6{fill:#541111;}.cls-4{fill:#e62f2c;}.cls-5{fill:#f4a6a7;}.cls-6{opacity:0.16;}.cls-7{fill:#f4e600;}.cls-7,.cls-8,.cls-9{opacity:0.34;}.cls-8{fill:#e52823;}.cls-9{fill:#3d4193;}.cls-10{fill:#0a8d45;}.cls-11{fill:#204c2f;}.cls-12{stroke-width:0.65px;}.cls-13,.cls-16,.cls-20,.cls-21{fill:none;}.cls-13{stroke-width:3.26px;}.cls-14,.cls-15{fill:#088036;}.cls-14{opacity:0.84;}.cls-15,.cls-22{opacity:0.77;}.cls-16{stroke:#17863d;opacity:0.96;}.cls-17{font-size:43.14px;font-family:MyriadPro-Regular, Myriad Pro;}.cls-18{font-size:23.03px;}.cls-18,.cls-23{font-family:MyriadPro-Bold, Myriad Pro;font-weight:700;}.cls-19{fill:#d34318;stroke:#d34318;}.cls-20{stroke:#faea29;}.cls-21{stroke:#273d8e;}.cls-22{fill:#70c5c9;}.cls-23{font-size:16.67px;}.cls-24{letter-spacing:-0.03em;}.cls-25{letter-spacing:0em;}</style></defs><path class="cls-1" d="M1.14,1.14H418.58a59.63,59.63,0,0,1,59.63,59.63V377.41a0,0,0,0,1,0,0H60.77A59.63,59.63,0,0,1,1.14,317.78V1.14a0,0,0,0,1,0,0Z"/><path class="cls-2" d="M525.56,304.24V400H108.12a59.63,59.63,0,0,1-59.63-59.63V304.24Z" transform="translate(-47.35 -22.59)"/><path class="cls-3" d="M240.45,239.76a87,87,0,0,1,7.92-21.48c5.52-10,7.42-14.26,2.7-22.12s-23.64-21.22-23.64-21.22-22.73-16-27-32.45,4.76-24.43,8.22-28.73,11.56-13.65,36.12-22.27c0,0-34.71,20.37-33.73,42.75.12,4.64,1.9,12.44,5.13,16.48A28.74,28.74,0,0,1,220,123.61c4.41-5.54,12.52-10,16.74-12a70.67,70.67,0,0,0,8.11-4.63c5.37-3.55,13.08-9.22,15-13.62,3-6.92-1.13-10.77-6-14.72S243,67.54,241.29,60.83s.78-10.34,4.82-14.58c0,0-4.1,9.55,16.1,26.1,7,5.88,11.72,13.84,11.51,22-.18,6.74-2.91,14.1-9.86,20.34a30.1,30.1,0,0,1-7.68,4.92c-10.76,4.89-15.09,10.52-16.14,13.85-1.12,3.61-3.88,16.56,16.82,29a76.8,76.8,0,0,1,23.22,21.89,25,25,0,0,1-6.4,34.88c-.24.17-.49.33-.74.49a37.06,37.06,0,0,1-4.65,2.49C260.09,225.93,252.28,228.21,240.45,239.76Z" transform="translate(-47.35 -22.59)"/><path class="cls-3" d="M225.44,240.74a75.49,75.49,0,0,1,7.24-19.83c5.18-9.22,6.93-13.19,2.08-20.36s-23.82-19.23-23.82-19.23-22.77-14.43-27.39-29.52,4-22.51,7.34-26.5,11-12.68,35-20.87c0,0-33.63,19.11-32.08,39.66.23,4.27,2.2,11.42,5.48,15.09a24.84,24.84,0,0,1,3-25c4.19-5.15,12.06-9.31,16.16-11.25a69.77,69.77,0,0,0,7.86-4.34c5.2-3.33,12.64-8.62,14.4-12.68,2.77-6.4-1.39-9.89-6.32-13.47s-10.91-10-12.78-16.2.5-9.51,4.37-13.44c0,0-3.8,8.81,16.52,23.8,7.05,5.33,11.89,12.59,11.89,20.08,0,6.19-2.49,13-9.17,18.8a29.38,29.38,0,0,1-7.43,4.61c-10.46,4.61-14.58,9.83-15.52,12.91-1,3.32-3.39,15.26,17.3,26.5A75.44,75.44,0,0,1,263,189.4a21.85,21.85,0,0,1-5.39,32.13l-.72.46a34.93,34.93,0,0,1-4.51,2.33C244.41,227.81,236.78,230,225.44,240.74Z" transform="translate(-47.35 -22.59)"/><path class="cls-3" d="M224,240.75a73.89,73.89,0,0,0-4.5-19c-3.66-9-4.82-12.81,0-19s22.29-15.47,22.29-15.47,21-11.15,26.29-24.62-1.5-21.13-4-25.12-8.4-12.73-28.36-22.54c0,0,27.37,20.79,24.21,39.59-.59,3.91-2.92,10.31-6.08,13.39a24.34,24.34,0,0,0-.41-23.29c-3.17-5.14-9.6-9.72-13-11.89a60.69,60.69,0,0,1-6.41-4.75c-4.19-3.55-10.15-9.14-11.31-13-1.83-6.15,2.08-9,6.65-11.81S239.72,95,241.89,89.55s.41-8.82-2.58-12.81c0,0,2.49,8.48-16.39,20.38-6.57,4.24-11.39,10.48-12.06,17.38-.55,5.71,1,12.21,6.26,18.19a25.66,25.66,0,0,0,6,5c8.62,5.24,11.72,10.44,12.26,13.36.58,3.16,1.58,14.39-17.3,22.79a65.61,65.61,0,0,0-22,16.08,21.15,21.15,0,0,0,1.8,30.12l.58.49a30.67,30.67,0,0,0,3.7,2.59C208.76,227,215.16,229.77,224,240.75Z" transform="translate(-47.35 -22.59)"/><path class="cls-2" d="M181.81,202.14a58.88,58.88,0,0,1,4-45.17c9.62-18,30.69-34.24,74.67,7.05,18.24,17.38,53.42,36.34,84.69,26.86,21.18-5.69,57.66-16.12,98.38,21.81-13-7.9-31.32-11.75-50.54-6.58a69.3,69.3,0,0,0-19.71,8.9c-21.82,14.22-51.07,26.73-83.83,32.13C289.51,247.14,200.44,262.79,181.81,202.14Z" transform="translate(-47.35 -22.59)"/><path class="cls-4" d="M183.11,196.61a62.34,62.34,0,0,1,4-46.55c9.62-18.55,30.69-35.29,74.67,7.26,18.24,17.91,53.43,37.46,84.7,27.69,21.17-5.87,57.66-16.62,98.38,22.47-13-8.14-31.33-12.11-50.54-6.78a68.15,68.15,0,0,0-19.71,9.17A218.65,218.65,0,0,1,290.81,243S201.75,259.11,183.11,196.61Z" transform="translate(-47.35 -22.59)"/><path class="cls-5" d="M368,214a220.09,220.09,0,0,1-77.43,29s-89.07,16.12-107.7-46.38a64.54,64.54,0,0,1-2.52-13.42C202,244.23,288.25,236,288.25,236A228.62,228.62,0,0,0,368,214Z" transform="translate(-47.35 -22.59)"/><path class="cls-6" d="M263.84,178.2s-9.56-44.74-46.23-42.26-39.3,51.65-25.13,64.94,27.9,33,78.28,28C270.76,228.83,189.32,193.64,263.84,178.2Z" transform="translate(-47.35 -22.59)"/><path class="cls-7" d="M240.45,239.27a87,87,0,0,1,7.92-21.49c5.52-10,7.42-14.26,2.7-22.12s-23.64-21.21-23.64-21.21-22.73-16-27-32.45,4.76-24.43,8.22-28.74S220.23,99.61,244.79,91c0,0-34.71,20.37-33.73,42.74.12,4.65,1.9,12.45,5.13,16.49A28.75,28.75,0,0,1,220,123.12c4.41-5.55,12.52-10,16.74-12a72.19,72.19,0,0,0,8.11-4.63c5.37-3.56,13.08-9.23,15-13.62,3-6.92-1.13-10.78-6-14.73S243,67.05,241.29,60.33s.78-10.34,4.82-14.57c0,0-4.1,9.54,16.1,26.1,7,5.88,11.72,13.84,11.51,22-.18,6.73-2.91,14.1-9.86,20.33a30.14,30.14,0,0,1-7.68,4.93C245.42,124,241.09,129.62,240,133c-1.12,3.6-3.88,16.56,16.82,29a76.78,76.78,0,0,1,23.22,21.88,25,25,0,0,1-6.4,34.89l-.74.48a34.63,34.63,0,0,1-4.65,2.49C260.09,225.44,252.28,227.71,240.45,239.27Z" transform="translate(-47.35 -22.59)"/><path class="cls-8" d="M225.44,240.74a75.49,75.49,0,0,1,7.24-19.83c5.18-9.22,6.93-13.19,2.08-20.36s-23.82-19.23-23.82-19.23-22.77-14.43-27.39-29.52,4-22.51,7.34-26.5,11-12.68,35-20.87c0,0-33.63,19.11-32.08,39.66.23,4.27,2.2,11.42,5.48,15.09a24.84,24.84,0,0,1,3-25c4.19-5.15,12.06-9.31,16.16-11.25a69.77,69.77,0,0,0,7.86-4.34c5.2-3.33,12.64-8.62,14.4-12.68,2.77-6.4-1.39-9.89-6.32-13.47s-10.91-10-12.78-16.2.5-9.51,4.37-13.44c0,0-3.8,8.81,16.52,23.8,7.05,5.33,11.89,12.59,11.89,20.08,0,6.19-2.49,13-9.17,18.8a29.38,29.38,0,0,1-7.43,4.61c-10.46,4.61-14.58,9.83-15.52,12.91-1,3.32-3.39,15.26,17.3,26.5A75.44,75.44,0,0,1,263,189.4a21.85,21.85,0,0,1-5.39,32.13l-.72.46a34.93,34.93,0,0,1-4.51,2.33C244.41,227.81,236.78,230,225.44,240.74Z" transform="translate(-47.35 -22.59)"/><path class="cls-9" d="M224,240.58a73.89,73.89,0,0,0-4.5-19c-3.66-9-4.82-12.81,0-19s22.29-15.47,22.29-15.47,21-11.15,26.29-24.62-1.5-21.13-4-25.12-8.4-12.72-28.36-22.54c0,0,27.37,20.79,24.21,39.59-.59,3.91-2.92,10.31-6.08,13.39a24.34,24.34,0,0,0-.41-23.29c-3.17-5.14-9.6-9.72-13-11.89a60.69,60.69,0,0,1-6.41-4.75c-4.19-3.55-10.15-9.14-11.31-13-1.83-6.15,2.08-9,6.65-11.81s10.31-8.23,12.48-13.72.41-8.82-2.58-12.81c0,0,2.49,8.48-16.39,20.38-6.57,4.24-11.39,10.48-12.06,17.38-.55,5.71,1,12.21,6.26,18.19a25.66,25.66,0,0,0,6,5c8.62,5.24,11.72,10.44,12.26,13.36.58,3.16,1.58,14.39-17.3,22.79a65.61,65.61,0,0,0-22,16.08,21.16,21.16,0,0,0,1.8,30.13l.58.48a30.67,30.67,0,0,0,3.7,2.59C208.76,226.87,215.16,229.6,224,240.58Z" transform="translate(-47.35 -22.59)"/><path class="cls-10" d="M174.36,186.79s-6.87-13.57,4.31-27.77c0,0,1.65-2.46-1-1.75s-11.16,3.6-14.5,12.28c0,0-2.74,7.8,9.95,17.84C173.07,187.39,174.05,188.23,174.36,186.79Z" transform="translate(-47.35 -22.59)"/><path class="cls-10" d="M134,166.14c-32.62-11.92-31.39-30.64-29.77-37.29a3.13,3.13,0,0,1,3.11-2.39l4,.11C110.86,135.78,113.66,151.67,134,166.14Z" transform="translate(-47.35 -22.59)"/><path class="cls-11" d="M178.67,159c-11.18,14.2-4.31,27.77-4.31,27.77-.31,1.44-1.29.6-1.29.6-.55-.44-1.08-.87-1.58-1.3-4.87-6.58-8.62-20.56,6.12-28.82h0C180.32,156.56,178.67,159,178.67,159Z" transform="translate(-47.35 -22.59)"/><path class="cls-11" d="M161.22,167.4l-.63,3a2.45,2.45,0,0,1-2.8,1.91A142.48,142.48,0,0,1,134,166.14c-20.3-14.47-23.1-30.36-22.63-39.57l5.51.15a3.14,3.14,0,0,1,3,3.28c-1.36,30.25,29.39,34,39.09,34.43A2.44,2.44,0,0,1,161.22,167.4Z" transform="translate(-47.35 -22.59)"/><path class="cls-3" d="M256,184.13l.38-.58.45.09a.78.78,0,0,0,.64-.38c.18-.25.32-.38.43-.41s.25-.17.4-.42a1.23,1.23,0,0,1,.68-.52,1,1,0,0,0,.64-.51,1,1,0,0,1,.46-.48,3.32,3.32,0,0,0,.59-.35l2-1.16a.67.67,0,0,1,.24.16H263c.18,0,.35-.13.52-.39a.74.74,0,0,1,.61-.4,2,2,0,0,0,.87-.49l.13.25q.36-.75.6-.75h.13a2.32,2.32,0,0,1,.4.17,1.87,1.87,0,0,1,.91-.34l.51-.08a.29.29,0,0,1,.14.08.74.74,0,0,1,.49-.45h.24l.91-.42.27.17a.89.89,0,0,1,.82-.42h.22l.22.09a2.35,2.35,0,0,0,.41-.25,3.85,3.85,0,0,1,1.79-.25l.58.17a4.16,4.16,0,0,1,.6-.42l.62.25.24-.17h.09s.1.06.22.17h.05l1.6-.42a.54.54,0,0,1,.17.09c.12-.2.21-.29.27-.29l.42.2c.12,0,.33-.15.62-.45l.14.25,1.51-.33.55.08.49-.17a1.17,1.17,0,0,1,1.1.73,3.25,3.25,0,0,1,.36,1.47l.09,1.29-.13.7-.05.83a1.07,1.07,0,0,1-.33.66c0,.06-.06.12-.2.19a1.54,1.54,0,0,0-.4.35c-.13.17-.57.25-1.31.25-.37,0-.6-.21-.71-.64s-.21-.67-.33-.73l-1-.74q0-.09-.27-.09h-.18l-.91.17a1.21,1.21,0,0,1-.24-.08l-.31.25-1.64-.17-.67.08-.46-.16a.85.85,0,0,0-.32.12,3,3,0,0,1-.93.21.73.73,0,0,0-.71.83,3.19,3.19,0,0,0,.19,1,2.69,2.69,0,0,1,.19.87,4.5,4.5,0,0,0-.33,1.12,6,6,0,0,0-.31.54c-.15.28-.43.71-.82,1.31A6.17,6.17,0,0,0,270,187c-.14.49-.32.74-.53.74a5.65,5.65,0,0,0-.55,1.29l-.18.33a1,1,0,0,0,0,.37,1.05,1.05,0,0,1-.14.5l-.2,1a13.54,13.54,0,0,0-.91,2.16l-.26.25-.27.58h-.31c-.13,0-.2.17-.2.5l.09,1.2a4.65,4.65,0,0,0-.53,1.45l-.27.83a7.11,7.11,0,0,0-.47,1,13,13,0,0,1-.44,1.79l0,.41a16.41,16.41,0,0,1-1.56,4.06,11.35,11.35,0,0,0-.26,2.41c-.45,1.63-.75,2.42-.91,2.36a12.87,12.87,0,0,1-.28,2.57c-.16.67-.36,1.64-.6,2.93a11.69,11.69,0,0,1-.77,2.75l-.08.34a5.75,5.75,0,0,1-.23.66,35.83,35.83,0,0,1-.42,3.56l-.13,1.79-.45,2.32a2.14,2.14,0,0,0-.06.5,3.11,3.11,0,0,0,.14.64,3,3,0,0,1,.15.89,3.28,3.28,0,0,1-.11.93,3,3,0,0,0-.12.94,1.79,1.79,0,0,1-.73,1.7h-.18l-.46.08c-.62,0-1.19-.55-1.69-1.66a11.26,11.26,0,0,1-.75-4.56c0-.11,0-.53.13-1.26s.14-1.21.15-1.43a5.81,5.81,0,0,1,.11-.69,4.29,4.29,0,0,0,.09-1,10.15,10.15,0,0,1,.55-3.53c.36-1,.6-1.71.72-2.15a.62.62,0,0,1,.15-.38,4.79,4.79,0,0,1-.06-.83,3.19,3.19,0,0,1,.55-1.95,5.8,5.8,0,0,1,.16-.76c.07-.29.23-1,.46-2.12s.55-1.77.94-2a2,2,0,0,1,.26-.66l-.09-1.45a3.13,3.13,0,0,1,.4-1.12l.38-1.16a2.44,2.44,0,0,1,.58-1.29c.09-.27.18-.44.29-.49s.08-.46.19-1a11,11,0,0,1,.71-2.18c.36-.87.71-1.77,1-2.71s.64-1.43.91-1.46.43-.31.46-.87l.13-1.53a8.13,8.13,0,0,0,.78-1.45l.31-.66a1.79,1.79,0,0,1,.23-.77,3.43,3.43,0,0,0,.37-.77,4.29,4.29,0,0,1,.55-1,6.17,6.17,0,0,1,1.31-2.94l.36-.7a6.89,6.89,0,0,1,.62-1.35,2.66,2.66,0,0,0,.36-.93,1.6,1.6,0,0,1,.48-.88.83.83,0,0,0,.36-.66c0-.11-.06-.16-.18-.16a1.49,1.49,0,0,0-.6.24h-.18l-.4.17h-.13l-.38-.17a1.26,1.26,0,0,1-.62.25,2.62,2.62,0,0,1-.29.38h-.49l-.26.49-.2.09-.58-.17c-.18,0-.39.17-.64.5,0,0-.24.15-.73.29a3.53,3.53,0,0,0-1.36.77,2.59,2.59,0,0,1-.78.56l-.4-.17h0c-.19,0-.37.18-.53.54a1.09,1.09,0,0,1-.72.66h-.26a1.64,1.64,0,0,0-.9.5,4.93,4.93,0,0,1-.61.5l-.4-.09a2,2,0,0,1-.46.46,1.25,1.25,0,0,0-.36.39,1.44,1.44,0,0,1-.36.4,1.69,1.69,0,0,0-.41.45c-.16.23-.28.34-.37.34h-.09l-.26-.09c-.11,0-.24.18-.4.52a1.5,1.5,0,0,1-.46.64,1.51,1.51,0,0,0-.4.4.71.71,0,0,1-.39.31,5.8,5.8,0,0,0-.31.91,4.71,4.71,0,0,1-.51,1.22,4.34,4.34,0,0,0-.41.81c-.07.2-.13.29-.19.29-.73,0-1.09-.84-1.09-2.53l.44-1.78c.31-1.41.79-2.27,1.42-2.57.17,0,.59-.3,1.27-.91Z" transform="translate(-47.35 -22.59)"/><path class="cls-3" d="M285.47,220.83l.36-.58c.22,0,.35-.19.39-.56a1.31,1.31,0,0,1,.48-.89,3.08,3.08,0,0,0,.76-1.35c.24-.68.48-1,.73-1,.09,0,.2.14.31.42a1.73,1.73,0,0,1,.18.66,9.84,9.84,0,0,1-.44,2.82l-.09,1.16L288,222a1.65,1.65,0,0,0-.43.7,2.86,2.86,0,0,1-.52.92l-.22.58a1.44,1.44,0,0,0-.66,1c-.11.44-.26.69-.46.75s-.42.33-.66.83a2.75,2.75,0,0,1-.53.37l-.05.41a1.57,1.57,0,0,1-.7.67,3.22,3.22,0,0,0-.71.47c-.15.16-.26.23-.32.23a1.12,1.12,0,0,1-.77-.31,1.57,1.57,0,0,0-.74-.39,1.29,1.29,0,0,1-.15-.54,3,3,0,0,0-.22-.77,3.31,3.31,0,0,1-.2-1.3l.09-.79a1,1,0,0,0-.12-.42,1.09,1.09,0,0,1-.11-.41.55.55,0,0,1,.05-.25.57.57,0,0,0,0-.25,2.6,2.6,0,0,0,0-.46,2.38,2.38,0,0,1-.05-.41l.14-2c0-.17,0-.25-.09-.25s-.17.14-.32.41-.34.42-.55.42a2.75,2.75,0,0,0-.29,1,3.22,3.22,0,0,1-.44.74l-.09.25a.71.71,0,0,1-.33.48.91.91,0,0,0-.4.47l-.22.42-.43-.08a6.46,6.46,0,0,0-.24.72,3.38,3.38,0,0,1-.51,1.06l-1.69,2.57a10.32,10.32,0,0,1-.78.83l-.13.25c-1.18,1.46-2,2.2-2.51,2.2a2.4,2.4,0,0,1-1.4-.63,2,2,0,0,1-.86-1.49l-.23-1.7a5.3,5.3,0,0,1-.2-1.62A3,3,0,0,1,269,226v-.25l-.05-1.37c0-.33.14-.49.43-.49l-.05-1.12a8.36,8.36,0,0,1,.39-1.31,7.09,7.09,0,0,1,.52-1.31l.22-.54a1.87,1.87,0,0,1,.32-1.05,6.47,6.47,0,0,0,.53-1.14,4.43,4.43,0,0,1,.75-1.29l.67-1.24a9.1,9.1,0,0,1,1.69-2.32,3.69,3.69,0,0,0,.55-.83,3,3,0,0,1,.93-1.1,5.91,5.91,0,0,0,1-.89c.33-.36.6-.54.79-.54h.18a8.76,8.76,0,0,0,1.18-1h.13q.09,0,.42.33h.05l.35-.33a.35.35,0,0,1,.22-.08c.92,0,1.43,1.19,1.52,3.56,0,.5.1.75.22.75s.36-.5.63-1.51a1.75,1.75,0,0,1,1.75-1.52c.63,0,.95.76.95,2.28a10.61,10.61,0,0,1-1.29,5.1,5.07,5.07,0,0,0-.13.75l-.31,1.7v.08a1.8,1.8,0,0,1-.19.69,1.88,1.88,0,0,0-.19.76l.05,1-.09,1.16a2.33,2.33,0,0,0,.15,1,2,2,0,0,0,1-1.1,2.75,2.75,0,0,1,.46-.85l.22-.17A4.13,4.13,0,0,1,285.47,220.83Zm-7.37,0a2.3,2.3,0,0,1,.54-1.39,1.88,1.88,0,0,0,.55-1,18.92,18.92,0,0,0,1.21-2.07,6.82,6.82,0,0,0,.79-1.82c0-.09,0-.13-.09-.13h-.05l-.17.21-.4-.08-.43.08-.31-.29-.29.08-.44-.16a.8.8,0,0,0-.61.27,3.35,3.35,0,0,1-1,.6,3.37,3.37,0,0,0-1.3,1.14q-.57.81-.84.81a5.67,5.67,0,0,1-1,1.78,1.9,1.9,0,0,0-.69,1.45,4.1,4.1,0,0,0-.58,1l-.16.7a1.55,1.55,0,0,1-.44.48c-.18.12-.28.41-.31.87a3.53,3.53,0,0,1-.3,1.24,2.33,2.33,0,0,0-.26.89c0,1.36.14,2,.43,2a1.91,1.91,0,0,0,.74-.43,2.6,2.6,0,0,0,.65-.6,1,1,0,0,1,.36-.33l.42-.42a.45.45,0,0,1,.2-.21c.08,0,.15-.11.22-.27a2,2,0,0,1,.4-.49,1.71,1.71,0,0,0,.45-.73l1.22-1.28.47-.67a2.14,2.14,0,0,0,.6-.7A1.42,1.42,0,0,1,278.1,220.83Z" transform="translate(-47.35 -22.59)"/><path class="cls-3" d="M294.53,194.08l.31-.16.22-.42h.05l.2.17h0a1.35,1.35,0,0,0,.95-.39,4.21,4.21,0,0,1,.69-.56,1.5,1.5,0,0,0,.35-.25c.05-.06.08-.09.11-.09l.36.09c.12,0,.28-.4.48-1.18a5.56,5.56,0,0,1,.68-1.73,6.67,6.67,0,0,0,.75-2,4.15,4.15,0,0,0,.2-.64c.08-.29.13-.44.18-.44.22,0,.4-.26.53-.78.44-1,.81-1.45,1.09-1.45s.63.66.77,2l.23,1.57s0,.23-.11.6a4.76,4.76,0,0,0-.1,1.12,4.42,4.42,0,0,1,0,.75,2.72,2.72,0,0,0,0,.43c0,.23.13.34.38.34.09,0,.25-.11.49-.34l.13-.08c.15.17.27.25.38.25a5,5,0,0,0,.63-.41,3.83,3.83,0,0,1,.74-.46,2.16,2.16,0,0,0,.54-.33H306l.18.12c.06,0,.18-.12.37-.35a1.52,1.52,0,0,1,1.05-.44l.31-.24H308c.49,0,.73.4.73,1.2a3.37,3.37,0,0,1-.21.87,9.13,9.13,0,0,0-.34,1.41l-1,2.4c-.34.83-.68,1.25-1,1.25a3.86,3.86,0,0,1-.56-1.12.08.08,0,0,0-.09-.09.82.82,0,0,0-.46.17.84.84,0,0,1-.4.17,9.26,9.26,0,0,0-1.18.62l-.53.16a1.61,1.61,0,0,0-.43.17l-1.13.41a4,4,0,0,0-.91,2,1,1,0,0,1-.22.37l-1,3.4a1.41,1.41,0,0,0-.65,1.08l-.09.25a.85.85,0,0,0-.44.51,4.17,4.17,0,0,1-.38.69l-.4,1.12c-.16.39-.33.81-.49,1.26a7.49,7.49,0,0,0-.35,1.45,5.47,5.47,0,0,1-.18.9.94.94,0,0,0-.07.45l-.07.33a2.43,2.43,0,0,0-.26,1.12l.09.67c-.21,1.32-.32,2-.32,2.11s0,.21.05.46v.25a9.4,9.4,0,0,1-.36,2.28l.05.66-.14,1.86a12.54,12.54,0,0,0,.14,1.37.63.63,0,0,0-.09.25,6.08,6.08,0,0,0,.65,2.55,10.66,10.66,0,0,1,.66,4.33,4.94,4.94,0,0,1-.07.73c0,.32-.07.66-.08,1a2.33,2.33,0,0,1-.35,1.1c-.21.36-.4.53-.54.53-.79,0-1.38-1.06-1.76-3.19a30.4,30.4,0,0,1-.58-4.1l.05-1.62-.14-.83.14-3.65-.09-.87.51-3.56v-1.29a3,3,0,0,1,.31-.66.08.08,0,0,0-.09-.09c-.09,0-.21.17-.36.5a5.16,5.16,0,0,1-.55,1l-.18.58a.5.5,0,0,0-.18-.17,11.77,11.77,0,0,0-.73,1.95c-.31.08-.56.41-.74,1s-.42.87-.73.87l-.09.09c-.06.8-.27,1.2-.62,1.2l-.09.08c-.22.94-.45,1.4-.69,1.37a2.21,2.21,0,0,1-1.09,1.7,1.66,1.66,0,0,1-.39.75,2.23,2.23,0,0,0-.37.45c-.07.14-.14.21-.2.21s-.29-.39-.29-1.16a2.11,2.11,0,0,1,.15-.73,1.7,1.7,0,0,0,.14-.56,1.79,1.79,0,0,0-.22-.49,2.38,2.38,0,0,1,.36-1.62,2.11,2.11,0,0,0,.53-.95A1,1,0,0,1,288,217a.61.61,0,0,0,.34-.54,3,3,0,0,1,.58-1.16,9.69,9.69,0,0,0,.84-1.51c.18-.43.33-.64.45-.64l.08-.17c0-.69.17-1,.43-1l.22-.25,0-.33.14-.16h.17l.12-.17a2.67,2.67,0,0,1,.52-1.62,20.4,20.4,0,0,0,1.74-3.25,22.15,22.15,0,0,0,1.43-3.42,19.67,19.67,0,0,1,.56-2,8.74,8.74,0,0,0,.46-2.39A1.56,1.56,0,0,0,296,198l-1,.87c0-.08-.15-.21-.44-.37a2.47,2.47,0,0,0-.49.75c-.11.24-.19.37-.25.37l-.31-.08-1,.2a3.09,3.09,0,0,0-2,1l-.91.5h-.2c-.12,0-.3.13-.53.41l-.51-.08c-.48.47-.83.7-1.05.7a.88.88,0,0,1-.26-.08l-2.27,1.16a7.64,7.64,0,0,0-1.2,1.7l-.17.08c-.15,0-.33-.31-.53-.93a5.53,5.53,0,0,1-.3-1.68c0-2.74,1.26-4.32,3.78-4.77l.91-.66h0l.25.17h.09c.08,0,.23-.11.42-.32a4.52,4.52,0,0,1,1.29-.76l.91-.46.28.08a.73.73,0,0,0,.5-.33A1.56,1.56,0,0,1,292,195a2.34,2.34,0,0,0,.79-.32l.35-.16c.06,0,.18-.1.37-.29a1,1,0,0,1,.72-.29A1,1,0,0,1,294.53,194.08Z" transform="translate(-47.35 -22.59)"/><path class="cls-3" d="M303.68,214.65l.46-.71c.36-.05.55-.4.58-1a2.46,2.46,0,0,1,.73-1.66l.27-.71a5.84,5.84,0,0,1,1.82-1.61,2.76,2.76,0,0,0,.51-.75c0-.05.06-.08.09-.08l.35.16a1.49,1.49,0,0,0,.75-.29,1.64,1.64,0,0,1,.87-.29l.93-.08c.06,0,.18.08.37.25a1,1,0,0,0,.68.25c.32,0,.62.27.9.83a3.51,3.51,0,0,1,.41,1.53,5.52,5.52,0,0,1-.71,2.61c-.48.89-.85,1.39-1.13,1.5a4.17,4.17,0,0,1-.58.89,2.29,2.29,0,0,0-.41.58c-.14.26-.25.39-.34.39a.15.15,0,0,1-.14-.1c0-.07-.07-.11-.13-.11-.24,0-.49.54-.77,1.62l-.4-.08a2.25,2.25,0,0,0-.49,1c-.08.36-.23.54-.47.54-.54,1-.91,1.54-1.1,1.54a1.4,1.4,0,0,1-.32-.17,2.36,2.36,0,0,0-.17.87c0,.33-.12.53-.36.58l-.28.5-.23-.08-.44.87a1,1,0,0,0-.69.41c0,.33-.07.76-.13,1.27s-.09.79-.09.85a1.05,1.05,0,0,0,1.18,1.2l1.06-.29a1,1,0,0,0,.79-.42,1.08,1.08,0,0,1,.79-.41.92.92,0,0,0,.4-.17l.22.17a2.86,2.86,0,0,1,.58-1.12c.28-.33.5-.5.67-.5l.22-.25a1.29,1.29,0,0,1,.26-.66l.18-.29c.12-.22.23-.33.34-.33H311l.08-.08c.18-.72.43-1.14.75-1.27a.9.9,0,0,0,.6-.6.64.64,0,0,1,.43-.5c.21,0,.38-.24.52-.56a5.3,5.3,0,0,1,.52-.89,6.07,6.07,0,0,0,.44-.62q.12-.21.21-.21c.09,0,.13.13.13.38s0,.37.09.37.09-.06.09-.17a3.73,3.73,0,0,0,0-.41V218a.87.87,0,0,1,.35-.83l1-1.2c0-.58.11-.92.26-1a1.24,1.24,0,0,0,.32-.33c.07-.13.15-.19.24-.19s.29.21.29.62l-.11,1.08.11,1.12a1.73,1.73,0,0,1-.21.69,4.36,4.36,0,0,0-.32,1.32c-.08.6-.17.92-.29,1h-.14a2.59,2.59,0,0,1-.63.93,1,1,0,0,0-.37.52l-.75,1.62c-.15.27-.27.52-.38.74s-.18.33-.24.33l-.18-.33c0-.05,0-.08-.09-.08s-.24.16-.28.5a2.53,2.53,0,0,1-.23.87,3,3,0,0,0-.87,1.07l-.13.09h-.4c-.19,0-.33.27-.4.81s-.29.85-.63.93a1.12,1.12,0,0,0-.75.5.43.43,0,0,1-.2.16,3.59,3.59,0,0,0-.62.67l-1.87,1.24c-.15.14-.24.21-.29.21l-.62.16c-.09,0-.18-.11-.26-.33s-.15-.33-.18-.33l-.4.25a1.82,1.82,0,0,1-.85.25.76.76,0,0,1-.49-.29,3.26,3.26,0,0,0-.42-.42c-.43,0-.73-.62-.91-1.86l-.27.08a22.37,22.37,0,0,1-.59-2.94.85.85,0,0,0-.43-.48c-.19-.1-.29-.37-.29-.81a4.93,4.93,0,0,1,.44-2.51,2.63,2.63,0,0,0,.47-1l.32-2.16a3.57,3.57,0,0,0,.22-.83l.51-1.74C303.34,215.91,303.47,215.42,303.68,214.65Zm4.69-2.49-.26.25a7.55,7.55,0,0,0-.53.73,6.29,6.29,0,0,1-.84,1,5.21,5.21,0,0,0-.84,2.05,15.83,15.83,0,0,0-.44,1.91c0,.17.05.25.14.25l.75-.62a4.48,4.48,0,0,0,.79-.95,14,14,0,0,1,1.05-1.41l.18-.34a2.28,2.28,0,0,1,.41-.6,3.3,3.3,0,0,0,.55-.85l.22-.16a2.66,2.66,0,0,1,.77-1.37c.25-.17.38-.33.38-.5,0-.33-.14-.5-.42-.5-.12,0-.29.14-.53.42h-.51c-.06,0-.22.16-.49.5Z" transform="translate(-47.35 -22.59)"/><path class="cls-3" d="M321.85,209.3l.17-1a3.46,3.46,0,0,1,.47-1.7,9.28,9.28,0,0,1,.34-1.92,22.07,22.07,0,0,0,.49-2.22,4.59,4.59,0,0,1,.79-1.95,10.92,10.92,0,0,0,.18-1.29.75.75,0,0,1,.38-.33,12,12,0,0,0,.26-1.28l.83-2.74c.05-.19.17-.66.35-1.41l1.2-2.16a1.67,1.67,0,0,1,.36-1.24,1.73,1.73,0,0,0,.43-1.1,3.45,3.45,0,0,1,.47-1.43,10.87,10.87,0,0,0,.65-1.33.45.45,0,0,0,.27-.41l.24-.66c.16-.47.3-.71.4-.71h.18a3.85,3.85,0,0,1,.68-1.59,11.32,11.32,0,0,0,.84-1.54,2.36,2.36,0,0,1,.57-.85l.17-.41c.11,0,.38-.27.84-1s.78-1,1-1l.42.08.49-.33c.47,0,.85.51,1.13,1.53,0,0,.11-.1.25-.29l.53-.5a7.28,7.28,0,0,0,.45-.76,4,4,0,0,1,1.23-1.1l.4-.5q.3-.33.51-.33l1.31-.29a2.83,2.83,0,0,1,2.57,1.74,12.09,12.09,0,0,1,1.07,2.36.54.54,0,0,0,0,.25l-.13,1.2a3.31,3.31,0,0,0,.49.75l.06.41a.35.35,0,0,1-.16.34c-.11,0-.17.12-.17.2a.89.89,0,0,0,.11.38,1.06,1.06,0,0,1,.11.54l-.09,1.9a16.74,16.74,0,0,1-.24,2.08c-.16,1-.24,1.56-.24,1.61l.17,1.29a1.65,1.65,0,0,1-.35.74,54.24,54.24,0,0,1-1.2,6.72v.33l-.27,1.21c-.18.83-.38,1.31-.6,1.45,0,.05-.1.9-.31,2.55s-.5,2.55-.87,2.71a3.19,3.19,0,0,0-.35,1.18,10.35,10.35,0,0,1-.51,1.89l-.23.75a3.48,3.48,0,0,1-.34,1,8.48,8.48,0,0,0-.54,1.81c-.15.77-.38,1.23-.67,1.37,0,.08,0,.3-.08.66a3.1,3.1,0,0,1-.23.91,3,3,0,0,0-.25.85,1.38,1.38,0,0,1-.57.89,6.67,6.67,0,0,1-.38,1.25,5.5,5.5,0,0,0-.35,1,1.33,1.33,0,0,1-.8,1l-.16.16v.42l-.13.54a2.48,2.48,0,0,0-.36,1,8.45,8.45,0,0,1-1.59,2.66c-.24,1.13-.54,1.78-.91,1.94a1.64,1.64,0,0,0-.23.75l.69,2.41.36.41a3,3,0,0,1,.51,1.29,1.07,1.07,0,0,1,.31.41v.66a1.82,1.82,0,0,0,.77.34l.54-.17c.16,0,.31.12.46.37l.13.09h.4c.26,0,.53.28.81.85a3.38,3.38,0,0,1,.44,1.51,1.94,1.94,0,0,1-.19,1.08,1.43,1.43,0,0,0-.32.62c-.09.27-.4.41-.91.41-.06,0-.18.09-.36.25a3.06,3.06,0,0,0-.63-.16,3.05,3.05,0,0,1-1.23-.81,3.5,3.5,0,0,1-.89-1.06A3.93,3.93,0,0,0,333,236a4.72,4.72,0,0,1-.46-1.28,5.37,5.37,0,0,0-.33-1.1,3.35,3.35,0,0,1-.26-.89,4.94,4.94,0,0,0-.34-1.14s-.05-.06-.05-.17l.05-.83a3.6,3.6,0,0,0-.1-.41c-.07-.25-.12-.38-.17-.38-.28.81-.63,1.18-1,1.12a4.07,4.07,0,0,0-.43.69,7.4,7.4,0,0,1-1.57,1.59l-.46-.08c-.15.28-.3.42-.44.42h-.05l-.29-.09c-.23.42-.43.63-.57.63l-.78-.29-.42.29L325,234l-.31.09a.55.55,0,0,0-.43-.25.5.5,0,0,1-.41-.25,2.82,2.82,0,0,0-.34-.46,2.09,2.09,0,0,1-.42-.68,2.11,2.11,0,0,0-.69-.85,3.18,3.18,0,0,1-.79-1.87l-.82-4.48a13.53,13.53,0,0,1-.25-2.65,7.48,7.48,0,0,1,.2-1l-.09-.71.05-2.2-.09-1c.24-.83.36-1.27.36-1.33l-.09-1.28a13.26,13.26,0,0,1,.26-1.79,12.61,12.61,0,0,0,.27-1.7,3.61,3.61,0,0,1,.17-1.41A3.42,3.42,0,0,0,321.85,209.3Zm11.53,7.46.31-.87.29-.25a2.24,2.24,0,0,0,.3-.74,7.69,7.69,0,0,1,.88-1.7c0-.11.09-.4.18-.85a1.45,1.45,0,0,1,.46-.93,3.57,3.57,0,0,1,.57-2.1,4.12,4.12,0,0,0,.71-1.59,17.52,17.52,0,0,1,.59-2.2,25.05,25.05,0,0,1,1.1-2.7,3.62,3.62,0,0,0,.26-1.37,3.41,3.41,0,0,1,.26-1.34,2.56,2.56,0,0,0,.3-.85c.08-.39.16-.77.25-1.14a7.6,7.6,0,0,0,.18-1.08,1.79,1.79,0,0,1,.35-.93,2.44,2.44,0,0,0,.23-.71,2.21,2.21,0,0,1,.55-1.08l-.13-.58a5.85,5.85,0,0,1,.36-2.42,3.22,3.22,0,0,0,.37-.89v-.25l-.09-.54v-.09a.48.48,0,0,0,0-.24v-.5l.64-5.6a7.24,7.24,0,0,0-.08-1.7,3.39,3.39,0,0,0-.43-1.37l-.27-.49c-.06-.17-.47-.28-1.24-.34l-1.48,1-2.69,3.48a5.35,5.35,0,0,0-.61,1.22,4.34,4.34,0,0,1-.73,1.33,2.55,2.55,0,0,0-.56,1.1.52.52,0,0,1-.34.12c-.17,0-.31.53-.4,1.5l-.26,1a1,1,0,0,0-.39.69,3.83,3.83,0,0,1-.17.83,5.33,5.33,0,0,0-.17.85l-.14.49a12.88,12.88,0,0,0-.17,2.24,9.1,9.1,0,0,1,.4,2.28,7.91,7.91,0,0,1-.37,1.72c-.24.85-.53,1.27-.85,1.27q-1.23,0-1.23-2.82a11.43,11.43,0,0,1,.54-3l0-.66a2.93,2.93,0,0,1,.32-.81,5.24,5.24,0,0,0,.44-1.14,4.78,4.78,0,0,1,.26-.85,5,5,0,0,0,.26-1.37,6.71,6.71,0,0,1,1-2.55,5.85,5.85,0,0,1,.53-2l.22-.74a8.68,8.68,0,0,1,1-1.45l.19-.54h-.24c-.12,0-.27.09-.44.29l-.22.08-.29.41a1.84,1.84,0,0,1-.76.67l-.15.16a1.52,1.52,0,0,1-.32.73,2.89,2.89,0,0,0-.48.93,8.57,8.57,0,0,1-.6,1.33l-.47,1.37c-.23,0-.47.43-.7,1.37a11,11,0,0,1-.54,1.8,3.1,3.1,0,0,0-.27,1,1.49,1.49,0,0,1-.24.79,1.88,1.88,0,0,1-.43,1.12,2.71,2.71,0,0,0-.17.75l-.43,1.16a1.68,1.68,0,0,1-.31,1,2.08,2.08,0,0,0-.31.54l.13.71a6,6,0,0,1-.54,1.59,10.22,10.22,0,0,0-.72,2.47l-.09.41a1.62,1.62,0,0,0-.38,1.12c0,.23,0,.71-.09,1.45a3.21,3.21,0,0,0-.52,1.1,4.94,4.94,0,0,0-.31,1.72,6.37,6.37,0,0,1-.33,1.89,19.34,19.34,0,0,0-.57,3c-.09,0-.15,0-.18.08l.13.91a13.44,13.44,0,0,0-.51,2.2l.2,1.12a1.54,1.54,0,0,0-.22.7l0,.67-.09,1.12.05,1a2.22,2.22,0,0,1-.05.54l-.11.83.11,1.29a9.06,9.06,0,0,1-.11,1.16c0,.11.1.29.2.54a10.27,10.27,0,0,0,.62,4.31,5,5,0,0,1,.2.62l.45.08a.31.31,0,0,0,.24-.14.54.54,0,0,1,.3-.19.47.47,0,0,0,.32-.29,1.48,1.48,0,0,0,.75-.66,1,1,0,0,1,.66-.54q.38,0,1-1.41l.29-.33,1.09-1.7.15-.13a.38.38,0,0,0,.16-.33,10.65,10.65,0,0,1-.74-2.13c-.14-.65-.3-1-.48-1s-.14.08-.25.25q-.42.66-.75.66c-.84,0-1.27-.36-1.27-1.07,0-1.5.57-2.24,1.71-2.24.28,0,.73.31,1.34,1a9.08,9.08,0,0,0,.48,1l.69,1.53c.06.11.11.16.14.16.19,0,.57-.66,1.15-2a15.3,15.3,0,0,0,1.07-3.11A5.28,5.28,0,0,1,333.38,216.76Z" transform="translate(-47.35 -22.59)"/><path class="cls-3" d="M342,214.73l.31.25a2.1,2.1,0,0,1,.43-1.2H343c.15,0,.35-.37.58-1.12l.38-.42a.37.37,0,0,0,.27.09c.09,0,.18-.11.26-.33a13.66,13.66,0,0,1,.61-1.29h.09c.09,0,.2-.12.32-.37A.59.59,0,0,1,346,210l.75-.37a2.14,2.14,0,0,1,.4-.16c.14-.09.46.42,1,1.51a7.35,7.35,0,0,1,.78,3.17c0,.58-.17.93-.49,1l-.11.16v.83l-.38,1.54a1.39,1.39,0,0,1-.38.78c-.13.45-.23.75-.29.92l-.31.08-.13.25v1a18.71,18.71,0,0,0-.58,2.18,13.31,13.31,0,0,0-.37,2.14c0,.52.05.78.17.78s.18-.06.27-.2a3.92,3.92,0,0,1,.37-.48,2,2,0,0,0,.34-.56,1.09,1.09,0,0,1,.47-.52,2.12,2.12,0,0,0,.66-.85c.21-.41.36-.69.45-.83a4.81,4.81,0,0,0,.28-.56c.11-.23.17-.35.2-.35a1,1,0,0,0,.43-.16,4.88,4.88,0,0,1,.08-.67l.54-.5,1.28-2.15.18-.42a1.57,1.57,0,0,0,.44-.25,3.35,3.35,0,0,1,.6-1.61c0-.11.08-.2.23-.25a3.07,3.07,0,0,1,.45-1.06,3.35,3.35,0,0,0,.45-1l.52-.79a.94.94,0,0,0,.31-.5A17.21,17.21,0,0,1,356,210a1.29,1.29,0,0,1,.9-.26c.41,0,.75.29,1,.89a4.24,4.24,0,0,0,.84,1.34,2.54,2.54,0,0,1,.45,1.75,20.28,20.28,0,0,1-1,4.6c-.42,2.38-.65,3.83-.66,4.37s-.08.85-.2.94a.35.35,0,0,0-.18.29v.16c0,.66.06,1,.18,1s.21-.14.37-.42a3,3,0,0,1,.94-.91l.2.08a6.67,6.67,0,0,1,.86-2,1.51,1.51,0,0,0,.44-.74c.15-.4.33-.62.54-.65a.48.48,0,0,0,.41-.2A4.29,4.29,0,0,1,362,218c.56-.83.89-1.25,1-1.25s.27.21.36.63a3,3,0,0,0,.27.85.74.74,0,0,1,.15.39v.75a.74.74,0,0,1-.29.7,2.78,2.78,0,0,1-.4,1.08l-.4-.08c-.07.16-.14.31-.19.45s-.08.2-.1.17-.33.42-.63,1.1-.57,1.23-.81,1.68l-.09.24a1.07,1.07,0,0,1-.33.34l-.4.62c-.15-.17-.23-.25-.26-.25s-.1.11-.19.33a3.88,3.88,0,0,1-.58.85,3.67,3.67,0,0,0-.65,1.18l-.36.67-.46.12s-.12.13-.22.37l-.4,1a1,1,0,0,1-.91.7c-.09,0-.2-.14-.34-.43s-.28-.54-.4-.75-.41-.83-.85-1.87-.65-1.58-.65-1.63l.13-1.45,0-1a3.06,3.06,0,0,1,.21-.89c.14-.4.21-.62.21-.64l0-1.62a1.37,1.37,0,0,0,.09-.25l.31-1a8.46,8.46,0,0,1-.05-.91l.09-1.37a2.78,2.78,0,0,0-.7,1.34c-.2.68-.46,1-.79,1-.28.94-.49,1.4-.64,1.37a1.51,1.51,0,0,0-.13.33l-.32.33-.37-.08-.14,1a2.72,2.72,0,0,0-.63.89,3.69,3.69,0,0,1-.45.81l-.38.66h-.36a3.28,3.28,0,0,1-.69,1.86l-.17.42-.4-.08a3.12,3.12,0,0,1-.56,1.61c-.25,0-.59.43-1,1.29s-.74,1.28-.92,1.28c-1.29,0-2.33-1.5-3.13-4.52,0-.11-.1-.31-.21-.62a4.12,4.12,0,0,1-.17-1.41,7,7,0,0,1,.23-2.19,16.12,16.12,0,0,0,.6-2.18c.25-1.06.43-1.53.55-1.39a2.85,2.85,0,0,0,0-.5,3.18,3.18,0,0,0,.36-1.2c0-.11,0-.17-.09-.17s-.12.09-.27.25l-.31.25a.53.53,0,0,0-.29.33,1.3,1.3,0,0,1-.32.48l-.35.39h-.07q-.14-.24-.18-.24a3.91,3.91,0,0,1-.22.82l-.27.09c-.33.63-.53,1-.62,1s-.2-.1-.4-.29a.82.82,0,0,1-.32-.58l.16-1.62v-.74a.76.76,0,0,1,.18-.33,4.06,4.06,0,0,0,.35-.9C341.51,215,341.76,214.73,342,214.73Z" transform="translate(-47.35 -22.59)"/><path class="cls-3" d="M362.5,217.18l.36-.58H363c.11,0,.26-.21.47-.62l.22-.17a3.28,3.28,0,0,1,.78-1.45l.36-.5a.86.86,0,0,1,.25-.29,3.06,3.06,0,0,0,.54-.81c.24-.45.44-.68.58-.68a.74.74,0,0,1,.36.08,2.67,2.67,0,0,1,.53-1,3.73,3.73,0,0,0,.65-1.14l.29-.25a3.36,3.36,0,0,0,.63-.85.83.83,0,0,1,.72-.52c.43,0,.88.41,1.35,1.22a4.82,4.82,0,0,1,.7,2.35l-.38,3.23c-.25,2.38-.53,3.62-.84,3.73l-.09.87a1.24,1.24,0,0,0-.31.67l.13,1a1.33,1.33,0,0,1-.25.62s0,.09,0,.25v1.7a1,1,0,0,1-.31.75.61.61,0,0,0,.13.16.64.64,0,0,1,.6-.25l.36.09.48-.91a2,2,0,0,0,.44-.4,6.35,6.35,0,0,1,.94-.81l2.9-4.14c.4-.75.71-1.12.91-1.12s.34.26.34.79a5.34,5.34,0,0,1-.19,1.51,12.43,12.43,0,0,0-.35,1.45,3.5,3.5,0,0,1-.36,1.18,3.29,3.29,0,0,0-.35.73,4.66,4.66,0,0,1-.72,1.14,10.66,10.66,0,0,0-1,1.51,8.2,8.2,0,0,1-.67,1.1l-1,1.28-.13.42a1.92,1.92,0,0,1-.41.35,2.72,2.72,0,0,0-.66.69l-.4.41a.65.65,0,0,1-.43.21c-.2,0-.37.18-.52.47s-.27.44-.36.44l-.33-.08-.44.25c-.26,0-.56-.29-.93-.85a3.33,3.33,0,0,1-.54-1.81v-.25l.05-.58a7,7,0,0,0-.14-.85c-.09-.45-.13-.71-.13-.76l0-.58,0-.25a6.38,6.38,0,0,1,.09-1.41,4.28,4.28,0,0,0,.13-.81c0-.35.06-.63.09-.85l.11-1a1.59,1.59,0,0,1,.22-.66c0-.22.09-.6.18-1.12l.09-.75.22-.58a2.12,2.12,0,0,0,.21-.89,4.42,4.42,0,0,1,.24-1.18,3.93,3.93,0,0,0,.19-.75c0-.33-.08-.49-.26-.49s-.25.22-.56.66l-.4-.25s-.11.14-.24.41a.26.26,0,0,1-.2.25c-.13.06-.26.27-.38.63l-.18.08-.28-.25h-.09c-.15,0-.24.3-.27.91a1.53,1.53,0,0,1-.64.87l-.49.25a1.14,1.14,0,0,0-.36.75,2.64,2.64,0,0,1-.44,1.05q-.33.48-.45.48c-.41,0-.62-.43-.62-1.28l.18-1.95Zm9.6-20.73-.14-1.62v-.25c0-1.3.24-2,.71-2.15a6.17,6.17,0,0,0,.94-.54c.26.11.54.54.83,1.3a5.73,5.73,0,0,1,.43,2,2.57,2.57,0,0,1-.06.38,5.62,5.62,0,0,0-.09,1.1,2.61,2.61,0,0,1-.44,1.41,1.11,1.11,0,0,1-.87.6c-.21,0-.47-.27-.79-.81A3.39,3.39,0,0,1,372.1,196.45Z" transform="translate(-47.35 -22.59)"/><path class="cls-3" d="M379.3,214.65l.47-.71c.35-.05.54-.4.57-1a2.51,2.51,0,0,1,.73-1.66l.27-.71a5.84,5.84,0,0,1,1.82-1.61,2.76,2.76,0,0,0,.51-.75c0-.05.06-.08.09-.08l.35.16a1.46,1.46,0,0,0,.75-.29,1.64,1.64,0,0,1,.87-.29l.94-.08a.87.87,0,0,1,.36.25,1,1,0,0,0,.68.25c.32,0,.62.27.9.83a3.51,3.51,0,0,1,.41,1.53,5.52,5.52,0,0,1-.71,2.61c-.47.89-.85,1.39-1.13,1.5a4.17,4.17,0,0,1-.58.89,2.29,2.29,0,0,0-.41.58c-.14.26-.25.39-.34.39a.13.13,0,0,1-.13-.1.16.16,0,0,0-.14-.11c-.23,0-.49.54-.77,1.62l-.4-.08a2.25,2.25,0,0,0-.49,1c-.07.36-.23.54-.46.54-.55,1-.92,1.54-1.11,1.54a1.24,1.24,0,0,1-.31-.17,2.19,2.19,0,0,0-.18.87c0,.33-.12.53-.36.58l-.28.5-.22-.08-.45.87a1,1,0,0,0-.68.41c0,.33-.08.76-.14,1.27s-.09.79-.09.85a1.05,1.05,0,0,0,1.18,1.2l1.07-.29a1,1,0,0,0,.78-.42,1.08,1.08,0,0,1,.79-.41.92.92,0,0,0,.4-.17l.22.17a2.86,2.86,0,0,1,.58-1.12c.28-.33.5-.5.67-.5l.22-.25a1.2,1.2,0,0,1,.27-.66l.17-.29c.12-.22.23-.33.34-.33h.31l.09-.08c.17-.72.42-1.14.74-1.27a.9.9,0,0,0,.6-.6.66.66,0,0,1,.43-.5c.21,0,.38-.24.52-.56a5.36,5.36,0,0,1,.53-.89,7.51,7.51,0,0,0,.43-.62q.12-.21.21-.21c.09,0,.13.13.13.38s0,.37.09.37.09-.06.09-.17a2.25,2.25,0,0,0,0-.41V218a.89.89,0,0,1,.35-.83l1-1.2c0-.58.12-.92.26-1a1.24,1.24,0,0,0,.32-.33c.07-.13.15-.19.24-.19s.29.21.29.62l-.11,1.08.11,1.12a1.73,1.73,0,0,1-.21.69,4.36,4.36,0,0,0-.32,1.32c-.08.6-.17.92-.29,1H392a2.7,2.7,0,0,1-.64.93,1,1,0,0,0-.36.52l-.76,1.62c-.15.27-.27.52-.38.74s-.18.33-.24.33l-.18-.33c0-.05,0-.08-.09-.08s-.24.16-.28.5a2.53,2.53,0,0,1-.23.87,3.14,3.14,0,0,0-.87,1.07l-.13.09h-.4c-.19,0-.32.27-.4.81s-.28.85-.63.93a1.12,1.12,0,0,0-.75.5.43.43,0,0,1-.2.16,3.59,3.59,0,0,0-.62.67L383,230.82c-.15.14-.25.21-.29.21l-.63.16c-.08,0-.17-.11-.26-.33s-.15-.33-.18-.33l-.4.25a1.82,1.82,0,0,1-.84.25.72.72,0,0,1-.49-.29,4,4,0,0,0-.43-.42c-.43,0-.73-.62-.91-1.86l-.26.08a19.33,19.33,0,0,1-.6-2.94.87.87,0,0,0-.42-.48c-.2-.1-.29-.37-.29-.81a5,5,0,0,1,.43-2.51,2.7,2.7,0,0,0,.48-1l.31-2.16a3.09,3.09,0,0,0,.22-.83l.51-1.74C379,215.91,379.09,215.42,379.3,214.65Zm4.69-2.49-.26.25a6.58,6.58,0,0,0-.52.73,6.3,6.3,0,0,1-.85,1,5.21,5.21,0,0,0-.84,2.05,14.75,14.75,0,0,0-.43,1.91c0,.17,0,.25.13.25l.75-.62a4.48,4.48,0,0,0,.79-.95,14.31,14.31,0,0,1,1.06-1.41l.17-.34a2.28,2.28,0,0,1,.41-.6,3.3,3.3,0,0,0,.55-.85l.22-.16a2.66,2.66,0,0,1,.77-1.37c.26-.17.39-.33.39-.5,0-.33-.15-.5-.43-.5-.11,0-.29.14-.53.42h-.51c-.06,0-.22.16-.49.5Z" transform="translate(-47.35 -22.59)"/><path class="cls-3" d="M397.44,194.08l.31-.16.22-.42h0l.2.17h0a1.35,1.35,0,0,0,.95-.39,3.83,3.83,0,0,1,.69-.56,1.5,1.5,0,0,0,.35-.25c.05-.06.08-.09.11-.09l.36.09c.12,0,.28-.4.48-1.18a5.32,5.32,0,0,1,.68-1.73,6.67,6.67,0,0,0,.75-2,4.15,4.15,0,0,0,.2-.64c.07-.29.13-.44.18-.44.22,0,.4-.26.53-.78.44-1,.81-1.45,1.09-1.45s.63.66.77,2l.23,1.57s0,.23-.12.6a6.14,6.14,0,0,0-.1,1.12,4.81,4.81,0,0,1,0,.75,2.72,2.72,0,0,0,0,.43c0,.23.12.34.38.34.09,0,.25-.11.49-.34l.13-.08c.15.17.27.25.38.25a5,5,0,0,0,.63-.41,3.83,3.83,0,0,1,.74-.46,2.16,2.16,0,0,0,.54-.33h.26l.18.12c.06,0,.18-.12.37-.35a1.52,1.52,0,0,1,1.05-.44l.31-.24h.09c.49,0,.73.4.73,1.2a3.37,3.37,0,0,1-.21.87,9.13,9.13,0,0,0-.34,1.41l-1,2.4c-.34.83-.69,1.25-1,1.25a4.39,4.39,0,0,1-.55-1.12.08.08,0,0,0-.09-.09.87.87,0,0,0-.47.17.77.77,0,0,1-.4.17,10.62,10.62,0,0,0-1.17.62l-.53.16a1.61,1.61,0,0,0-.43.17l-1.13.41a4,4,0,0,0-.91,2,1,1,0,0,1-.22.37l-1,3.4a1.41,1.41,0,0,0-.65,1.08l-.09.25a.85.85,0,0,0-.44.51,5.07,5.07,0,0,1-.38.69l-.4,1.12c-.16.39-.33.81-.49,1.26a8.31,8.31,0,0,0-.36,1.45,4.89,4.89,0,0,1-.17.9.94.94,0,0,0-.07.45l-.07.33a2.31,2.31,0,0,0-.26,1.12l.09.67c-.21,1.32-.32,2-.32,2.11s0,.21.05.46v.25a9.4,9.4,0,0,1-.36,2.28l0,.66-.14,1.86a12.54,12.54,0,0,0,.14,1.37.63.63,0,0,0-.09.25,6.08,6.08,0,0,0,.65,2.55,10.66,10.66,0,0,1,.66,4.33,4.94,4.94,0,0,1-.07.73c0,.32-.07.66-.09,1A2.31,2.31,0,0,1,399,231c-.22.36-.4.53-.55.53-.78,0-1.37-1.06-1.75-3.19a30.4,30.4,0,0,1-.58-4.1l0-1.62-.13-.83.13-3.65-.09-.87.52-3.56v-1.29a3,3,0,0,1,.31-.66.08.08,0,0,0-.09-.09c-.09,0-.21.17-.36.5a5.79,5.79,0,0,1-.55,1l-.18.58a.5.5,0,0,0-.18-.17,11.77,11.77,0,0,0-.73,1.95c-.31.08-.56.41-.74,1s-.42.87-.73.87l-.09.09c-.06.8-.27,1.2-.62,1.2l-.09.08c-.22.94-.45,1.4-.69,1.37a2.21,2.21,0,0,1-1.09,1.7,1.66,1.66,0,0,1-.39.75,2.23,2.23,0,0,0-.37.45c-.07.14-.14.21-.2.21s-.29-.39-.29-1.16a2.11,2.11,0,0,1,.15-.73,2,2,0,0,0,.14-.56,1.79,1.79,0,0,0-.22-.49,2.38,2.38,0,0,1,.36-1.62,2.11,2.11,0,0,0,.53-.95,1,1,0,0,1,.44-.71.61.61,0,0,0,.34-.54,3,3,0,0,1,.57-1.16,9.07,9.07,0,0,0,.85-1.51c.18-.43.33-.64.44-.64l.09-.17c0-.69.17-1,.43-1l.22-.25,0-.33.14-.16h.17l.11-.17a2.68,2.68,0,0,1,.53-1.62,21.31,21.31,0,0,0,1.74-3.25,20.69,20.69,0,0,0,1.42-3.42q.17-.75.57-2a8.74,8.74,0,0,0,.46-2.39,1.56,1.56,0,0,0-.14-.33l-.95.87c0-.08-.15-.21-.45-.37a2.63,2.63,0,0,0-.48.75c-.11.24-.19.37-.25.37l-.31-.08-1,.2a3.09,3.09,0,0,0-2,1l-.91.5h-.2c-.12,0-.3.13-.53.41l-.52-.08c-.47.47-.82.7-1,.7a1,1,0,0,1-.27-.08l-2.26,1.16a7.64,7.64,0,0,0-1.2,1.7l-.18.08c-.14,0-.32-.31-.52-.93a5.53,5.53,0,0,1-.3-1.68c0-2.74,1.26-4.32,3.78-4.77l.91-.66h0l.25.17h.08c.09,0,.23-.11.43-.32a4.58,4.58,0,0,1,1.28-.76l.91-.46.29.08a.73.73,0,0,0,.5-.33,1.56,1.56,0,0,1,.85-.47,2.19,2.19,0,0,0,.78-.32l.36-.16c.06,0,.18-.1.37-.29a1,1,0,0,1,.72-.29A1,1,0,0,1,397.44,194.08Z" transform="translate(-47.35 -22.59)"/><path class="cls-3" d="M415.17,227.21l-1,1.7c-.06-.11-.12-.16-.18-.16s-.33.25-.55.74-.36.75-.45.75l-.22-.08a3.4,3.4,0,0,1-.8.91,2.42,2.42,0,0,0-.59.45,1.22,1.22,0,0,1-.62.38.63.63,0,0,0-.46.35c-.12.21-.41.31-.87.31l-.35-.08a1,1,0,0,1-.38.25c-.12,0-.24-.12-.38-.36a.71.71,0,0,0-.43-.39c-.16,0-.32-.22-.48-.58a2.6,2.6,0,0,0-.45-.75,1.47,1.47,0,0,1-.35-.58l-.31-.49a5.65,5.65,0,0,1-.73-1.83,8.43,8.43,0,0,1-.36-2.07v-.17l.05-.79-.05-.91a3,3,0,0,0,.22-.7v-1.33l.54-3.32a.77.77,0,0,0-.18-.54,1.4,1.4,0,0,1-.45.75.76.76,0,0,0-.3.58c-.05.31-.14.46-.25.46l-.27-.17a6.18,6.18,0,0,0-.2.85c-.11.51-.29.77-.54.77s-.4-.19-.4-.58l0-.75-.13-1a4.66,4.66,0,0,1,.35-1.31c.24-.65.46-1,.66-1.12a1.28,1.28,0,0,0,.51-.79,5.58,5.58,0,0,1,.92-1.55q.4-.17.69-1.08a2.65,2.65,0,0,1,.81-.75,1.76,1.76,0,0,0,.76-.85,7.25,7.25,0,0,1,1.51-1.74c.84-.79,1.45-1.18,1.84-1.18a1,1,0,0,0,.49-.19l.58-.33a2.32,2.32,0,0,0,.55-.45c.19-.21.35-.32.47-.32l.64.42a4,4,0,0,1,.87.54,2,2,0,0,0,.46.35,4.85,4.85,0,0,1,.84.73,2.48,2.48,0,0,1,.44,1.7,8.68,8.68,0,0,0-.38,1.12c0,.11.17.27.51.49.12.42.3,1,.53,1.62l.25,1.45,0,3.4,0,.33a1.53,1.53,0,0,0-.25.54l.07.83-.18,1.16a1.36,1.36,0,0,1-.22.71.83.83,0,0,0-.2.41l-.13.33c0,.09-.1.33-.19.73a4.06,4.06,0,0,1-.33.93,2.29,2.29,0,0,0-.22.79,1.16,1.16,0,0,1-.22.66,1.31,1.31,0,0,0-.25.44A1,1,0,0,1,415.17,227.21Zm-6.9,1.08.09,1,0,.09h.36l.11.08a2.17,2.17,0,0,0,.66.17,1.25,1.25,0,0,0,1.1-.65c.27-.43.49-.64.65-.64s.3-.21.41-.62a1.87,1.87,0,0,1,.21-.62h.31l.09-.09a1.73,1.73,0,0,1,.46-1.36,2.36,2.36,0,0,0,.64-1.1,3.46,3.46,0,0,1,.43-1,2.26,2.26,0,0,0,.33-.93l.18-.5a1.46,1.46,0,0,0,.09-.62l.42-1.49a13.29,13.29,0,0,0,.13-1.62,1.93,1.93,0,0,0-.47-1.37,2.87,2.87,0,0,1-.48-2,3.18,3.18,0,0,1,.52-1.76,3.2,3.2,0,0,0,.52-1c0-.16,0-.24-.13-.24a1.92,1.92,0,0,0-.51.33c-.1.38-.63.9-1.57,1.53a3.28,3.28,0,0,0-.51-.41c-.09,0-.18.16-.27.49a3.11,3.11,0,0,1-.26.71h-.29a1.78,1.78,0,0,0-.29.54c-.16.36-.37.54-.62.54l-.27.49a2.29,2.29,0,0,1-.44,1.37l-.24.54c-.15.33-.34.72-.58,1.16l-.4,1.87a8.24,8.24,0,0,0-.24,1.62,1.54,1.54,0,0,1-.3.51,1,1,0,0,0-.23.69,1.6,1.6,0,0,0,.15.41,1.45,1.45,0,0,1,.16.5l-.09.54-.09,1.53Z" transform="translate(-47.35 -22.59)"/><path class="cls-12" d="M258,185.12l.38-.58.44.08a.76.76,0,0,0,.64-.37,1.07,1.07,0,0,1,.44-.42c.11,0,.24-.16.4-.41a1.21,1.21,0,0,1,.67-.52,1.1,1.1,0,0,0,.65-.52,1,1,0,0,1,.45-.48,2.26,2.26,0,0,0,.59-.35l2-1.16a.9.9,0,0,1,.25.17H265c.18,0,.36-.13.53-.4a.72.72,0,0,1,.61-.39,2.16,2.16,0,0,0,.86-.5l.14.25c.23-.5.43-.75.59-.75h.14a2.75,2.75,0,0,1,.4.17,1.91,1.91,0,0,1,.91-.33l.51-.08s.07,0,.13.08a.79.79,0,0,1,.49-.46h.24l.91-.41.27.16a.92.92,0,0,1,.82-.41h.22l.23.08a2.05,2.05,0,0,0,.41-.25,3.94,3.94,0,0,1,1.78-.25l.58.17a3.57,3.57,0,0,1,.6-.41l.62.24.25-.16h.09a.69.69,0,0,1,.22.16h0l1.6-.41a.56.56,0,0,1,.18.08c.12-.19.2-.29.26-.29l.43.21c.11,0,.32-.15.62-.46l.13.25,1.51-.33.56.08.48-.16a1.17,1.17,0,0,1,1.1.72,3.21,3.21,0,0,1,.37,1.48l.09,1.28-.14.71,0,.82a1.13,1.13,0,0,1-.33.67c0,.05-.07.12-.2.18a1.2,1.2,0,0,0-.4.36c-.14.16-.57.25-1.31.25-.37,0-.61-.22-.71-.65s-.22-.67-.33-.72l-1-.75s-.12-.08-.26-.08H280l-.91.16a.86.86,0,0,1-.25-.08,1.65,1.65,0,0,1-.31.25l-1.64-.17-.66.09-.47-.17a.74.74,0,0,0-.31.13,3,3,0,0,1-.93.2.73.73,0,0,0-.71.83,2.93,2.93,0,0,0,.19,1,2.91,2.91,0,0,1,.18.87,4.39,4.39,0,0,0-.33,1.12,5.59,5.59,0,0,0-.31.54c-.15.27-.42.71-.82,1.3a6.26,6.26,0,0,0-.82,1.64c-.15.5-.33.75-.53.75a5.87,5.87,0,0,0-.56,1.28l-.18.33a1,1,0,0,0,0,.38,1,1,0,0,1-.13.49l-.2,1a10.94,10.94,0,0,0-.91,2.16l-.27.24-.26.59h-.32c-.13,0-.2.16-.2.49l.09,1.21a4.56,4.56,0,0,0-.53,1.45l-.27.83a5.8,5.8,0,0,0-.46.95,15.06,15.06,0,0,1-.44,1.78l-.05.42a16.79,16.79,0,0,1-1.55,4.06,10.57,10.57,0,0,0-.27,2.4c-.44,1.64-.75,2.42-.91,2.37a12.87,12.87,0,0,1-.28,2.57c-.15.66-.35,1.64-.6,2.92a12.27,12.27,0,0,1-.76,2.76l-.09.33a5.67,5.67,0,0,1-.22.66q0,1.13-.42,3.57l-.14,1.78-.44,2.32a1.77,1.77,0,0,0-.07.5,2.77,2.77,0,0,0,.15.65,3.22,3.22,0,0,1,.14.89,3.38,3.38,0,0,1-.11.93,3.33,3.33,0,0,0-.11.93,1.79,1.79,0,0,1-.73,1.7h-.18l-.47.09c-.62,0-1.18-.56-1.69-1.66a11.33,11.33,0,0,1-.75-4.56c0-.11,0-.54.13-1.27s.14-1.21.16-1.43a3.32,3.32,0,0,1,.11-.68,4.44,4.44,0,0,0,.09-1,10.34,10.34,0,0,1,.54-3.52c.36-1,.61-1.72.72-2.16a.58.58,0,0,1,.16-.37,3.89,3.89,0,0,1-.07-.83,3.2,3.2,0,0,1,.56-2c0-.22.08-.48.15-.77s.23-1,.47-2.11.55-1.78.93-2a2.38,2.38,0,0,1,.27-.67l-.09-1.45a3,3,0,0,1,.4-1.12l.38-1.16a2.47,2.47,0,0,1,.57-1.28.91.91,0,0,1,.29-.5c0-.11.08-.46.19-1a11.66,11.66,0,0,1,.71-2.17c.36-.87.71-1.78,1-2.72s.63-1.42.91-1.45.42-.32.45-.87l.13-1.53a8.46,8.46,0,0,0,.78-1.46l.31-.66a2,2,0,0,1,.23-.77,3.3,3.3,0,0,0,.37-.76,4.13,4.13,0,0,1,.56-1,6.17,6.17,0,0,1,1.31-2.94l.35-.71a7.53,7.53,0,0,1,.62-1.35,2.35,2.35,0,0,0,.37-.93,1.43,1.43,0,0,1,.48-.87.85.85,0,0,0,.35-.66c0-.11-.06-.17-.18-.17a1.43,1.43,0,0,0-.59.25h-.18l-.4.17h-.14l-.37-.17a1.33,1.33,0,0,1-.62.25,4.2,4.2,0,0,1-.29.37h-.49l-.27.5-.2.08-.58-.16c-.17,0-.39.16-.64.49,0,.06-.24.16-.72.29a3.7,3.7,0,0,0-1.37.77c-.43.37-.68.56-.77.56l-.4-.17h-.05c-.19,0-.37.18-.53.54a1.11,1.11,0,0,1-.71.67h-.27a1.61,1.61,0,0,0-.9.49,3.48,3.48,0,0,1-.61.5l-.4-.08a2.81,2.81,0,0,1-.45.46,1.27,1.27,0,0,0-.37.39,1.38,1.38,0,0,1-.36.39,2.52,2.52,0,0,0-.41.46q-.23.33-.36.33h-.09l-.27-.08c-.1,0-.24.17-.4.52a1.41,1.41,0,0,1-.46.64,1.33,1.33,0,0,0-.4.39.63.63,0,0,1-.38.31,5.73,5.73,0,0,0-.32.92,4.87,4.87,0,0,1-.51,1.22,5.56,5.56,0,0,0-.41.81c-.07.19-.13.29-.19.29-.72,0-1.09-.84-1.09-2.53l.45-1.78c.31-1.41.78-2.27,1.42-2.57.16,0,.58-.31,1.26-.92Z" transform="translate(-47.35 -22.59)"/><path class="cls-12" d="M287.43,221.81l.35-.58c.22,0,.35-.18.4-.56a1.29,1.29,0,0,1,.47-.89,3,3,0,0,0,.77-1.35c.23-.67.48-1,.73-1,.09,0,.19.14.31.41a1.81,1.81,0,0,1,.18.67,9.41,9.41,0,0,1-.45,2.81l-.09,1.17L290,223a1.71,1.71,0,0,0-.44.71,2.65,2.65,0,0,1-.52.91l-.22.58a1.48,1.48,0,0,0-.65,1c-.11.44-.27.69-.47.74s-.42.33-.65.83a2.44,2.44,0,0,1-.54.37l0,.42a1.55,1.55,0,0,1-.7.66,3.07,3.07,0,0,0-.71.48c-.16.15-.26.23-.32.23a1.21,1.21,0,0,1-.78-.31,1.71,1.71,0,0,0-.73-.4,1.36,1.36,0,0,1-.16-.54,2.51,2.51,0,0,0-.22-.76,3.57,3.57,0,0,1-.2-1.31l.09-.79a1.09,1.09,0,0,0-.11-.41,1,1,0,0,1-.11-.42.57.57,0,0,1,0-.25.48.48,0,0,0,.05-.24,2.68,2.68,0,0,0-.05-.46,2.33,2.33,0,0,1,0-.41l.13-2c0-.16,0-.25-.09-.25s-.16.14-.32.42a.64.64,0,0,1-.54.41,2.62,2.62,0,0,0-.29,1,3.11,3.11,0,0,1-.45.75l-.09.25a.67.67,0,0,1-.33.47,1.08,1.08,0,0,0-.4.48l-.22.41-.42-.08c0,.06-.11.3-.25.73a3.21,3.21,0,0,1-.51,1.05L277,229.81a8.87,8.87,0,0,1-.78.83l-.14.25c-1.18,1.47-2,2.2-2.5,2.2a2.44,2.44,0,0,1-1.4-.62,2.06,2.06,0,0,1-.87-1.49l-.22-1.7a5.3,5.3,0,0,1-.2-1.62,3.17,3.17,0,0,1,0-.66v-.25l0-1.37c0-.33.14-.5.42-.5l0-1.12a9.06,9.06,0,0,1,.38-1.3,6.78,6.78,0,0,1,.53-1.31l.22-.54a1.91,1.91,0,0,1,.31-1.06,5.87,5.87,0,0,0,.53-1.14,4.85,4.85,0,0,1,.76-1.28l.67-1.25a9,9,0,0,1,1.69-2.32,3.31,3.31,0,0,0,.54-.83,3.15,3.15,0,0,1,.93-1.1,5.9,5.9,0,0,0,1-.89c.33-.36.59-.54.79-.54h.17a8.17,8.17,0,0,0,1.18-1h.13c.06,0,.2.11.43.33h0l.36-.33a.29.29,0,0,1,.22-.09c.92,0,1.42,1.19,1.51,3.57,0,.5.1.75.22.75s.36-.51.64-1.52a1.73,1.73,0,0,1,1.74-1.51q1,0,1,2.28a10.61,10.61,0,0,1-1.29,5.1,4.79,4.79,0,0,0-.14.75l-.31,1.7v.08a2,2,0,0,1-.18.68,1.92,1.92,0,0,0-.19.77l0,1-.09,1.16a2.11,2.11,0,0,0,.16,1,2,2,0,0,0,1-1.1,2.61,2.61,0,0,1,.45-.85l.22-.16A4.21,4.21,0,0,1,287.43,221.81Zm-7.38,0a2.24,2.24,0,0,1,.55-1.39,1.91,1.91,0,0,0,.54-1,19.27,19.27,0,0,0,1.21-2.07,6.6,6.6,0,0,0,.79-1.83q0-.12-.09-.12h0l-.18.2-.4-.08-.42.08-.31-.29-.29.09-.45-.17a.82.82,0,0,0-.61.27,3.27,3.27,0,0,1-1,.6,3.3,3.3,0,0,0-1.3,1.14c-.39.54-.67.81-.85.81a5.57,5.57,0,0,1-1,1.78,1.93,1.93,0,0,0-.69,1.45,5.11,5.11,0,0,0-.58,1l-.15.7a1.48,1.48,0,0,1-.45.48,1.19,1.19,0,0,0-.31.87,3.58,3.58,0,0,1-.3,1.25,2.28,2.28,0,0,0-.25.89c0,1.35.14,2,.42,2a1.86,1.86,0,0,0,.74-.44,3,3,0,0,0,.66-.6,1,1,0,0,1,.35-.33l.43-.41a.41.41,0,0,1,.2-.21.58.58,0,0,0,.22-.27,1.81,1.81,0,0,1,.4-.5,1.73,1.73,0,0,0,.44-.72c.25-.28.66-.71,1.22-1.29l.47-.66a1.92,1.92,0,0,0,.6-.71A1.56,1.56,0,0,1,280.05,221.81Z" transform="translate(-47.35 -22.59)"/><path class="cls-12" d="M296.49,195.07l.31-.17.22-.41h0l.2.16h.05a1.33,1.33,0,0,0,.94-.39,4.33,4.33,0,0,1,.7-.56,1.43,1.43,0,0,0,.35-.25s.08-.08.11-.08l.36.08c.12,0,.27-.39.47-1.18a5.48,5.48,0,0,1,.68-1.72,7.14,7.14,0,0,0,.76-2c.05-.14.12-.35.2-.64s.13-.44.17-.44c.22,0,.4-.26.54-.79.44-1,.8-1.45,1.08-1.45s.63.66.78,2l.22,1.58s0,.23-.11.6a5.25,5.25,0,0,0-.1,1.12,4.66,4.66,0,0,1,0,.74,2.85,2.85,0,0,0,0,.44c0,.22.12.33.37.33.09,0,.25-.11.49-.33l.13-.08c.15.16.28.25.38.25a4.59,4.59,0,0,0,.63-.42,3.78,3.78,0,0,1,.75-.46,1.66,1.66,0,0,0,.53-.33H308l.18.13c.05,0,.18-.12.36-.36a1.57,1.57,0,0,1,1.06-.43l.31-.25H310c.48,0,.73.4.73,1.2a3.2,3.2,0,0,1-.21.87,9.68,9.68,0,0,0-.35,1.41l-1,2.41c-.34.83-.68,1.24-1,1.24a3.83,3.83,0,0,1-.55-1.12s0-.08-.09-.08a.85.85,0,0,0-.47.17.77.77,0,0,1-.4.16,12.57,12.57,0,0,0-1.18.62l-.53.17a1.48,1.48,0,0,0-.42.17l-1.13.41a4,4,0,0,0-.91,2c0,.06-.08.18-.23.37l-1,3.4a1.42,1.42,0,0,0-.64,1.08l-.09.25a1,1,0,0,0-.45.52,4.43,4.43,0,0,1-.37.68l-.4,1.12c-.17.39-.33.81-.49,1.27a6.69,6.69,0,0,0-.36,1.45,3.69,3.69,0,0,1-.18.89,1.2,1.2,0,0,0-.06.46l-.07.33a2.29,2.29,0,0,0-.27,1.12l.09.66c-.21,1.33-.31,2-.31,2.12s0,.2,0,.45v.25a9.18,9.18,0,0,1-.35,2.28l0,.66-.13,1.87a12,12,0,0,0,.13,1.37.58.58,0,0,0-.09.25,6,6,0,0,0,.66,2.55,10.63,10.63,0,0,1,.66,4.33,6.86,6.86,0,0,1-.07.73,7.9,7.9,0,0,0-.09,1A2.28,2.28,0,0,1,298,232c-.22.36-.4.54-.55.54-.79,0-1.37-1.06-1.76-3.19a32.3,32.3,0,0,1-.58-4.11l.05-1.61-.13-.83.13-3.65-.09-.87.51-3.57V213.4a3.6,3.6,0,0,1,.31-.67s0-.08-.09-.08-.2.17-.35.5a5.38,5.38,0,0,1-.56.95l-.18.58a.44.44,0,0,0-.17-.16,10.85,10.85,0,0,0-.74,1.94c-.31.09-.55.42-.73,1s-.42.87-.74.87l-.08.08c-.06.8-.27,1.21-.63,1.21l-.09.08c-.22.94-.45,1.39-.69,1.37a2.2,2.2,0,0,1-1.09,1.7,1.48,1.48,0,0,1-.38.74,1.73,1.73,0,0,0-.37.46c-.08.14-.14.21-.2.21s-.29-.39-.29-1.17a2.23,2.23,0,0,1,.14-.72,1.86,1.86,0,0,0,.15-.56,2.21,2.21,0,0,0-.22-.5c0-.85.11-1.39.35-1.61a2,2,0,0,0,.53-1,1.08,1.08,0,0,1,.45-.7.62.62,0,0,0,.33-.54,3.05,3.05,0,0,1,.58-1.16,9.11,9.11,0,0,0,.85-1.52c.17-.43.32-.64.44-.64l.09-.17c0-.69.17-1,.42-1l.22-.25.05-.33.13-.17h.18l.11-.16a2.67,2.67,0,0,1,.52-1.62,21.31,21.31,0,0,0,1.75-3.26,21.68,21.68,0,0,0,1.42-3.42,19,19,0,0,1,.57-2,9,9,0,0,0,.45-2.38,1.51,1.51,0,0,0-.13-.33l-1,.87c0-.09-.14-.21-.44-.38a2.92,2.92,0,0,0-.49.75c-.1.25-.18.37-.24.37l-.31-.08-1,.21a3.18,3.18,0,0,0-2,1l-.91.5h-.2c-.11,0-.29.14-.53.42l-.51-.09c-.47.47-.82.71-1,.71l-.27-.09-2.26,1.17a7.37,7.37,0,0,0-1.2,1.7l-.18.08c-.15,0-.32-.31-.52-.93a5.64,5.64,0,0,1-.3-1.68q0-4.11,3.77-4.77l.91-.67h0l.24.17h.09c.09,0,.23-.1.42-.31a4.48,4.48,0,0,1,1.29-.77l.91-.45.29.08c.15,0,.31-.11.5-.33a1.56,1.56,0,0,1,.84-.48,2.5,2.5,0,0,0,.79-.31l.36-.17c.05,0,.18-.09.36-.29a1,1,0,0,1,.72-.29A1.08,1.08,0,0,1,296.49,195.07Z" transform="translate(-47.35 -22.59)"/><path class="cls-12" d="M305.63,215.63l.47-.7c.35-.06.54-.4.57-1a2.49,2.49,0,0,1,.74-1.66l.26-.7a6,6,0,0,1,1.82-1.62,2.59,2.59,0,0,0,.51-.74q0-.09.09-.09l.36.17a1.53,1.53,0,0,0,.74-.29,1.67,1.67,0,0,1,.88-.29l.93-.08q.09,0,.36.24a1,1,0,0,0,.68.25c.33,0,.63.28.9.83a3.59,3.59,0,0,1,.41,1.54,5.58,5.58,0,0,1-.71,2.61c-.47.88-.85,1.38-1.13,1.49a3.59,3.59,0,0,1-.58.89,2.49,2.49,0,0,0-.41.58c-.14.27-.25.4-.34.4s-.1,0-.13-.11a.16.16,0,0,0-.13-.1q-.36,0-.78,1.62l-.4-.09a2.4,2.4,0,0,0-.49,1c-.07.36-.23.54-.46.54q-.82,1.53-1.11,1.53a1.19,1.19,0,0,1-.31-.16,2.12,2.12,0,0,0-.18.87c0,.33-.12.52-.35.58l-.29.5-.22-.09-.45.87a.94.94,0,0,0-.68.42c0,.33-.08.75-.14,1.26s-.08.8-.08.85a1,1,0,0,0,1.17,1.2l1.07-.29a1,1,0,0,0,.79-.41,1,1,0,0,1,.79-.41.9.9,0,0,0,.39-.17l.23.17a2.65,2.65,0,0,1,.57-1.12c.29-.34.51-.5.67-.5l.22-.25a1.2,1.2,0,0,1,.27-.66l.18-.29c.11-.23.23-.34.33-.34H313l.09-.08c.18-.72.42-1.14.74-1.26a.94.94,0,0,0,.6-.6.63.63,0,0,1,.44-.5.91.91,0,0,0,.52-.56,4.15,4.15,0,0,1,.52-.89,6.59,6.59,0,0,0,.43-.63c.08-.13.15-.2.21-.2s.14.12.14.37,0,.37.09.37.08-.05.08-.16a2.43,2.43,0,0,0,0-.42V219a.88.88,0,0,1,.36-.83l1-1.2c0-.58.12-.92.26-1a1,1,0,0,0,.32-.34c.08-.12.16-.18.25-.18s.28.2.28.62l-.11,1.08.11,1.12a1.73,1.73,0,0,1-.21.68,4.67,4.67,0,0,0-.32,1.33c-.07.59-.17.92-.29,1h-.13a2.65,2.65,0,0,1-.63.93,1,1,0,0,0-.37.52l-.76,1.62c-.14.28-.27.53-.37.75s-.19.33-.25.33l-.18-.33c0-.06,0-.09-.08-.09s-.25.17-.28.5a2.77,2.77,0,0,1-.24.87,3.08,3.08,0,0,0-.86,1.08l-.14.08h-.4c-.19,0-.32.27-.4.81s-.28.85-.63.93a1.1,1.1,0,0,0-.74.5.5.5,0,0,1-.2.17,3,3,0,0,0-.63.66l-1.86,1.24c-.15.14-.25.21-.29.21l-.62.17q-.14,0-.27-.33c-.09-.22-.15-.34-.18-.34l-.4.25a1.68,1.68,0,0,1-.84.25.7.7,0,0,1-.49-.29,4.89,4.89,0,0,0-.42-.41c-.43,0-.74-.62-.91-1.87l-.27.08a19.33,19.33,0,0,1-.6-2.94.91.91,0,0,0-.42-.48c-.19-.09-.29-.36-.29-.8a4.93,4.93,0,0,1,.43-2.51,2.72,2.72,0,0,0,.48-1l.31-2.15a3.23,3.23,0,0,0,.22-.83l.51-1.74C305.29,216.89,305.42,216.41,305.63,215.63Zm4.7-2.48-.27.25a6.29,6.29,0,0,0-.52.72,6.5,6.5,0,0,1-.84,1,4.89,4.89,0,0,0-.85,2.05,14.37,14.37,0,0,0-.43,1.91c0,.16,0,.25.13.25l.76-.63a4,4,0,0,0,.78-1,14.31,14.31,0,0,1,1.06-1.41l.18-.33a2,2,0,0,1,.41-.6,3.74,3.74,0,0,0,.54-.85l.22-.17a2.84,2.84,0,0,1,.77-1.37c.26-.16.39-.33.39-.49,0-.34-.14-.5-.42-.5-.12,0-.3.14-.54.41h-.51c-.06,0-.22.17-.49.5Z" transform="translate(-47.35 -22.59)"/><path class="cls-12" d="M323.8,210.29l.18-1a3.33,3.33,0,0,1,.47-1.7,8.74,8.74,0,0,1,.34-1.93c.2-.73.36-1.47.49-2.22a4.57,4.57,0,0,1,.79-2,12.41,12.41,0,0,0,.17-1.28.8.8,0,0,1,.38-.33,12.64,12.64,0,0,0,.27-1.29l.82-2.73q.09-.3.36-1.41l1.2-2.16a1.66,1.66,0,0,1,.35-1.24,1.67,1.67,0,0,0,.43-1.1,3.6,3.6,0,0,1,.47-1.43,10.26,10.26,0,0,0,.66-1.33.47.47,0,0,0,.26-.41l.25-.67c.16-.47.29-.7.4-.7h.17a4,4,0,0,1,.68-1.6,13.93,13.93,0,0,0,.85-1.53,2.25,2.25,0,0,1,.56-.85l.18-.42c.1.06.38-.27.83-1s.78-1.06,1-1.06l.42.08.49-.33c.47,0,.85.51,1.13,1.54,0,0,.11-.1.24-.29l.53-.5c.15-.22.3-.48.46-.77a3.72,3.72,0,0,1,1.23-1.1l.4-.5a.76.76,0,0,1,.51-.33l1.31-.29a2.84,2.84,0,0,1,2.57,1.74,11.83,11.83,0,0,1,1.06,2.37.55.55,0,0,0,.05.25l-.14,1.2a3.52,3.52,0,0,0,.49.74l.07.42a.33.33,0,0,1-.17.33c-.11.06-.16.13-.16.21a.73.73,0,0,0,.11.37,1.2,1.2,0,0,1,.11.54l-.09,1.91a15.23,15.23,0,0,1-.25,2.07q-.24,1.53-.24,1.62l.18,1.28a1.81,1.81,0,0,1-.36.75,54.89,54.89,0,0,1-1.2,6.72v.33l-.26,1.2c-.18.83-.38,1.31-.61,1.45,0,.06-.1.91-.31,2.55s-.49,2.55-.86,2.72a3.09,3.09,0,0,0-.36,1.18,10.35,10.35,0,0,1-.51,1.89L342,211a3.59,3.59,0,0,1-.35,1.06,8.05,8.05,0,0,0-.53,1.8c-.16.78-.38,1.23-.68,1.37,0,.08,0,.31-.08.66a2.64,2.64,0,0,1-.23.92,2.72,2.72,0,0,0-.24.85,1.46,1.46,0,0,1-.58.89,5.82,5.82,0,0,1-.38,1.24,5.11,5.11,0,0,0-.34,1,1.34,1.34,0,0,1-.81,1l-.16.17v.41l-.13.54a2.52,2.52,0,0,0-.35,1,8.59,8.59,0,0,1-1.6,2.65c-.24,1.13-.54,1.78-.91,1.95a1.58,1.58,0,0,0-.22.75l.69,2.4.35.42a2.69,2.69,0,0,1,.51,1.28,1,1,0,0,1,.31.42v.66a1.83,1.83,0,0,0,.78.33l.53-.17c.16,0,.32.13.47.38l.13.08h.4c.25,0,.52.28.81.85a3.39,3.39,0,0,1,.43,1.51,1.85,1.85,0,0,1-.19,1.08,1.87,1.87,0,0,0-.32.62c-.09.28-.39.42-.91.42-.06,0-.18.08-.35.25a2.88,2.88,0,0,0-.64-.17,2.85,2.85,0,0,1-1.23-.81,3.46,3.46,0,0,1-.88-1.05,4.39,4.39,0,0,0-.37-.77,4.72,4.72,0,0,1-.45-1.29,6.15,6.15,0,0,0-.34-1.1,3.31,3.31,0,0,1-.25-.89,4.93,4.93,0,0,0-.35-1.14s0-.05,0-.16l0-.83a3,3,0,0,0-.1-.42c-.06-.25-.12-.37-.16-.37-.28.8-.63,1.18-1,1.12a4.24,4.24,0,0,0-.44.68,7.73,7.73,0,0,1-1.56,1.6l-.47-.08c-.14.27-.29.41-.44.41h0l-.29-.08c-.24.41-.43.62-.58.62l-.78-.29-.42.29-.26-.08-.31.08a.6.6,0,0,0-.44-.25.52.52,0,0,1-.41-.25,2,2,0,0,0-.34-.45,2.25,2.25,0,0,1-.41-.69,2.21,2.21,0,0,0-.7-.85,3.14,3.14,0,0,1-.79-1.86l-.82-4.48a14.43,14.43,0,0,1-.24-2.65,7.48,7.48,0,0,1,.2-1l-.09-.7,0-2.2-.08-1c.23-.82.35-1.27.35-1.32l-.09-1.29a12.2,12.2,0,0,1,.27-1.78,12.13,12.13,0,0,0,.26-1.7,3.54,3.54,0,0,1,.17-1.41A3.42,3.42,0,0,0,323.8,210.29Zm11.54,7.46.31-.87.29-.25a2.79,2.79,0,0,0,.3-.75,7.35,7.35,0,0,1,.87-1.7c0-.11.09-.39.18-.85a1.51,1.51,0,0,1,.47-.93,3.61,3.61,0,0,1,.56-2.09,4,4,0,0,0,.71-1.6,22.64,22.64,0,0,1,.59-2.2,26.88,26.88,0,0,1,1.1-2.69,3.6,3.6,0,0,0,.27-1.37,3.49,3.49,0,0,1,.25-1.35,2.48,2.48,0,0,0,.3-.85c.08-.38.17-.76.26-1.14A7.1,7.1,0,0,0,342,198a1.78,1.78,0,0,1,.36-.93,2.51,2.51,0,0,0,.22-.7,2.22,2.22,0,0,1,.56-1.08l-.14-.58a5.71,5.71,0,0,1,.37-2.43,3.27,3.27,0,0,0,.36-.89v-.25l-.08-.54v-.08a.57.57,0,0,0,0-.25v-.5l.64-5.59a7.17,7.17,0,0,0-.07-1.7,3.26,3.26,0,0,0-.44-1.37l-.26-.5c-.06-.17-.48-.28-1.24-.33l-1.49,1-2.68,3.49a5,5,0,0,0-.61,1.22,4.7,4.7,0,0,1-.73,1.33,2.62,2.62,0,0,0-.57,1.1.59.59,0,0,1-.33.12c-.18,0-.31.53-.4,1.49l-.27,1a1,1,0,0,0-.39.68,3.68,3.68,0,0,1-.16.83,4.62,4.62,0,0,0-.18.85l-.13.5a12.05,12.05,0,0,0-.18,2.24,8.66,8.66,0,0,1,.4,2.28,7.43,7.43,0,0,1-.37,1.72c-.24.84-.52,1.26-.85,1.26-.81,0-1.22-.93-1.22-2.81a11.7,11.7,0,0,1,.53-3l0-.66a2.62,2.62,0,0,1,.32-.81,5.15,5.15,0,0,0,.43-1.14,5.35,5.35,0,0,1,.27-.85,5.2,5.2,0,0,0,.25-1.37,6.76,6.76,0,0,1,1-2.55,6.08,6.08,0,0,1,.53-2l.23-.75a9.06,9.06,0,0,1,.95-1.45l.2-.54h-.24c-.12,0-.27.1-.45.29l-.22.08-.29.42a1.93,1.93,0,0,1-.75.66l-.16.17a1.37,1.37,0,0,1-.32.72,3.57,3.57,0,0,0-.48.94,9.4,9.4,0,0,1-.59,1.32l-.47,1.37c-.24,0-.47.43-.7,1.37a9.75,9.75,0,0,1-.55,1.8,2.92,2.92,0,0,0-.26,1,1.58,1.58,0,0,1-.25.79,1.93,1.93,0,0,1-.42,1.12,2.25,2.25,0,0,0-.18.74l-.42,1.16a1.81,1.81,0,0,1-.31,1,1.79,1.79,0,0,0-.31.54l.13.7a5.83,5.83,0,0,1-.55,1.6,10,10,0,0,0-.72,2.46l-.09.42a1.62,1.62,0,0,0-.38,1.12c0,.22,0,.7-.08,1.45a3.06,3.06,0,0,0-.53,1.1,5.14,5.14,0,0,0-.31,1.72,6.37,6.37,0,0,1-.32,1.89,19,19,0,0,0-.58,3,.18.18,0,0,0-.18.09l.14.91a12.84,12.84,0,0,0-.52,2.19l.2,1.12a1.71,1.71,0,0,0-.22.71l.05.66-.09,1.12,0,1a2.35,2.35,0,0,1,0,.54l-.11.83.11,1.28a11.21,11.21,0,0,1-.11,1.16,4,4,0,0,0,.2.54,10.08,10.08,0,0,0,.62,4.31c.07.2.14.4.2.62l.44.09a.33.33,0,0,0,.25-.15.47.47,0,0,1,.3-.18.55.55,0,0,0,.32-.29,1.52,1.52,0,0,0,.74-.67,1,1,0,0,1,.67-.54q.36,0,1-1.41l.29-.33,1.08-1.7.16-.12a.44.44,0,0,0,.16-.33,10.4,10.4,0,0,1-.75-2.14c-.14-.65-.3-1-.48-1s-.14.08-.24.24c-.28.45-.53.67-.76.67q-1.26,0-1.26-1.08c0-1.49.57-2.24,1.71-2.24.28,0,.72.32,1.33.95a6.88,6.88,0,0,0,.49,1l.69,1.53c.06.11.1.17.13.17.19,0,.58-.66,1.16-2a15.34,15.34,0,0,0,1.06-3.11A5,5,0,0,1,335.34,217.75Z" transform="translate(-47.35 -22.59)"/><path class="cls-12" d="M344,215.72l.32.25a2.23,2.23,0,0,1,.42-1.21h.18c.15,0,.34-.37.58-1.12l.38-.41a.36.36,0,0,0,.27.08c.08,0,.17-.11.25-.33a13.66,13.66,0,0,1,.62-1.28h.08c.09,0,.2-.13.33-.38a.55.55,0,0,1,.5-.37l.76-.37a2.75,2.75,0,0,1,.4-.17c.13-.08.46.42,1,1.51a7.4,7.4,0,0,1,.78,3.18c0,.58-.16.92-.49,1l-.11.17v.83l-.37,1.53a1.46,1.46,0,0,1-.38.79c-.14.44-.23.75-.29.91l-.31.08-.14.25v1a18.81,18.81,0,0,0-.57,2.18,14,14,0,0,0-.38,2.13c0,.53.06.79.18.79s.18-.07.26-.21a5.29,5.29,0,0,1,.37-.47,1.75,1.75,0,0,0,.34-.56,1.1,1.1,0,0,1,.47-.52,2.12,2.12,0,0,0,.67-.85,8.18,8.18,0,0,1,.44-.83,5.55,5.55,0,0,0,.29-.56c.1-.24.17-.35.2-.35a1,1,0,0,0,.42-.17,6.63,6.63,0,0,1,.09-.66l.53-.5,1.29-2.16.18-.41a2,2,0,0,0,.44-.25,3.35,3.35,0,0,1,.6-1.62c0-.11.07-.19.22-.25a3.45,3.45,0,0,1,.45-1.05,3.43,3.43,0,0,0,.46-1l.51-.79a.85.85,0,0,0,.31-.49,19,19,0,0,1,1.43-2.18,1.27,1.27,0,0,1,.9-.27c.41,0,.75.3,1,.89a4.36,4.36,0,0,0,.84,1.35,2.44,2.44,0,0,1,.46,1.74,20.17,20.17,0,0,1-1,4.6c-.43,2.38-.65,3.84-.67,4.38s-.08.85-.2.93a.34.34,0,0,0-.17.29v.17c0,.66.05,1,.17,1s.21-.14.37-.41a3.27,3.27,0,0,1,.94-.92l.2.09a7.15,7.15,0,0,1,.86-2,1.6,1.6,0,0,0,.45-.75c.14-.4.32-.61.54-.64a.52.52,0,0,0,.41-.21,4.22,4.22,0,0,1,.87-2.24c.57-.83.9-1.24,1-1.24s.26.21.35.62a2.73,2.73,0,0,0,.28.85.8.8,0,0,1,.14.4v.74a.76.76,0,0,1-.29.71,2.78,2.78,0,0,1-.4,1.07l-.4-.08c-.07.17-.13.32-.18.46s-.09.19-.1.16a3.08,3.08,0,0,0-.63,1.1q-.46,1-.81,1.68l-.09.25a1,1,0,0,1-.33.33l-.4.62c-.15-.16-.24-.25-.27-.25s-.09.12-.19.34a4,4,0,0,1-.57.85,3.59,3.59,0,0,0-.66,1.18l-.35.66-.47.13s-.11.12-.22.37l-.4.95a1,1,0,0,1-.91.71c-.08,0-.2-.15-.34-.44a6.9,6.9,0,0,0-.4-.74c-.12-.21-.4-.83-.84-1.87a17.14,17.14,0,0,1-.65-1.64l.13-1.45-.05-1a2.89,2.89,0,0,1,.22-.9c.14-.4.21-.61.21-.64l-.05-1.62a1,1,0,0,0,.09-.24l.31-1a8.47,8.47,0,0,1,0-.91l.09-1.37a2.77,2.77,0,0,0-.7,1.35c-.2.68-.47,1-.79,1-.28.94-.5,1.39-.65,1.36a1.58,1.58,0,0,0-.13.34l-.31.33-.38-.09-.13,1a2.53,2.53,0,0,0-.63.89,3.2,3.2,0,0,1-.46.81l-.38.66h-.35a3.34,3.34,0,0,1-.69,1.87l-.18.41-.4-.08a3.15,3.15,0,0,1-.55,1.62c-.26,0-.6.43-1,1.28s-.74,1.29-.92,1.29q-1.94,0-3.13-4.52c0-.11-.1-.32-.21-.62a4.47,4.47,0,0,1-.17-1.41,6.67,6.67,0,0,1,.24-2.2,19.26,19.26,0,0,0,.6-2.18q.36-1.59.54-1.38a2.17,2.17,0,0,0,0-.5,3.28,3.28,0,0,0,.36-1.2c0-.11,0-.17-.09-.17s-.12.08-.27.25l-.31.25a.51.51,0,0,0-.29.33,1.45,1.45,0,0,1-.31.48q-.22.23-.36.39h-.06c-.09-.17-.15-.25-.18-.25a3.85,3.85,0,0,1-.23.83l-.26.08q-.5,1-.63,1c-.06,0-.19-.1-.4-.29a.82.82,0,0,1-.31-.58l.15-1.62v-.75a.89.89,0,0,1,.18-.33,4.36,4.36,0,0,0,.36-.89C343.47,216,343.71,215.72,344,215.72Z" transform="translate(-47.35 -22.59)"/><path class="cls-12" d="M364.46,218.16l.36-.58H365c.1,0,.26-.2.47-.62l.22-.16a3.14,3.14,0,0,1,.78-1.46l.35-.49a.89.89,0,0,1,.26-.29,3.26,3.26,0,0,0,.53-.81c.24-.46.44-.69.59-.69a.58.58,0,0,1,.35.09,2.59,2.59,0,0,1,.54-1,3.8,3.8,0,0,0,.64-1.14l.29-.25a3,3,0,0,0,.63-.85.83.83,0,0,1,.73-.51c.43,0,.88.4,1.34,1.22a4.66,4.66,0,0,1,.7,2.34l-.38,3.24c-.25,2.37-.53,3.62-.84,3.73l-.09.87a1.19,1.19,0,0,0-.31.66l.13,1a1.49,1.49,0,0,1-.24.62s-.05.08-.05.25v1.7a1,1,0,0,1-.31.74.7.7,0,0,0,.14.17c.09-.17.29-.25.6-.25l.35.08.49-.91a1.89,1.89,0,0,0,.43-.39,6.93,6.93,0,0,1,.94-.81l2.91-4.15c.4-.74.7-1.12.91-1.12s.33.27.33.79a5,5,0,0,1-.19,1.51,13.14,13.14,0,0,0-.34,1.45,3.78,3.78,0,0,1-.37,1.19,3.4,3.4,0,0,0-.34.72,4.48,4.48,0,0,1-.72,1.14,9.24,9.24,0,0,0-1,1.52,7.78,7.78,0,0,1-.68,1.09l-.95,1.29-.14.41a1.61,1.61,0,0,1-.41.36,3,3,0,0,0-.65.68l-.4.42a.63.63,0,0,1-.44.2c-.2,0-.37.19-.52.48s-.26.44-.35.44l-.34-.09-.44.25c-.25,0-.56-.28-.92-.85a3.32,3.32,0,0,1-.54-1.8v-.25l0-.58a6,6,0,0,0-.13-.85c-.09-.46-.14-.71-.14-.77l0-.58,0-.25a6.51,6.51,0,0,1,.09-1.41,3.9,3.9,0,0,0,.14-.81c0-.34.05-.62.08-.85l.11-1a1.62,1.62,0,0,1,.23-.67c0-.22.09-.59.17-1.12l.09-.74.23-.58a2.48,2.48,0,0,0,.21-.89A4.89,4.89,0,0,1,370,217a4.39,4.39,0,0,0,.2-.74c0-.33-.09-.5-.27-.5s-.24.22-.55.66l-.4-.24s-.11.13-.25.41c0,.11-.06.19-.2.25s-.26.26-.37.62l-.18.08-.29-.25h-.09c-.15,0-.24.31-.27.92a1.49,1.49,0,0,1-.64.87l-.49.25a1.13,1.13,0,0,0-.35.74,2.86,2.86,0,0,1-.45,1.06c-.22.32-.37.48-.44.48-.42,0-.62-.43-.62-1.29l.17-2Zm9.59-20.73-.13-1.61v-.25c0-1.3.23-2,.71-2.16a6.93,6.93,0,0,0,.93-.54c.27.11.54.55.83,1.31a5.77,5.77,0,0,1,.44,2,3.27,3.27,0,0,1-.07.37,8.08,8.08,0,0,0-.09,1.1,2.55,2.55,0,0,1-.43,1.41,1.13,1.13,0,0,1-.88.6c-.21,0-.47-.27-.79-.81A3.34,3.34,0,0,1,374.05,197.43Z" transform="translate(-47.35 -22.59)"/><path class="cls-12" d="M381.25,215.63l.47-.7c.35-.06.55-.4.58-1a2.48,2.48,0,0,1,.73-1.66l.27-.7a5.89,5.89,0,0,1,1.81-1.62,2.24,2.24,0,0,0,.51-.74q0-.09.09-.09l.36.17a1.53,1.53,0,0,0,.74-.29,1.7,1.7,0,0,1,.88-.29l.93-.08c.06,0,.18.08.37.24a1,1,0,0,0,.67.25c.33,0,.63.28.9.83a3.45,3.45,0,0,1,.41,1.54,5.46,5.46,0,0,1-.71,2.61c-.47.88-.85,1.38-1.13,1.49a4,4,0,0,1-.57.89,2.23,2.23,0,0,0-.41.58c-.14.27-.26.4-.35.4s-.1,0-.13-.11a.15.15,0,0,0-.13-.1q-.36,0-.78,1.62l-.4-.09a2.4,2.4,0,0,0-.49,1c-.07.36-.22.54-.46.54q-.82,1.53-1.11,1.53a1.19,1.19,0,0,1-.31-.16,2.12,2.12,0,0,0-.18.87c0,.33-.11.52-.35.58l-.29.5-.22-.09-.44.87a1,1,0,0,0-.69.42c0,.33-.07.75-.13,1.26s-.09.8-.09.85a1,1,0,0,0,1.17,1.2l1.07-.29a1,1,0,0,0,.79-.41,1,1,0,0,1,.79-.41.92.92,0,0,0,.4-.17l.22.17a2.56,2.56,0,0,1,.58-1.12c.28-.34.5-.5.66-.5l.22-.25a1.2,1.2,0,0,1,.27-.66l.18-.29c.12-.23.23-.34.33-.34h.31l.09-.08c.18-.72.43-1.14.74-1.26a.94.94,0,0,0,.6-.6.65.65,0,0,1,.44-.5.91.91,0,0,0,.52-.56,4.15,4.15,0,0,1,.52-.89,6.59,6.59,0,0,0,.43-.63c.09-.13.16-.2.22-.2s.13.12.13.37,0,.37.09.37.09-.05.09-.16a2.6,2.6,0,0,0,0-.42V219a.88.88,0,0,1,.36-.83l1-1.2c0-.58.11-.92.25-1a1,1,0,0,0,.32-.34c.08-.12.16-.18.25-.18s.29.2.29.62l-.11,1.08.11,1.12a1.73,1.73,0,0,1-.21.68,4.31,4.31,0,0,0-.33,1.33c-.07.59-.17.92-.29,1h-.13a2.65,2.65,0,0,1-.63.93,1,1,0,0,0-.37.52l-.75,1.62c-.15.28-.28.53-.38.75s-.19.33-.25.33l-.17-.33a.08.08,0,0,0-.09-.09c-.15,0-.24.17-.28.5a3.07,3.07,0,0,1-.23.87,3,3,0,0,0-.87,1.08l-.13.08h-.4c-.2,0-.33.27-.4.81s-.29.85-.64.93a1.13,1.13,0,0,0-.74.5.5.5,0,0,1-.2.17,2.84,2.84,0,0,0-.62.66l-1.87,1.24c-.15.14-.24.21-.29.21l-.62.17q-.14,0-.27-.33c-.09-.22-.15-.34-.18-.34l-.4.25a1.65,1.65,0,0,1-.84.25.7.7,0,0,1-.49-.29,4.89,4.89,0,0,0-.42-.41c-.43,0-.73-.62-.91-1.87l-.27.08a19.33,19.33,0,0,1-.6-2.94.91.91,0,0,0-.42-.48c-.19-.09-.29-.36-.29-.8a5,5,0,0,1,.43-2.51,2.72,2.72,0,0,0,.48-1l.31-2.15a2.83,2.83,0,0,0,.22-.83l.51-1.74C380.91,216.89,381.05,216.41,381.25,215.63Zm4.7-2.48-.27.25a6.29,6.29,0,0,0-.52.72,6.5,6.5,0,0,1-.84,1,4.89,4.89,0,0,0-.85,2.05,14.37,14.37,0,0,0-.43,1.91c0,.16,0,.25.13.25l.76-.63a4.28,4.28,0,0,0,.79-1,12.6,12.6,0,0,1,1-1.41l.18-.33a2.28,2.28,0,0,1,.41-.6,3.74,3.74,0,0,0,.54-.85l.23-.17a2.77,2.77,0,0,1,.76-1.37c.26-.16.39-.33.39-.49,0-.34-.14-.5-.42-.5-.12,0-.3.14-.53.41h-.52c-.05,0-.22.17-.48.5Z" transform="translate(-47.35 -22.59)"/><path class="cls-12" d="M399.4,195.07l.31-.17.22-.41h0l.2.16h.05a1.33,1.33,0,0,0,.94-.39,4.33,4.33,0,0,1,.7-.56,1.68,1.68,0,0,0,.35-.25s.08-.08.11-.08l.36.08c.11,0,.27-.39.47-1.18a5.48,5.48,0,0,1,.68-1.72,6.89,6.89,0,0,0,.75-2,4.15,4.15,0,0,0,.2-.64c.08-.29.14-.44.18-.44.22,0,.4-.26.53-.79.45-1,.81-1.45,1.09-1.45s.63.66.78,2l.22,1.58s0,.23-.11.6a4.67,4.67,0,0,0-.1,1.12,4.66,4.66,0,0,1,0,.74,1.94,1.94,0,0,0,0,.44c0,.22.13.33.38.33.09,0,.25-.11.49-.33l.13-.08c.15.16.28.25.38.25a4.59,4.59,0,0,0,.63-.42,3.5,3.5,0,0,1,.75-.46,1.66,1.66,0,0,0,.53-.33h.27l.17.13c.06,0,.18-.12.37-.36a1.54,1.54,0,0,1,1-.43l.32-.25h.08c.49,0,.74.4.74,1.2a3.2,3.2,0,0,1-.21.87,9.68,9.68,0,0,0-.35,1.41l-1,2.41c-.34.83-.68,1.24-1,1.24a4,4,0,0,1-.56-1.12.07.07,0,0,0-.08-.08.85.85,0,0,0-.47.17.77.77,0,0,1-.4.16,12.57,12.57,0,0,0-1.18.62l-.53.17a1.48,1.48,0,0,0-.42.17l-1.14.41a4.13,4.13,0,0,0-.91,2,.9.9,0,0,1-.22.37l-1,3.4a1.42,1.42,0,0,0-.64,1.08l-.09.25a.92.92,0,0,0-.45.52,3.66,3.66,0,0,1-.38.68l-.4,1.12c-.16.39-.32.81-.49,1.27a7.32,7.32,0,0,0-.35,1.45,4.32,4.32,0,0,1-.18.89,1.15,1.15,0,0,0-.07.46l-.06.33a2.29,2.29,0,0,0-.27,1.12l.09.66c-.21,1.33-.31,2-.31,2.12s0,.2,0,.45v.25a9.68,9.68,0,0,1-.35,2.28l0,.66-.13,1.87a12,12,0,0,0,.13,1.37.58.58,0,0,0-.09.25,6,6,0,0,0,.66,2.55,10.66,10.66,0,0,1,.65,4.33,6.33,6.33,0,0,1-.06.73,7.9,7.9,0,0,0-.09,1,2.29,2.29,0,0,1-.35,1.1q-.31.54-.54.54c-.79,0-1.37-1.06-1.76-3.19a32.3,32.3,0,0,1-.58-4.11l.05-1.61-.14-.83.14-3.65-.09-.87.51-3.57V213.4a3,3,0,0,1,.31-.67s0-.08-.09-.08-.2.17-.35.5a5.38,5.38,0,0,1-.56.95l-.18.58a.53.53,0,0,0-.17-.16,10.85,10.85,0,0,0-.74,1.94c-.31.09-.55.42-.73,1s-.43.87-.74.87l-.09.08c-.06.8-.26,1.21-.62,1.21l-.09.08c-.22.94-.45,1.39-.69,1.37a2.22,2.22,0,0,1-1.09,1.7,1.57,1.57,0,0,1-.39.74,1.88,1.88,0,0,0-.36.46c-.08.14-.14.21-.2.21s-.29-.39-.29-1.17a2.23,2.23,0,0,1,.14-.72,1.86,1.86,0,0,0,.15-.56,2,2,0,0,0-.23-.5,2.36,2.36,0,0,1,.36-1.61,2.06,2.06,0,0,0,.53-1,1.08,1.08,0,0,1,.45-.7.62.62,0,0,0,.33-.54,2.9,2.9,0,0,1,.58-1.16,9,9,0,0,0,.84-1.52c.18-.43.33-.64.45-.64l.09-.17c0-.69.17-1,.42-1l.22-.25,0-.33.13-.17h.18l.11-.16a2.67,2.67,0,0,1,.52-1.62,21.31,21.31,0,0,0,1.75-3.26,22.78,22.78,0,0,0,1.42-3.42,19,19,0,0,1,.57-2,9,9,0,0,0,.45-2.38,1.51,1.51,0,0,0-.13-.33l-1,.87c0-.09-.14-.21-.44-.38a2.67,2.67,0,0,0-.49.75c-.1.25-.18.37-.24.37l-.31-.08-1,.21a3.18,3.18,0,0,0-2,1l-.91.5h-.2c-.12,0-.29.14-.53.42l-.51-.09c-.47.47-.82.71-1,.71l-.27-.09-2.27,1.17a7.86,7.86,0,0,0-1.19,1.7l-.18.08c-.15,0-.32-.31-.52-.93a5.64,5.64,0,0,1-.3-1.68c0-2.74,1.25-4.33,3.77-4.77l.91-.67h.05l.24.17h.09c.09,0,.23-.1.42-.31a4.48,4.48,0,0,1,1.29-.77l.91-.45.29.08c.15,0,.31-.11.5-.33a1.56,1.56,0,0,1,.84-.48,2.5,2.5,0,0,0,.79-.31l.35-.17c.06,0,.19-.09.37-.29a1,1,0,0,1,.72-.29A1.08,1.08,0,0,1,399.4,195.07Z" transform="translate(-47.35 -22.59)"/><path class="cls-12" d="M417.12,228.2l-1,1.7c-.06-.11-.12-.17-.18-.17s-.33.25-.54.75-.37.74-.46.74l-.22-.08a3.24,3.24,0,0,1-.8.91,3.09,3.09,0,0,0-.59.46,1.19,1.19,0,0,1-.62.37.65.65,0,0,0-.46.36c-.11.2-.4.31-.86.31l-.36-.09c-.19.17-.32.25-.38.25s-.24-.12-.37-.35-.28-.37-.44-.39-.31-.23-.47-.58a2.82,2.82,0,0,0-.46-.75,1.42,1.42,0,0,1-.34-.58l-.32-.5a5.81,5.81,0,0,1-.73-1.82,8.46,8.46,0,0,1-.35-2.08v-.16l0-.79,0-.91a3.82,3.82,0,0,0,.22-.71v-1.32l.53-3.32a.75.75,0,0,0-.18-.54,1.43,1.43,0,0,1-.44.75.75.75,0,0,0-.3.58c-.06.3-.14.45-.26.45l-.27-.16a5.75,5.75,0,0,0-.2.85c-.1.51-.28.76-.54.76s-.4-.19-.4-.58l0-.74-.14-1a4.9,4.9,0,0,1,.36-1.31c.23-.64.45-1,.65-1.11a1.28,1.28,0,0,0,.51-.79,5.68,5.68,0,0,1,.93-1.56q.39-.16.69-1.08a2.32,2.32,0,0,1,.81-.74,1.84,1.84,0,0,0,.75-.85,7.42,7.42,0,0,1,1.52-1.74c.83-.79,1.45-1.18,1.83-1.18a1.14,1.14,0,0,0,.49-.19c.21-.13.4-.24.58-.33a2.42,2.42,0,0,0,.56-.46c.19-.21.34-.31.46-.31l.65.41a4.56,4.56,0,0,1,.87.54,1.57,1.57,0,0,0,.45.36,4.86,4.86,0,0,1,.85.72,2.5,2.5,0,0,1,.43,1.7c-.25.69-.38,1.07-.38,1.12s.17.28.51.5q.18.61.54,1.62l.24,1.45.05,3.4-.05.33a1.55,1.55,0,0,0-.24.54l.06.83-.17,1.16a1.3,1.3,0,0,1-.23.7.83.83,0,0,0-.2.42l-.13.33c0,.08-.09.32-.19.72a3.62,3.62,0,0,1-.32.94,2,2,0,0,0-.22.79,1.28,1.28,0,0,1-.22.66,1.3,1.3,0,0,0-.26.43A.9.9,0,0,1,417.12,228.2Zm-6.89,1.08.08.95.05.08h.35l.11.09a2.13,2.13,0,0,0,.67.16,1.23,1.23,0,0,0,1.09-.64c.28-.43.5-.64.66-.64s.3-.21.41-.63a2,2,0,0,1,.21-.62h.31l.09-.08a1.79,1.79,0,0,1,.45-1.37,2.24,2.24,0,0,0,.64-1.1,3.36,3.36,0,0,1,.44-1,2.31,2.31,0,0,0,.33-.94l.18-.5a1.66,1.66,0,0,0,.08-.62l.43-1.49a15.49,15.49,0,0,0,.13-1.62,1.87,1.87,0,0,0-.48-1.36A2.92,2.92,0,0,1,416,216a3.18,3.18,0,0,1,.52-1.77,3.49,3.49,0,0,0,.52-1c0-.17,0-.25-.14-.25a2.35,2.35,0,0,0-.51.33c-.1.39-.62.9-1.57,1.54a3.06,3.06,0,0,0-.51-.42c-.09,0-.18.17-.26.5a2.53,2.53,0,0,1-.27.7h-.29a2.09,2.09,0,0,0-.29.54c-.16.36-.37.54-.62.54l-.26.5a2.38,2.38,0,0,1-.44,1.37l-.25.54c-.15.33-.34.72-.57,1.16l-.4,1.86a7.7,7.7,0,0,0-.25,1.62,1.22,1.22,0,0,1-.3.52,1,1,0,0,0-.23.68,1.33,1.33,0,0,0,.16.42,1.38,1.38,0,0,1,.15.5l-.09.53L410,228Z" transform="translate(-47.35 -22.59)"/><path class="cls-2" d="M374,172.62l.61.3q.44.17.57.93a.79.79,0,0,1-.08.42c-.06.17-.12.34-.17.52-.43,1.42-1.1,2.21-2,2.36a2.62,2.62,0,0,1-1.46-.53,3.81,3.81,0,0,1-1.39-1.19,2.83,2.83,0,0,0-.54-.73.46.46,0,0,1-.2-.25,1.26,1.26,0,0,1,.12-.73,2.58,2.58,0,0,0,.2-1,1.17,1.17,0,0,1,.46-.93,2.57,2.57,0,0,0,.64-.65.8.8,0,0,1,.55-.36.79.79,0,0,1,.49.12,2.85,2.85,0,0,0,.71.3,2.46,2.46,0,0,1,1,.78Z" transform="translate(-47.35 -22.59)"/><path class="cls-2" d="M386.29,171.61l.55.41c.27.15.4.49.4,1a.84.84,0,0,1-.14.4,3.8,3.8,0,0,0-.26.49c-.67,1.32-1.46,2-2.36,2a2.72,2.72,0,0,1-1.36-.78,3.73,3.73,0,0,1-1.16-1.41,3,3,0,0,0-.4-.8.47.47,0,0,1-.16-.29,1.3,1.3,0,0,1,.24-.69A2.43,2.43,0,0,0,382,171a1.2,1.2,0,0,1,.62-.83,2.83,2.83,0,0,0,.74-.53.73.73,0,0,1,.6-.26.7.7,0,0,1,.46.2,4.09,4.09,0,0,0,.65.42,2.37,2.37,0,0,1,.85.93Z" transform="translate(-47.35 -22.59)"/><path class="cls-2" d="M403.17,171.63l.71.88c.37.36.44,1,.22,1.79a1.29,1.29,0,0,1-.4.58,5.76,5.76,0,0,0-.62.68q-2.46,2.76-4.62,2.19c-.46-.13-1.08-.73-1.84-1.82a6.37,6.37,0,0,1-1.28-2.75,4.68,4.68,0,0,0-.31-1.46.82.82,0,0,1-.13-.53,2.13,2.13,0,0,1,.69-1,4.51,4.51,0,0,0,1-1.35,1.94,1.94,0,0,1,1.34-1.07,4.51,4.51,0,0,0,1.4-.55,1.31,1.31,0,0,1,1.08-.16,1.18,1.18,0,0,1,.65.52,5.46,5.46,0,0,0,.87.94,4.1,4.1,0,0,1,1,1.86Z" transform="translate(-47.35 -22.59)"/><path class="cls-2" d="M416.51,179.86l.25.63a1.06,1.06,0,0,1-.17,1.07.77.77,0,0,1-.33.27,4.62,4.62,0,0,0-.48.28c-1.26.79-2.28.95-3,.48a2.68,2.68,0,0,1-.75-1.37,3.82,3.82,0,0,1-.27-1.81,2.93,2.93,0,0,0,.07-.9.45.45,0,0,1,0-.32,1.34,1.34,0,0,1,.56-.47,2.7,2.7,0,0,0,.8-.61,1.17,1.17,0,0,1,1-.39,2.87,2.87,0,0,0,.9-.08.76.76,0,0,1,.65.09.67.67,0,0,1,.29.41,4,4,0,0,0,.34.7,2.27,2.27,0,0,1,.24,1.24Z" transform="translate(-47.35 -22.59)"/><circle class="cls-13" cx="42.95" cy="42.51" r="16.9"/><path class="cls-3" d="M101.55,326.69c8.12,0,9.8,5.89,9.8,8.81,0,13.27-19.36,15.2-19.36,21.44,0,4.16,1.74,10.2,1.74,10.5,0,.59-1.14.44-1.49.44H85.66c-1.24,0-2.73.95-2.73-17.62,0-24.46,2.58-23.57,3.42-23.57Zm1.78,10.4c0-3.42-3-4.56-5.94-4.56-3.57,0-6.49.55-6.44,11.94,0,1.18.1,2.27,1.54,2.27C95.06,346.74,103.33,340.65,103.33,337.09Z" transform="translate(-47.35 -22.59)"/><path class="cls-2" d="M92.79,368.55H85.51a1.77,1.77,0,0,1-1.41-.45c-.88-.85-1.82-3-1.82-17.83,0-19,1.51-22.62,2.64-23.72a1.71,1.71,0,0,1,1.36-.5h15.27C109.8,326,112,332,112,335.5c0,8.25-7,12.26-12.68,15.48-3.58,2-6.68,3.8-6.68,6a46.26,46.26,0,0,0,1.52,9.46,5.87,5.87,0,0,1,.22,1,1,1,0,0,1-.31.73A1.84,1.84,0,0,1,92.79,368.55Zm-7.13-1.32h6.8a5.15,5.15,0,0,0,.56,0c0-.15-.08-.34-.13-.53a47.6,47.6,0,0,1-1.55-9.77c0-2.91,3.4-4.85,7.33-7.09,5.36-3.05,12-6.85,12-14.35,0-.83-.26-8.16-9.15-8.16H86.24a.46.46,0,0,0-.41.13c-.84.82-2.25,4.86-2.25,22.79,0,10.3.48,16,1.42,16.89.1.09.16.1.46.09Zm6.83-19.84c-2.19,0-2.19-2-2.19-2.92,0-6,.73-9.43,2.45-11.16,1.31-1.32,3-1.43,4.64-1.43,4.13,0,6.59,1.95,6.59,5.21,0,2.53-3.28,5.5-4.69,6.67C97.09,345.57,94.13,347.39,92.49,347.39Zm4.9-14.21c-1.46,0-2.75.08-3.72,1.05-1.41,1.42-2.09,4.77-2.07,10.23,0,1.49.25,1.63.89,1.63,2.4,0,10.19-5.95,10.19-9C102.68,333.56,99,333.18,97.39,333.18Z" transform="translate(-47.35 -22.59)"/><path class="cls-3" d="M116.25,367.88c-2.42,0-2.62,1-2.62-16.38,0-16.94.79-15.3,2.43-15.3h2.72c2.08,0,2.13.15,2.13.74,0,1.83-.6,3.66-.6,9.06a103,103,0,0,0,1.94,20.6c0,1.58-1.49,1.28-2.63,1.28Zm-2.07-38.81a3.83,3.83,0,0,1,7.62,0c0,2.13-1.83,3.26-3.81,3.26S114.18,331.2,114.18,329.07Z" transform="translate(-47.35 -22.59)"/><path class="cls-2" d="M120.59,368.56h-4.71a2.2,2.2,0,0,1-1.75-.46c-1-1-1.15-3.86-1.15-16.58,0-12.33.41-14.79,1.33-15.63a1.66,1.66,0,0,1,1.41-.34l.34,0h2.72c1.73,0,2.78,0,2.78,1.39a18.23,18.23,0,0,1-.19,2.28A51.89,51.89,0,0,0,121,346a101.53,101.53,0,0,0,1.78,19.72,5.65,5.65,0,0,1,.15.88,1.9,1.9,0,0,1-.53,1.42A2.43,2.43,0,0,1,120.59,368.56Zm-4.34-1.33h3.87c.51,0,1.14,0,1.35-.16a.75.75,0,0,0,.12-.48s-.06-.33-.11-.63a102,102,0,0,1-1.82-20,51.61,51.61,0,0,1,.42-6.94,18,18,0,0,0,.18-2.12v0a11.28,11.28,0,0,0-1.48-.06h-2.72a3.44,3.44,0,0,1-.46,0c-.22,0-.37,0-.41,0-.8.74-.91,7.83-.91,14.67,0,9.79,0,14.94.76,15.64.11.11.32.11.81.1ZM118,333c-2.22,0-4.47-1.35-4.47-3.92a4.48,4.48,0,0,1,8.93,0C122.45,331.64,120.21,333,118,333Zm0-6.69a2.9,2.9,0,0,0-3.16,2.77c0,1.8,1.58,2.61,3.16,2.61s3.16-.82,3.16-2.61A2.9,2.9,0,0,0,118,326.3Z" transform="translate(-47.35 -22.59)"/><path class="cls-3" d="M125.56,353.62c0-8.51,4.31-18.17,14.06-18.17,4.31,0,7.43,2.33,7.43,5.15,0,1.49-1.09,4.36-2.92,4.36-1.14,0-.94-3.66-4.95-3.66-5.1,0-6.93,6.73-6.93,10.89,0,4.8,2.28,8.81,7,8.81,5.35,0,6.58-4.9,7-4.9.25,0,.74.89.74,2.92,0,5.94-3.91,9.61-9.75,9.61C129,368.63,125.56,360.85,125.56,353.62Z" transform="translate(-47.35 -22.59)"/><path class="cls-2" d="M137.25,369.28c-8.52,0-12.34-7.86-12.34-15.66,0-9.06,4.61-18.82,14.71-18.82,4.61,0,8.08,2.5,8.08,5.8,0,1.75-1.22,5-3.57,5-.79,0-1.16-.69-1.51-1.37a3.44,3.44,0,0,0-3.44-2.29c-4.58,0-6.28,6.28-6.28,10.24s1.66,8.16,6.33,8.16a6.61,6.61,0,0,0,6-3.94c.32-.58.54-1,1-1,1,0,1.39,1.84,1.39,3.57C147.65,365.25,143.57,369.28,137.25,369.28Zm2.37-33.17c-9.21,0-13.41,9.08-13.41,17.51,0,7.15,3.42,14.36,11,14.36,5.61,0,9.1-3.44,9.1-9a8.19,8.19,0,0,0-.15-1.67,7.71,7.71,0,0,1-7,4.3c-4.64,0-7.63-3.71-7.63-9.46,0-4.46,2.06-11.55,7.58-11.55a4.72,4.72,0,0,1,4.59,3,3.63,3.63,0,0,0,.41.67c1.28-.06,2.22-2.45,2.22-3.71C146.4,338.08,143.42,336.11,139.62,336.11Z" transform="translate(-47.35 -22.59)"/><path class="cls-3" d="M162,347.29c1.43-.25,2.57-.5,2.57-2.13,0-2.53-2.62-3.86-4.8-3.86-5.05,0-4.31,4.25-5.4,4.25-1.58,0-3.32-1.93-3.32-4.06,0-3.66,4.11-6,8.67-6,1.58,0,8.37-.05,10.89,6.89,1,2.87,1.14,17.52,1.14,19.26,0,2.18.4,3.46.4,5.15,0,1-4.66,1.13-9.07,1.13-11.93,0-12.77-6.13-12.77-9.11C150.32,352.54,156.46,348.23,162,347.29Zm3.07,8.66c0-1.73.29-3.81-2.08-3.81-2.93,0-6,2.48-6,5.5,0,2.77,2.43,4.4,5.05,4.4,2.93,0,3-1.48,3-3.91Z" transform="translate(-47.35 -22.59)"/><path class="cls-2" d="M163.09,368.54c-8.78,0-13.42-3.38-13.42-9.77s6.3-11.12,12.23-12.13c1.6-.27,2-.49,2-1.48,0-2.22-2.43-3.21-4.15-3.21-3,0-3.59,1.56-4.06,2.82-.26.67-.54,1.44-1.34,1.44-2,0-4-2.29-4-4.72,0-3.81,4-6.69,9.32-6.69h0c7.28,0,10.26,4,11.47,7.31,1.15,3.17,1.18,19.32,1.18,19.49a22.19,22.19,0,0,0,.21,2.83,17.29,17.29,0,0,1,.19,2.32C172.81,368.15,170.72,368.54,163.09,368.54Zm-3.31-27.9c2.68,0,5.45,1.69,5.45,4.52,0,2.23-1.8,2.54-3.11,2.77h0c-5.4.92-11.14,5-11.14,10.84,0,2.1,0,8.46,12.12,8.46,1.88,0,7.49,0,8.41-.62a19.42,19.42,0,0,0-.17-2,23.59,23.59,0,0,1-.22-3c0-3.38-.19-16.52-1.1-19-1.07-2.95-3.72-6.45-10.25-6.45h0c-3.94,0-8,2-8,5.38,0,1.74,1.39,3.3,2.54,3.41a5,5,0,0,0,.25-.59C155,343,155.88,340.64,159.78,340.64Zm2.27,22.05c-2.76,0-5.7-1.77-5.7-5.05,0-3.52,3.51-6.15,6.65-6.15a2.67,2.67,0,0,1,2,.7c.8.82.78,2.11.76,3.25v2.69C165.73,360.37,165.73,362.69,162.05,362.69Zm.95-9.9c-2.47,0-5.34,2.12-5.34,4.85,0,2.46,2.21,3.75,4.39,3.75s2.37-.78,2.37-3.26V356c0-.17,0-.35,0-.53,0-.93,0-1.89-.39-2.31A1.38,1.38,0,0,0,163,352.79Z" transform="translate(-47.35 -22.59)"/><path class="cls-3" d="M192,367.88c-.64,0-1.73.15-1.73-.79A60.13,60.13,0,0,0,192.8,350c0-3.51-.29-7.92-3.66-7.92-1.88,0-5.74,1.24-5.74,11,0,5.94,1.43,13.57,1.43,14.16s-.84.64-1.34.64h-4.2c-1.84,0-2.58.85-2.58-12.22,0-22.43,1.73-21.05,5.55-21.05,1.73,0,3.51-.25,3.51.89,0,.5-.44,1.09-.44,1.79,0,.49.24.94.74.94.84,0,3.12-2,6.29-2,1.38,0,7.13.19,7.13,13.22,0,19.45-1.54,18.46-3.22,18.46Z" transform="translate(-47.35 -22.59)"/><path class="cls-2" d="M178.71,368.55a1.79,1.79,0,0,1-1.37-.48c-.89-.85-1.28-2.85-1.28-12.41,0-15.56.84-19.34,2.4-20.86a4,4,0,0,1,3.18-.85H183c1.27,0,2.36-.05,3,.55a1.37,1.37,0,0,1,.4,1,2.93,2.93,0,0,1-.23,1,2.32,2.32,0,0,0-.21.81.49.49,0,0,0,.07.29,5.3,5.3,0,0,0,1-.48,11.27,11.27,0,0,1,5.26-1.55c2.9,0,7.78,1.8,7.78,13.87,0,13.86-.78,17.45-1.95,18.59a2.14,2.14,0,0,1-1.71.53h-4.69a2.41,2.41,0,0,1-1.77-.44,1.38,1.38,0,0,1-.39-1,4.49,4.49,0,0,1,.24-1,56.81,56.81,0,0,0,2.28-16.1c0-3.59-.36-7.27-3-7.27-1.53,0-5.09,1-5.09,10.39a90.72,90.72,0,0,0,1.22,12.54,16.26,16.26,0,0,1,.21,1.62,1.18,1.18,0,0,1-.34.87,2.17,2.17,0,0,1-1.56.43h-4.87Zm2.38-33.3a2.2,2.2,0,0,0-1.72.48c-1.44,1.41-2,7-2,19.93,0,5.51.11,10.73.89,11.48.11.11.28.11.7.1h4.64a2.36,2.36,0,0,0,.59,0c0-.21-.11-.79-.2-1.39a92.48,92.48,0,0,1-1.24-12.73c0-10.55,4.48-11.69,6.4-11.69,4.31,0,4.31,6,4.31,8.57a57.65,57.65,0,0,1-2.33,16.45c-.08.3-.17.6-.19.71a.15.15,0,0,0,0,.06,2.53,2.53,0,0,0,.82.06h4.76c.43,0,.6,0,.77-.17,1.05-1,1.55-6.63,1.55-17.65,0-8.11-2.31-12.57-6.48-12.57a9.91,9.91,0,0,0-4.66,1.41,4,4,0,0,1-1.63.62,1.46,1.46,0,0,1-1.4-1.59A3.49,3.49,0,0,1,185,336a2.14,2.14,0,0,0,.15-.52s0-.06,0-.07a5,5,0,0,0-2-.18h-2Z" transform="translate(-47.35 -22.59)"/><path class="cls-3" d="M215.63,330c0,1.33-1.49,4.35-1.49,4.95,0,.89.25,1.48,1,1.48s1.24-.24,1.88-.24c1.89,0,1.94,1.33,1.94,3,0,.69,0,2.57-1,2.57a18.91,18.91,0,0,0-2.28-.44c-2.72,0-2.72,3.17-2.72,7.57,0,13.17,2.77,15.35,2.77,16.19s-5.75,3.52-6.88,3.52c-1.89,0-2.38-11-2.38-13.77,0-6.09.3-8.46.3-9.4,0-1.49.44-4.11-1.79-4.11-.89,0-1.38.59-1.93.59s-.59-.64-.59-1.53c0-3.77,1.09-4.21,3-4.21a7.56,7.56,0,0,0,.94.19c1.54,0,1.68-2.42,1.93-4.15C208.5,330.35,214,329,215,329,215.38,329,215.63,329.07,215.63,330Z" transform="translate(-47.35 -22.59)"/><path class="cls-2" d="M208.8,369.28c-.94,0-1.89-.78-2.55-6.44-.35-3.06-.48-6.52-.48-8,0-4.39.15-6.9.24-8.25,0-.53.05-.91.05-1.15s0-.44,0-.69c0-.86.08-2-.37-2.52a1,1,0,0,0-.78-.25,1.94,1.94,0,0,0-.91.28,2.19,2.19,0,0,1-1,.31,1.16,1.16,0,0,1-.85-.33,2.21,2.21,0,0,1-.39-1.68v-.17c0-4.07,1.33-4.86,3.62-4.86a1.71,1.71,0,0,1,.51.1,1.44,1.44,0,0,0,.43.09c.75,0,1-1.38,1.21-3.05,0-.19.05-.37.08-.55.33-2.54,6.65-3.82,7.42-3.82,1.25,0,1.25,1.23,1.25,1.69a12.57,12.57,0,0,1-1,3.57,11.07,11.07,0,0,0-.49,1.4c0,.81.22.81.34.81a4.12,4.12,0,0,0,.82-.11,5,5,0,0,1,1.06-.13c2.59,0,2.59,2.12,2.59,3.67,0,.8,0,3.22-1.69,3.22a3.65,3.65,0,0,1-.9-.18,5.43,5.43,0,0,0-1.38-.26c-2,0-2.07,2.37-2.07,6.92,0,10.36,1.75,13.84,2.41,15.15a2.35,2.35,0,0,1,.36,1c0,.35,0,.94-3.38,2.62C212.44,368,209.8,369.28,208.8,369.28Zm-3.87-28.59a2.25,2.25,0,0,1,1.71.66c.84.87.79,2.31.74,3.47,0,.23,0,.44,0,.64s0,.66-.06,1.23c-.08,1.33-.24,3.82-.24,8.17,0,4.72.76,12.42,1.77,13.11a21.29,21.29,0,0,0,6.14-3l-.18-.36c-.76-1.51-2.55-5.06-2.55-15.73,0-4.59,0-8.23,3.38-8.23a6.57,6.57,0,0,1,1.74.32,4.39,4.39,0,0,0,.54.13s.38,0,.38-1.92-.19-2.37-1.28-2.37a4.12,4.12,0,0,0-.81.11,5,5,0,0,1-1.07.14c-.61,0-1.64-.28-1.64-2.14a6.93,6.93,0,0,1,.57-1.85A12.5,12.5,0,0,0,215,330a1.73,1.73,0,0,0,0-.39c-1.26.07-5.9,1.5-6,2.7,0,.18-.05.36-.08.54-.23,1.77-.55,4.19-2.5,4.19a2.53,2.53,0,0,1-.82-.16l-.15,0c-1.38,0-2.29,0-2.29,3.56v.18c0,.22,0,.51,0,.68a2.22,2.22,0,0,0,.36-.16A3.26,3.26,0,0,1,204.93,340.69Zm10.15,24.21Z" transform="translate(-47.35 -22.59)"/><path class="cls-3" d="M224.64,367.88c-2.43,0-2.62,1-2.62-16.38,0-16.94.79-15.3,2.42-15.3h2.73c2.07,0,2.12.15,2.12.74,0,1.83-.59,3.66-.59,9.06a103.5,103.5,0,0,0,1.93,20.6c0,1.58-1.48,1.28-2.62,1.28Zm-2.08-38.81a3.84,3.84,0,0,1,7.63,0c0,2.13-1.84,3.26-3.82,3.26S222.56,331.2,222.56,329.07Z" transform="translate(-47.35 -22.59)"/><path class="cls-2" d="M229,368.56h-4.71a2.2,2.2,0,0,1-1.75-.46c-1.06-1-1.16-3.86-1.16-16.58,0-12.33.42-14.79,1.34-15.63a1.65,1.65,0,0,1,1.4-.34l.34,0h2.73c1.73,0,2.78,0,2.78,1.39a20.35,20.35,0,0,1-.19,2.28,51.39,51.39,0,0,0-.41,6.78,101.19,101.19,0,0,0,1.79,19.72,5,5,0,0,1,.14.88,1.9,1.9,0,0,1-.52,1.42A2.46,2.46,0,0,1,229,368.56Zm-4.34-1.33h3.86c.51,0,1.14,0,1.35-.16a.7.7,0,0,0,.13-.48s-.06-.33-.12-.63a102.32,102.32,0,0,1-1.81-20,51.61,51.61,0,0,1,.42-6.94,20.15,20.15,0,0,0,.17-2.12v0a11.09,11.09,0,0,0-1.47-.06h-2.73a3.19,3.19,0,0,1-.45,0c-.23,0-.37,0-.41,0-.8.74-.91,7.83-.91,14.67,0,9.79,0,14.94.76,15.64.1.11.32.11.81.1ZM226.37,333c-2.21,0-4.46-1.35-4.46-3.92a4.48,4.48,0,0,1,8.93,0C230.84,331.64,228.59,333,226.37,333Zm0-6.69a2.9,2.9,0,0,0-3.16,2.77c0,1.8,1.59,2.61,3.16,2.61s3.16-.82,3.16-2.61A2.9,2.9,0,0,0,226.37,326.3Z" transform="translate(-47.35 -22.59)"/><path class="cls-3" d="M234,353.62c0-8.51,4.31-18.17,14.06-18.17,4.31,0,7.43,2.33,7.43,5.15,0,1.49-1.09,4.36-2.92,4.36-1.14,0-.94-3.66-5-3.66-5.09,0-6.93,6.73-6.93,10.89,0,4.8,2.28,8.81,7,8.81,5.35,0,6.59-4.9,7-4.9.25,0,.75.89.75,2.92,0,5.94-3.91,9.61-9.76,9.61C237.41,368.63,234,360.85,234,353.62Z" transform="translate(-47.35 -22.59)"/><path class="cls-2" d="M245.63,369.28c-8.52,0-12.33-7.86-12.33-15.66,0-9.06,4.6-18.82,14.71-18.82,4.61,0,8.08,2.5,8.08,5.8,0,1.75-1.23,5-3.57,5-.79,0-1.16-.69-1.52-1.37a3.43,3.43,0,0,0-3.44-2.29c-4.57,0-6.28,6.28-6.28,10.24s1.67,8.16,6.33,8.16a6.59,6.59,0,0,0,6-3.94c.33-.58.55-1,1-1,1,0,1.4,1.84,1.4,3.57C256,365.25,252,369.28,245.63,369.28ZM248,336.11c-9.21,0-13.41,9.08-13.41,17.51,0,7.15,3.41,14.36,11,14.36,5.62,0,9.11-3.44,9.11-9a7.41,7.41,0,0,0-.16-1.67,7.68,7.68,0,0,1-7,4.3c-4.63,0-7.63-3.71-7.63-9.46,0-4.46,2.06-11.55,7.58-11.55a4.75,4.75,0,0,1,4.6,3,4.35,4.35,0,0,0,.4.67c1.29-.06,2.23-2.45,2.23-3.71C254.79,338.08,251.81,336.11,248,336.11Z" transform="translate(-47.35 -22.59)"/><path class="cls-3" d="M258.11,352c0-8,3.81-16.54,12.43-16.54S283,344,283,352c0,11.64-6.74,16.64-12.43,16.64S258.11,363.63,258.11,352Zm18.72-1.24c0-3.91-1.39-9.45-6.29-9.45s-6.29,5.54-6.29,9.45,1.29,9.61,6.29,9.61S276.83,354.71,276.83,350.75Z" transform="translate(-47.35 -22.59)"/><path class="cls-2" d="M270.54,369.28a11.91,11.91,0,0,1-8.84-4.18c-2.77-3.13-4.24-7.66-4.24-13.11,0-8.28,4.09-17.19,13.08-17.19s13.08,8.91,13.08,17.19c0,5.45-1.47,10-4.24,13.11A11.91,11.91,0,0,1,270.54,369.28Zm0-33.17c-8.09,0-11.78,8.23-11.78,15.88,0,11,6.11,16,11.78,16s11.78-5,11.78-16C282.32,344.34,278.63,336.11,270.54,336.11Zm0,24.9c-5.12,0-6.94-5.3-6.94-10.26,0-4.66,1.82-10.11,6.94-10.11s6.94,5.45,6.94,10.11C277.48,355.71,275.66,361,270.54,361Zm0-19.06c-5.48,0-5.64,7.9-5.64,8.8,0,1.5.27,9,5.64,9s5.64-7.46,5.64-9C276.18,349.85,276,342,270.54,342Z" transform="translate(-47.35 -22.59)"/><path class="cls-3" d="M311.69,347.29c1.43-.25,2.57-.5,2.57-2.13,0-2.53-2.62-3.86-4.8-3.86-5,0-4.31,4.25-5.4,4.25-1.58,0-3.32-1.93-3.32-4.06,0-3.66,4.11-6,8.67-6,1.58,0,8.37-.05,10.89,6.89,1,2.87,1.14,17.52,1.14,19.26,0,2.18.4,3.46.4,5.15,0,1-4.66,1.13-9.07,1.13-11.93,0-12.77-6.13-12.77-9.11C300,352.54,306.14,348.23,311.69,347.29Zm3.06,8.66c0-1.73.3-3.81-2.07-3.81-2.93,0-6,2.48-6,5.5,0,2.77,2.43,4.4,5.05,4.4,2.93,0,3-1.48,3-3.91Z" transform="translate(-47.35 -22.59)"/><path class="cls-2" d="M312.77,368.54c-8.78,0-13.42-3.38-13.42-9.77s6.3-11.12,12.23-12.13c1.6-.27,2-.49,2-1.48,0-2.22-2.43-3.21-4.15-3.21-3,0-3.59,1.56-4.06,2.82-.26.67-.54,1.44-1.34,1.44-2,0-4-2.29-4-4.72,0-3.81,4-6.69,9.32-6.69h0c7.28,0,10.26,4,11.47,7.31,1.15,3.17,1.18,19.32,1.18,19.49a22.19,22.19,0,0,0,.21,2.83,17.29,17.29,0,0,1,.19,2.32C322.49,368.15,320.4,368.54,312.77,368.54Zm-3.31-27.9c2.68,0,5.45,1.69,5.45,4.52,0,2.23-1.8,2.54-3.11,2.77h0c-5.4.92-11.14,5-11.14,10.84,0,2.1,0,8.46,12.12,8.46,1.88,0,7.49,0,8.41-.62a19.42,19.42,0,0,0-.17-2,23.59,23.59,0,0,1-.22-3c0-3.38-.19-16.52-1.1-19-1.07-2.95-3.72-6.45-10.25-6.45h0c-3.94,0-8,2-8,5.38,0,1.74,1.39,3.3,2.54,3.41a5,5,0,0,0,.25-.59C304.66,343,305.56,340.64,309.46,340.64Zm2.27,22.05c-2.76,0-5.7-1.77-5.7-5.05,0-3.52,3.51-6.15,6.65-6.15a2.67,2.67,0,0,1,2,.7c.8.82.78,2.11.76,3.25v2.69C315.41,360.37,315.41,362.69,311.73,362.69Zm.95-9.9c-2.47,0-5.34,2.12-5.34,4.85,0,2.46,2.21,3.75,4.39,3.75s2.37-.78,2.37-3.26V356c0-.17,0-.35,0-.53,0-.93,0-1.89-.39-2.31A1.38,1.38,0,0,0,312.68,352.79Z" transform="translate(-47.35 -22.59)"/><path class="cls-3" d="M334.81,325.65c.44,0,.79.55.79,1,0,.69-1.88,5.55-1.88,9.51,0,.59,0,1.53.84,1.53a6.9,6.9,0,0,0,2.28-1.09,9,9,0,0,1,4.16-1.19c4.5,0,7.82,3.22,7.82,15.15,0,4.76-.69,17.28-2.23,17.28h-5.15c-.44,0-1.78.15-1.78-.64,0-.35,2.48-10.15,2.48-16.73,0-7.68-1.29-9.21-3.72-9.21-5.05,0-5.15,7.72-5.15,11.24,0,9.9,1.09,13.12,1.09,14.55,0,.79-.94.79-1.43.79H328c-1.44,0-1.44,1.69-1.44-20.3,0-4,.1-21.93,2.82-21.93Z" transform="translate(-47.35 -22.59)"/><path class="cls-2" d="M327.53,368.57a1.09,1.09,0,0,1-.77-.28c-.82-.75-.82-2.26-.82-20.71,0-2.67.05-7.84.39-12.5.65-8.86,1.86-10.08,3.08-10.08h5.4a1.61,1.61,0,0,1,1.44,1.69,8.12,8.12,0,0,1-.42,1.75,30.54,30.54,0,0,0-1.46,7.76c0,.19,0,.77.12.87h.07a10.34,10.34,0,0,0,1.95-1l0,0A9.68,9.68,0,0,1,341,334.8c5.78,0,8.47,5,8.47,15.8,0,2.39-.17,6.69-.54,10.49-.67,6.87-1.52,7.45-2.34,7.45h-5.32a2.62,2.62,0,0,1-1.91-.45,1.15,1.15,0,0,1-.35-.85,8.71,8.71,0,0,1,.24-1.24c.61-2.79,2.23-10.21,2.23-15.49,0-7.92-1.38-8.56-3.06-8.56-4,0-4.5,6-4.5,10.59a76.17,76.17,0,0,0,.88,12.76,12.29,12.29,0,0,1,.21,1.79c0,1-.7,1.45-2.08,1.45H327.8Zm1.88-42.27c-.87.28-2.17,6.18-2.17,21.28,0,13.42,0,18.75.37,19.68h.07l.35,0h4.9a1.62,1.62,0,0,0,.78-.1v0a12.89,12.89,0,0,0-.19-1.59,75.48,75.48,0,0,1-.9-13,27.68,27.68,0,0,1,.71-7.12c1.09-3.95,3.37-4.78,5.09-4.78,3.23,0,4.37,2.59,4.37,9.87,0,5.42-1.65,12.94-2.27,15.77l-.19.9a3.21,3.21,0,0,0,.9.06h5.22c1-1.21,1.72-10.8,1.72-16.63,0-12.85-3.83-14.49-7.17-14.49a8.29,8.29,0,0,0-3.85,1.1,6.19,6.19,0,0,1-2.59,1.17c-1.49,0-1.49-1.64-1.49-2.18a31.1,31.1,0,0,1,1.51-8.12,14,14,0,0,0,.37-1.4.54.54,0,0,0-.17-.38Z" transform="translate(-47.35 -22.59)"/><path class="cls-3" d="M374.17,336.2c2.08,0,2.13,10.39,2.13,15.1,0,18.17-1.29,17.33-4.85,17.33-5.2,0-1.24-2.78-4.06-2.78-.45,0-1.59,1-2.48,1.64a6.72,6.72,0,0,1-3.66,1.14c-4.11,0-7.92-2.58-7.92-16.74,0-.84.34-15.69,2.42-15.69h4.56c.64,0,2-.25,2,.74A49.61,49.61,0,0,0,360,352c0,2.77-.05,10.3,4.21,10.3,1.63,0,5.4-.5,5.4-11.14,0-5.94-1.74-13.57-1.74-14.36s1.14-.59,1.69-.59Z" transform="translate(-47.35 -22.59)"/><path class="cls-2" d="M372.29,369.28h-.84c-1.62,0-2.58-.25-3.12-.81a2,2,0,0,1-.45-1.57,1.92,1.92,0,0,0,0-.33,1.32,1.32,0,0,0-.46-.06,7.18,7.18,0,0,0-1.18.81c-.33.24-.66.5-1,.71a7.4,7.4,0,0,1-4,1.25c-5.93,0-8.58-5.36-8.58-17.39,0-.42.09-4.37.44-8.22.61-6.74,1.5-8.12,2.64-8.12h4.56l.3,0a2.54,2.54,0,0,1,1.93.43,1.3,1.3,0,0,1,.4,1,5.29,5.29,0,0,1-.31,1.29,45.16,45.16,0,0,0-2,13.76v.1a27.13,27.13,0,0,0,.51,6c.85,3.54,2.5,3.54,3.05,3.54,3.15,0,4.74-3.53,4.74-10.49a77.37,77.37,0,0,0-1.41-12.31,18.47,18.47,0,0,1-.32-2,1.08,1.08,0,0,1,.32-.78,2.73,2.73,0,0,1,1.91-.46h4.71c2,0,2.78,4.26,2.78,15.75s-.49,15.66-2,17.17A3.44,3.44,0,0,1,372.29,369.28Zm-4.9-4.08a2,2,0,0,1,1.45.47,1.63,1.63,0,0,1,.35,1.29c0,.34,0,.5.08.61s.57.41,2.18.41h.46c1.09,0,1.68,0,2.11-.44,1.19-1.17,1.63-5.57,1.63-16.24,0-1.85,0-5.68-.26-8.91-.39-5-1.15-5.51-1.23-5.54h-4.71a4.08,4.08,0,0,0-.9.06c0,.3.15,1,.28,1.71a77.94,77.94,0,0,1,1.44,12.53c0,7.82-2,11.79-6,11.79-1.47,0-3.42-.79-4.32-4.53a28.61,28.61,0,0,1-.54-6.32V352a46.69,46.69,0,0,1,2-14.14c.12-.4.25-.81.26-.92a.12.12,0,0,0,0-.05,2.61,2.61,0,0,0-.95,0h-4.86c-.17.15-.93,1.19-1.46,7.45-.31,3.65-.38,7.21-.38,7.59,0,14.26,3.88,16.09,7.27,16.09a6.06,6.06,0,0,0,3.32-1.05c.26-.17.58-.41.89-.65C366.36,365.59,366.9,365.2,367.39,365.2Z" transform="translate(-47.35 -22.59)"/><path class="cls-3" d="M383.58,367.88c-1.68,0-2.72,1.59-2.72-13.07,0-20.84-.65-20.2,6.09-20.2,1,0,2.13.05,2.13.79s-.6,1.54-.6,2.23a.94.94,0,0,0,1,.84c.6,0,1.29-.59,2.38-1.13a9.34,9.34,0,0,1,4.65-1.14c2.43,0,4,2.27,5.25,2.27a5.5,5.5,0,0,0,2.92-.89,9.36,9.36,0,0,1,4.56-1.38c9.11,0,8.91,11.93,8.91,18.27,0,15.1-1.88,13.41-3.32,13.41h-3.36c-.5,0-1.89.1-1.89-.79s1.89-6.33,1.89-14.6c0-9.46-3.37-10.45-5.25-10.45s-3.37-.15-3.37,8c0,17.78-.25,17.82-1.83,17.82h-4.46c-.94,0-1.73.2-1.73-.49s1.88-10.7,1.88-15.4c0-3,0-9.95-4.06-9.95-3.71,0-5.1,4.55-5.1,11.93,0,9.95,1.39,11.83,1.39,13.22,0,.84-.89.69-1.44.69Z" transform="translate(-47.35 -22.59)"/><path class="cls-2" d="M415.63,368.59c-.17,0-.34,0-.48,0l-.33,0h-3.49a2.88,2.88,0,0,1-2-.52,1.25,1.25,0,0,1-.38-.93,9.37,9.37,0,0,1,.31-1.61,55.73,55.73,0,0,0,1.57-13c0-4.47-.79-9.8-4.59-9.8h-.1c-.7,0-1.12,0-1.46.36-.77.77-1.16,3.13-1.16,7,0,8.52-.05,13.28-.32,15.65-.26,2.19-.74,2.83-2.16,2.83h-4.95a2,2,0,0,1-1.56-.33,1.09,1.09,0,0,1-.33-.83c0-.25.11-.95.38-2.64a106.16,106.16,0,0,0,1.5-12.76c0-2.78,0-9.3-3.41-9.3-3,0-4.45,3.69-4.45,11.28,0,7.17.73,10.1,1.12,11.67a6.55,6.55,0,0,1,.27,1.55,1.23,1.23,0,0,1-.38,1,1.91,1.91,0,0,1-1.51.39h-4.11l-.39,0a1.9,1.9,0,0,1-1.57-.38c-.94-.86-1.42-3.16-1.42-13.37v-5c0-10,0-13.33,1.49-14.87,1-1,2.46-1,4.67-1H387c1,0,2.78,0,2.78,1.44a3.84,3.84,0,0,1-.32,1.26,3.48,3.48,0,0,0-.28,1c0,.08.16.19.34.19a3.25,3.25,0,0,0,1-.49c.3-.18.64-.38,1-.58a10,10,0,0,1,4.94-1.2,6.82,6.82,0,0,1,3.86,1.53,3.63,3.63,0,0,0,1.39.74,5,5,0,0,0,2.59-.8,10,10,0,0,1,4.89-1.47c4.18,0,7,2.35,8.42,7,1.15,3.75,1.14,8.25,1.14,11.53v.4c0,10.51-.89,12.77-1.86,13.65A1.86,1.86,0,0,1,415.63,368.59Zm-4.17-1.36h3.36c.16,0,.32,0,.46,0,.42.05.6.05.77-.11,1-.86,1.44-5.13,1.44-12.68v-.4c0-3.2,0-7.58-1.08-11.16-1.24-4.08-3.59-6.06-7.18-6.06a8.67,8.67,0,0,0-4.24,1.3,6.25,6.25,0,0,1-3.24,1,4,4,0,0,1-2.13-1,5.65,5.65,0,0,0-3.12-1.3,8.77,8.77,0,0,0-4.34,1.06c-.38.19-.7.38-1,.54a3.49,3.49,0,0,1-1.71.68,1.58,1.58,0,0,1-1.64-1.5,4,4,0,0,1,.36-1.42,4.15,4.15,0,0,0,.23-.78,3.28,3.28,0,0,0-1.47-.17h-.59c-1.95,0-3.13,0-3.75.61-1.15,1.15-1.14,4.9-1.11,13.95,0,1.51,0,3.17,0,5,0,4.94.1,11.59,1,12.41.08.07.2.08.57,0,.15,0,.33,0,.51,0h4.15a3.13,3.13,0,0,0,.54,0v0A5.82,5.82,0,0,0,388,366c-.4-1.63-1.15-4.66-1.15-12,0-8.47,1.88-12.58,5.75-12.58,4.71,0,4.71,7.43,4.71,10.6a103.69,103.69,0,0,1-1.52,13c-.15,1-.3,1.93-.35,2.3H396l.55,0H401c.51,0,.67,0,.86-1.67.27-2.29.32-7.22.32-15.5,0-4.48.46-6.85,1.54-7.93a3.08,3.08,0,0,1,2.39-.74h.09c2.69,0,5.9,1.92,5.9,11.1a56.88,56.88,0,0,1-1.61,13.28,11.14,11.14,0,0,0-.27,1.32c0,.07.3.15,1.08.14Z" transform="translate(-47.35 -22.59)"/><path class="cls-3" d="M433.74,347.29c1.43-.25,2.57-.5,2.57-2.13,0-2.53-2.62-3.86-4.8-3.86-5.05,0-4.31,4.25-5.4,4.25-1.58,0-3.31-1.93-3.31-4.06,0-3.66,4.1-6,8.66-6,1.58,0,8.37-.05,10.89,6.89,1,2.87,1.14,17.52,1.14,19.26,0,2.18.4,3.46.4,5.15,0,1-4.66,1.13-9.06,1.13-11.94,0-12.78-6.13-12.78-9.11C422.05,352.54,428.19,348.23,433.74,347.29Zm3.07,8.66c0-1.73.29-3.81-2.08-3.81-2.92,0-6,2.48-6,5.5,0,2.77,2.42,4.4,5.05,4.4,2.92,0,3-1.48,3-3.91Z" transform="translate(-47.35 -22.59)"/><path class="cls-2" d="M434.83,368.54c-8.79,0-13.43-3.38-13.43-9.77s6.3-11.12,12.23-12.13c1.6-.27,2-.49,2-1.48,0-2.22-2.43-3.21-4.15-3.21-3,0-3.59,1.56-4.06,2.82-.25.67-.54,1.44-1.34,1.44-2,0-4-2.29-4-4.72,0-3.81,4-6.69,9.32-6.69h0c7.27,0,10.25,4,11.46,7.31,1.15,3.17,1.18,19.32,1.18,19.49a20.36,20.36,0,0,0,.22,2.83,19.14,19.14,0,0,1,.18,2.32C444.54,368.15,442.45,368.54,434.83,368.54Zm-3.32-27.9c2.68,0,5.45,1.69,5.45,4.52,0,2.23-1.8,2.54-3.11,2.77h0c-5.41.92-11.15,5-11.15,10.84,0,2.1,0,8.46,12.13,8.46,1.87,0,7.48,0,8.41-.62a17,17,0,0,0-.18-2,23.59,23.59,0,0,1-.22-3c0-3.38-.19-16.52-1.1-19-1.07-2.95-3.72-6.45-10.24-6.45h0c-3.94,0-8,2-8,5.38,0,1.74,1.38,3.3,2.54,3.41a5.1,5.1,0,0,0,.24-.59C426.71,343,427.61,340.64,431.51,340.64Zm2.28,22.05c-2.77,0-5.7-1.77-5.7-5.05,0-3.52,3.5-6.15,6.64-6.15a2.67,2.67,0,0,1,2,.7c.81.82.78,2.11.76,3.25v2.69C437.46,360.37,437.46,362.69,433.79,362.69Zm.94-9.9c-2.47,0-5.34,2.12-5.34,4.85,0,2.46,2.21,3.75,4.4,3.75s2.37-.78,2.37-3.26v-2.71c0-.93,0-1.89-.39-2.31A1.36,1.36,0,0,0,434.73,352.79Z" transform="translate(-47.35 -22.59)"/><path class="cls-3" d="M457.6,367.88c-5.54,0-10.39-4.9-10.39-14.9,0-11.34,7.52-17.53,11.88-17.53,1,0,2.13,1.14,2.82,1.14,1,0,1.14-1.78,1.14-2.57,0-4-1.24-5.79-1.24-7.68,0-.69,1.24-.69,1.73-.69h5.15c2.23,0,2,22.18,2,24.51,0,1.14.2,17.72-1.53,17.72ZM464,349.47c0-8.72-1.34-9.31-3.17-9.31-2.13,0-7,2.77-7,11.78,0,3.42,1.29,8.72,5.5,8.72C464.73,360.66,464,353,464,349.47Z" transform="translate(-47.35 -22.59)"/><path class="cls-2" d="M469.19,368.54H457.6a9.7,9.7,0,0,1-7.79-4c-2.13-2.76-3.26-6.78-3.26-11.6A20.74,20.74,0,0,1,451,339.55c2.4-2.93,5.49-4.75,8.08-4.75a4.14,4.14,0,0,1,2,.75,3.16,3.16,0,0,0,.8.39c.19,0,.49-.77.49-1.92a17.78,17.78,0,0,0-.77-5.1,9.86,9.86,0,0,1-.47-2.58c0-1.34,1.79-1.34,2.38-1.34h5.15a1.07,1.07,0,0,1,.77.34c.49.49,2,2,1.92,24.27v.89c.09,16.14-1.1,17.34-1.49,17.73A1,1,0,0,1,469.19,368.54Zm-10.1-32.43c-2.17,0-4.95,1.67-7.07,4.27a19.42,19.42,0,0,0-4.16,12.6c0,8.66,3.82,14.25,9.74,14.25H469c.25-.43,1.13-3,1.05-16.73v-.89c.07-19.9-1.15-22.87-1.49-23.31h-5a2.58,2.58,0,0,0-1.08.13,9.3,9.3,0,0,0,.43,2.14,19,19,0,0,1,.81,5.45c0,2-.67,3.22-1.79,3.22a3,3,0,0,1-1.46-.57A3.39,3.39,0,0,0,459.09,336.11Zm.3,25.2c-4.86,0-6.15-5.89-6.15-9.37,0-9.39,5.14-12.43,7.63-12.43s3.82,1.49,3.82,10c0,.33,0,.71,0,1.11.05,2.89.13,7.27-2,9.43A4.47,4.47,0,0,1,459.39,361.31Zm1.48-20.5c-2,0-6.33,2.8-6.33,11.13,0,2.79,1,8.06,4.85,8.06a3.13,3.13,0,0,0,2.38-.91c1.74-1.77,1.68-5.81,1.63-8.49,0-.41,0-.79,0-1.13C463.39,340.81,462.05,340.81,460.87,340.81Z" transform="translate(-47.35 -22.59)"/><path class="cls-3" d="M474,352c0-8,3.81-16.54,12.43-16.54S498.9,344,498.9,352c0,11.64-6.74,16.64-12.43,16.64S474,363.63,474,352Zm18.72-1.24c0-3.91-1.39-9.45-6.29-9.45s-6.29,5.54-6.29,9.45,1.29,9.61,6.29,9.61S492.76,354.71,492.76,350.75Z" transform="translate(-47.35 -22.59)"/><path class="cls-2" d="M486.47,369.28a11.91,11.91,0,0,1-8.84-4.18c-2.77-3.13-4.24-7.66-4.24-13.11,0-8.28,4.09-17.19,13.08-17.19s13.08,8.91,13.08,17.19c0,5.45-1.47,10-4.24,13.11A11.91,11.91,0,0,1,486.47,369.28Zm0-33.17c-8.09,0-11.78,8.23-11.78,15.88,0,11,6.11,16,11.78,16s11.78-5,11.78-16C498.25,344.34,494.56,336.11,486.47,336.11Zm0,24.9c-5.12,0-6.94-5.3-6.94-10.26,0-4.66,1.82-10.11,6.94-10.11s6.94,5.45,6.94,10.11C493.41,355.71,491.59,361,486.47,361Zm0-19.06c-5.48,0-5.64,7.9-5.64,8.8,0,1.5.27,9,5.64,9s5.64-7.46,5.64-9C492.11,349.85,492,342,486.47,342Z" transform="translate(-47.35 -22.59)"/><path class="cls-14" d="M465.06,102.21h-4c-23,0-41.63-19.79-41.63-44.2a44.4,44.4,0,0,1,32.42,14.26A49.8,49.8,0,0,1,465.06,102.21Z" transform="translate(-47.35 -22.59)"/><path class="cls-15" d="M460.87,85.52c-23.42,0-42.74-18.65-45.51-42.72h5.27C442.85,42.79,460.87,61.92,460.87,85.52Z" transform="translate(-47.35 -22.59)"/><path class="cls-16" d="M479.16,77.61a3.53,3.53,0,0,1-.73,1.47,22.78,22.78,0,0,1-4.61,4.51,11.23,11.23,0,0,1-2.91,1.59,10.27,10.27,0,0,1-3.46.59,10,10,0,0,1-3.51-.59,7.69,7.69,0,0,1-2.48-1.51q-2.32-2.1-2.32-6.22a24.32,24.32,0,0,1,1-6.36,39.16,39.16,0,0,1,1.22-3.74h1.81a31.47,31.47,0,0,0-1.4,4.39,23.41,23.41,0,0,0-.69,5.51,7.38,7.38,0,0,0,.75,3.34,5.88,5.88,0,0,0,5.45,3.3,10.42,10.42,0,0,0,5.4-1.42,27.38,27.38,0,0,0,4.8-3.67c.05-.06.24-.36.57-.92s.57-.84.73-.84a.39.39,0,0,1,.33.12A1,1,0,0,1,479.16,77.61Z" transform="translate(-47.35 -22.59)"/><path class="cls-16" d="M472.76,63.18a3.91,3.91,0,0,1-.27,1.4,5.93,5.93,0,0,1-.59,1.21c-.22.32-.38.49-.49.49s-.33-.13-.33-.37a2.27,2.27,0,0,1,.15-.55,2.5,2.5,0,0,0,.14-.72,6.94,6.94,0,0,0-.25-1.91,2.39,2.39,0,0,0-.81-1.29,2.07,2.07,0,0,0-1.35-.51c-1.95,0-3.79,1.89-5.5,5.67-.11.25-.22.5-.32.75h-1.81c.34-.87.69-1.67,1.07-2.42a16.47,16.47,0,0,1,3.12-4.4,5.15,5.15,0,0,1,3.57-1.76A3.19,3.19,0,0,1,471.8,60,5,5,0,0,1,472.76,63.18Z" transform="translate(-47.35 -22.59)"/><text class="cls-17" transform="translate(378.96 62.43) scale(0.82 1)">B<tspan class="cls-18" x="23.38" y="0">y</tspan></text><path class="cls-19" d="M491.28,76.59A10.75,10.75,0,0,1,487,82.26a8.49,8.49,0,0,1-4.93,1.49,7.36,7.36,0,0,1-1.69-.18l3-1.9h0a6,6,0,0,0,2.74-1,8.35,8.35,0,0,0,2.21-2.14h0Z" transform="translate(-47.35 -22.59)"/><path class="cls-20" d="M489.82,71l-1.73,1.21A18.49,18.49,0,0,0,486,70.53a13.17,13.17,0,0,1-1.55-1.26,1.33,1.33,0,0,1-.49-.82c0-.33.23-.59.69-.79a3.92,3.92,0,0,1,1.63-.31,2.48,2.48,0,0,1,.69.06.23.23,0,0,1,.17.23.55.55,0,0,1-.15.26.56.56,0,0,0-.14.31c0,.08.27.35.82.81A20.57,20.57,0,0,1,489.82,71Z" transform="translate(-47.35 -22.59)"/><path class="cls-20" d="M484,65.76a1.15,1.15,0,0,1-.23.39l-.34.47a18.6,18.6,0,0,0-2.25,3.3A22.34,22.34,0,0,0,479.4,74a15,15,0,0,0-.63,4.44,2.53,2.53,0,0,0,0,.28l-1.87,1.31a6.79,6.79,0,0,1-.18-1.59,20.71,20.71,0,0,1,.71-4.85,20.19,20.19,0,0,1,2-5.18c.05-.11.28-.51.67-1.2a5,5,0,0,1,1.33-1.59,2.51,2.51,0,0,1,1.55-.55,1.29,1.29,0,0,1,.67.18A.53.53,0,0,1,484,65.76Z" transform="translate(-47.35 -22.59)"/><path class="cls-21" d="M491.53,75a5.39,5.39,0,0,1-.25,1.57l-3,1.91c.11-.15.2-.29.29-.44a5.41,5.41,0,0,0,.94-2.8,3.63,3.63,0,0,0-.94-2.49c-.15-.17-.32-.35-.5-.53L489.82,71c.21.24.42.48.61.72A5.15,5.15,0,0,1,491.53,75Z" transform="translate(-47.35 -22.59)"/><path class="cls-21" d="M483.35,81.67l-3,1.9A4.26,4.26,0,0,1,478,82.24a5.24,5.24,0,0,1-1.12-2.17l1.87-1.31c.11,2,1.41,2.94,3.9,2.94C482.91,81.7,483.13,81.69,483.35,81.67Z" transform="translate(-47.35 -22.59)"/><rect class="cls-22" x="443.96" y="60.98" width="9.69" height="3.21"/><text class="cls-23" transform="translate(418.82 78.14) scale(0.75 1)"><tspan class="cls-24">F</tspan><tspan class="cls-25" x="8.35" y="0">oo</tspan><tspan x="27.69" y="0">d</tspan></text></svg>