<svg id="Capa_1" data-name="Capa 1" xmlns="http://www.w3.org/2000/svg" viewBox="0 0 176.19 127.79"><defs><style>.cls-1,.cls-2,.cls-9{fill:#088036;}.cls-1{opacity:0.84;}.cls-2{opacity:0.77;}.cls-3,.cls-7,.cls-8{fill:none;}.cls-3{stroke:#17863d;opacity:0.96;}.cls-3,.cls-6,.cls-7,.cls-8{stroke-miterlimit:10;stroke-width:4.69px;}.cls-4{font-size:88.77px;fill:#fff;font-family:MyriadPro-Regular, Myriad Pro;}.cls-5{font-size:47.38px;}.cls-10,.cls-5{font-family:MyriadPro-Bold, Myriad Pro;font-weight:700;}.cls-6{fill:#d34318;stroke:#d34318;}.cls-7{stroke:#faea29;}.cls-8{stroke:#273d8e;}.cls-10{font-size:34.3px;fill:#541111;}.cls-11{letter-spacing:-0.03em;}.cls-12{letter-spacing:0em;}</style></defs><path class="cls-1" d="M129,148.3h-8.3c-47.29,0-85.63-40.71-85.63-90.94,26,0,49.63,11.22,66.7,29.34A102.52,102.52,0,0,1,129,148.3Z" transform="translate(-26.77 -26.05)"/><path class="cls-2" d="M120.4,114c-48.19,0-87.93-38.36-93.63-87.9H37.61C83.33,26.05,120.4,65.41,120.4,114Z" transform="translate(-26.77 -26.05)"/><path class="cls-3" d="M158,97.69a7.12,7.12,0,0,1-1.51,3A46.28,46.28,0,0,1,147,110a22.62,22.62,0,0,1-6,3.26,20.76,20.76,0,0,1-7.11,1.22,20.16,20.16,0,0,1-7.23-1.22,15.47,15.47,0,0,1-5.11-3.1q-4.77-4.32-4.78-12.79a49.91,49.91,0,0,1,2-13.09c.77-2.78,1.6-5.34,2.51-7.69h3.72a63.07,63.07,0,0,0-2.87,9,48,48,0,0,0-1.43,11.33,15.22,15.22,0,0,0,1.55,6.88,12.12,12.12,0,0,0,11.21,6.8,21.46,21.46,0,0,0,11.11-2.94,55,55,0,0,0,9.86-7.55,16.6,16.6,0,0,0,1.18-1.89c.67-1.15,1.18-1.72,1.51-1.72a.76.76,0,0,1,.67.25A1.82,1.82,0,0,1,158,97.69Z" transform="translate(-26.77 -26.05)"/><path class="cls-3" d="M144.86,68a8.45,8.45,0,0,1-.55,2.9,12.35,12.35,0,0,1-1.22,2.47c-.45.67-.78,1-1,1-.45,0-.67-.26-.67-.76a4.66,4.66,0,0,1,.29-1.13A5,5,0,0,0,142,71a15.26,15.26,0,0,0-.5-4,5.07,5.07,0,0,0-1.68-2.64,4.21,4.21,0,0,0-2.77-1q-6,0-11.33,11.66c-.22.5-.44,1-.65,1.54h-3.72q1-2.67,2.19-5A34.69,34.69,0,0,1,130,62.54c2.44-2.41,4.88-3.61,7.35-3.61a6.61,6.61,0,0,1,5.58,2.6A10.43,10.43,0,0,1,144.86,68Z" transform="translate(-26.77 -26.05)"/><text class="cls-4" transform="translate(22.52 86.9) scale(0.82 1)">B<tspan class="cls-5" x="48.11" y="0">y</tspan></text><path class="cls-6" d="M183,95.59a21,21,0,0,1-1.91,4.31,22.23,22.23,0,0,1-6.88,7.35A17.49,17.49,0,0,1,164,110.31a15.63,15.63,0,0,1-3.48-.36l6.11-3.91h0a12.25,12.25,0,0,0,5.62-2.11,17.16,17.16,0,0,0,4.56-4.42h0Z" transform="translate(-26.77 -26.05)"/><path class="cls-7" d="M180,84.15l-3.55,2.49a37.49,37.49,0,0,0-4.24-3.52,28,28,0,0,1-3.19-2.6,2.72,2.72,0,0,1-1-1.67c0-.68.48-1.22,1.43-1.64a8.26,8.26,0,0,1,3.36-.63,4.75,4.75,0,0,1,1.42.13.45.45,0,0,1,.33.45,1.06,1.06,0,0,1-.29.55,1.15,1.15,0,0,0-.29.63c0,.17.55.73,1.68,1.68A41.33,41.33,0,0,1,180,84.15Z" transform="translate(-26.77 -26.05)"/><path class="cls-7" d="M168,73.31a2.21,2.21,0,0,1-.46.79c-.31.42-.55.74-.71,1a38.93,38.93,0,0,0-4.62,6.79,45.67,45.67,0,0,0-3.65,8.48,30.66,30.66,0,0,0-1.3,9.15c0,.19,0,.38,0,.57l-3.84,2.68a13.53,13.53,0,0,1-.38-3.25,43.14,43.14,0,0,1,1.47-10,41.12,41.12,0,0,1,4.16-10.65c.11-.23.57-1.06,1.38-2.48a10.33,10.33,0,0,1,2.73-3.27A5.22,5.22,0,0,1,166,72a2.65,2.65,0,0,1,1.38.38A1.11,1.11,0,0,1,168,73.31Z" transform="translate(-26.77 -26.05)"/><path class="cls-8" d="M183.48,92.35a11.14,11.14,0,0,1-.52,3.24l-6.12,3.92a10.19,10.19,0,0,0,.6-.91,11.18,11.18,0,0,0,1.93-5.74,7.47,7.47,0,0,0-1.93-5.12c-.31-.36-.67-.73-1-1.1L180,84.15c.45.49.87,1,1.27,1.49A10.47,10.47,0,0,1,183.48,92.35Z" transform="translate(-26.77 -26.05)"/><path class="cls-8" d="M166.65,106,160.54,110a8.67,8.67,0,0,1-4.83-2.74,10.75,10.75,0,0,1-2.31-4.47l3.84-2.68c.23,4,2.9,6,8,6A12.44,12.44,0,0,0,166.65,106Z" transform="translate(-26.77 -26.05)"/><rect class="cls-9" x="156.26" y="83.9" width="19.93" height="6.6"/><text class="cls-10" transform="translate(104.54 119.21) scale(0.75 1)"><tspan class="cls-11">F</tspan><tspan class="cls-12" x="17.18" y="0">oo</tspan><tspan x="56.96" y="0">d</tspan></text></svg>