<svg id="Capa_1" data-name="Capa 1" xmlns="http://www.w3.org/2000/svg" viewBox="0 0 1281.93 136.95"><defs><style>.cls-1{fill:#fff;stroke:#fff;stroke-miterlimit:10;}</style></defs><path class="cls-1" d="M165.05,261.87c24.92,0,30.09,18.09,30.09,27.05,0,40.74-59.43,46.66-59.43,65.81,0,12.77,5.32,31.32,5.32,32.23,0,1.82-3.49,1.37-4.56,1.37H116.26c-3.8,0-8.36,2.88-8.36-54.11,0-75.09,7.9-72.35,10.49-72.35Zm5.47,31.92c0-10.49-9.12-14-18.24-14-10.94,0-19.91,1.67-19.76,36.63,0,3.65.31,7,4.71,7C145.14,323.42,170.52,304.73,170.52,293.79Z" transform="translate(-105.4 -256.18)"/><path class="cls-1" d="M138.16,390.38c-.43,0-.84,0-1.21,0H115.8a5.35,5.35,0,0,1-4.32-1.4c-2.7-2.61-5.58-9.2-5.58-54.72,0-58.22,4.63-69.44,8.12-72.82a5.27,5.27,0,0,1,4.16-1.54h46.87c25.33,0,32.09,18.26,32.09,29.05,0,25.33-21.59,37.63-38.94,47.51-11,6.27-20.49,11.68-20.49,18.3,0,9.84,3.26,23.3,4.66,29A16.66,16.66,0,0,1,143,387a3.11,3.11,0,0,1-.95,2.25A5.57,5.57,0,0,1,138.16,390.38Zm-21.9-4.05h20.21l.67,0a16.43,16.43,0,0,0,1.73,0l-.39-1.63c-1.43-5.89-4.77-19.67-4.77-30,0-9,10.43-14.89,22.51-21.77,16.45-9.37,36.92-21,36.92-44,0-2.56-.79-25.05-28.09-25.05h-47a1.39,1.39,0,0,0-1.26.41c-2.58,2.5-6.9,14.91-6.9,70,0,31.61,1.47,49,4.36,51.84.28.28.46.31,1.4.28Zm21-60.91c-6.71,0-6.71-6.07-6.71-9-.08-18.38,2.24-28.93,7.51-34.23,4-4.06,9.25-4.4,14.25-4.4,12.67,0,20.24,6,20.24,16,0,7.76-10.08,16.89-14.41,20.46C151.36,319.81,142.29,325.42,137.23,325.42Zm15.05-43.62c-4.49,0-8.45.25-11.42,3.22-4.34,4.36-6.41,14.63-6.34,31.41,0,4.56.75,5,2.71,5,7.39,0,31.29-18.27,31.29-27.63C168.52,283,157.16,281.8,152.28,281.8Z" transform="translate(-105.4 -256.18)"/><path class="cls-1" d="M210.19,388.33c-7.44,0-8.05,3.19-8.05-50.31,0-52,2.43-47,7.44-47h8.36c6.39,0,6.54.46,6.54,2.28,0,5.62-1.82,11.25-1.82,27.81,0,38.31,5.92,61.87,5.92,63.23,0,4.87-4.56,4-8.05,4Zm-6.38-119.17c0-6.53,5.62-10.48,11.7-10.48s11.71,3.95,11.71,10.48-5.63,10-11.71,10S203.81,275.7,203.81,269.16Z" transform="translate(-105.4 -256.18)"/><path class="cls-1" d="M223.52,390.39c-.54,0-1.08,0-1.6,0l-1.39,0H209.05c-1.87.05-3.81.1-5.38-1.43-3.23-3.15-3.53-11.83-3.53-50.89,0-37.84,1.26-45.38,4.08-48a5.15,5.15,0,0,1,4.32-1.06c.34,0,.68.06,1,.06h8.36c5.33,0,8.54,0,8.54,4.28a58.61,58.61,0,0,1-.57,7,156.92,156.92,0,0,0-1.25,20.82c0,32,4.13,53.5,5.49,60.55a17.65,17.65,0,0,1,.43,2.68,5.82,5.82,0,0,1-1.61,4.37C227.51,390.15,225.49,390.39,223.52,390.39Zm-13.33-4.06h10.34l1.52,0c1.56.05,3.5.12,4.14-.5a2.2,2.2,0,0,0,.39-1.49c0-.11-.18-1-.36-1.92-1.38-7.15-5.56-28.9-5.56-61.31a162.94,162.94,0,0,1,1.27-21.29,55,55,0,0,0,.55-6.52v-.07a30.4,30.4,0,0,0-4.54-.21h-8.36c-.48,0-.94,0-1.39-.08-.7-.06-1.13-.09-1.27,0-2.45,2.25-2.78,24-2.78,45,0,30.07.1,45.86,2.33,48,.33.32,1,.33,2.48.3Zm5.32-105.13c-6.81,0-13.7-4.14-13.7-12,0-7.11,5.89-12.48,13.7-12.48s13.71,5.37,13.71,12.48C229.22,277.06,222.32,281.2,215.51,281.2Zm0-20.52c-4.82,0-9.7,2.91-9.7,8.48s4.87,8,9.7,8,9.71-2.52,9.71-8S220.33,260.68,215.51,260.68Z" transform="translate(-105.4 -256.18)"/><path class="cls-1" d="M238.77,344.55c0-26.14,13.22-55.78,43.16-55.78,13.23,0,22.8,7.14,22.8,15.81,0,4.56-3.34,13.37-9,13.37-3.5,0-2.89-11.24-15.2-11.24-15.66,0-21.28,20.67-21.28,33.43,0,14.75,7,27.06,21.43,27.06,16.41,0,20.21-15.05,21.58-15.05.76,0,2.28,2.74,2.28,9,0,18.24-12,29.49-29.94,29.49C249.41,390.61,238.77,366.74,238.77,344.55Z" transform="translate(-105.4 -256.18)"/><path class="cls-1" d="M274.64,392.61c-26.16,0-37.87-24.14-37.87-48.06,0-27.83,14.13-57.78,45.16-57.78,14.14,0,24.8,7.66,24.8,17.81,0,5.36-3.76,15.37-11,15.37-2.42,0-3.55-2.13-4.65-4.19-1.74-3.31-3.73-7.05-10.55-7.05-14.05,0-19.28,19.28-19.28,31.43s5.1,25.06,19.43,25.06c11.57,0,16.21-8.18,18.44-12.11,1-1.77,1.67-2.94,3.14-2.94,3.16,0,4.28,5.67,4.28,11C306.58,380.25,294,392.61,274.64,392.61Zm7.29-101.84c-28.28,0-41.16,27.88-41.16,53.78,0,21.93,10.47,44.06,33.87,44.06,17.23,0,27.94-10.54,27.94-27.49a24.16,24.16,0,0,0-.47-5.13c-2.66,4.59-8.42,13.21-21.39,13.21-14.24,0-23.43-11.4-23.43-29.06,0-13.7,6.32-35.43,23.28-35.43,9.23,0,12.27,5.74,14.09,9.17a12.09,12.09,0,0,0,1.25,2.07c3.95-.18,6.82-7.52,6.82-11.37C302.73,296.84,293.6,290.77,281.93,290.77Z" transform="translate(-105.4 -256.18)"/><path class="cls-1" d="M350.64,325.1c4.4-.76,7.9-1.52,7.9-6.54,0-7.75-8.05-11.85-14.74-11.85-15.51,0-13.23,13.07-16.57,13.07-4.86,0-10.18-5.93-10.18-12.47,0-11.24,12.61-18.54,26.6-18.54,4.86,0,25.68-.15,33.43,21.13,3.2,8.81,3.5,53.8,3.5,59.12,0,6.69,1.22,10.64,1.22,15.81,0,3.19-14.29,3.5-27.82,3.5-36.63,0-39.21-18.85-39.21-28C314.77,341.21,333.61,328,350.64,325.1Zm9.42,26.6c0-5.32.91-11.71-6.38-11.71-9,0-18.39,7.6-18.39,16.87,0,8.52,7.44,13.53,15.5,13.53,9,0,9.27-4.56,9.27-12Z" transform="translate(-105.4 -256.18)"/><path class="cls-1" d="M354,390.33c-27,0-41.21-10.37-41.21-30,0-20.05,19.33-34.15,37.53-37.24,4.91-.84,6.24-1.51,6.24-4.56,0-6.8-7.45-9.85-12.74-9.85-9.21,0-11,4.8-12.47,8.66-.77,2.07-1.65,4.41-4.1,4.41-6.26,0-12.18-7-12.18-14.47,0-11.71,12.29-20.54,28.6-20.54h.11c22.34,0,31.47,12.2,35.2,22.44,3.52,9.72,3.62,59.32,3.62,59.81a66.24,66.24,0,0,0,.65,8.71,55.47,55.47,0,0,1,.57,7.1C383.8,389.14,377.39,390.33,354,390.33ZM343.8,304.71c8.23,0,16.74,5.18,16.74,13.85,0,6.86-5.53,7.81-9.56,8.51h0c-16.58,2.81-34.2,15.44-34.2,33.29,0,6.42,0,26,37.21,26,5.76,0,23,0,25.81-1.9a53.25,53.25,0,0,0-.53-6.21,70.42,70.42,0,0,1-.68-9.2c0-10.37-.57-50.7-3.38-58.44-3.29-9-11.42-19.81-31.44-19.81h-.11c-12.1,0-24.6,6.19-24.6,16.54,0,5.34,4.25,10.12,7.79,10.45a16.41,16.41,0,0,0,.75-1.8C329.07,312,331.83,304.71,343.8,304.71Zm7,67.68c-8.49,0-17.5-5.44-17.5-15.53,0-10.8,10.76-18.87,20.39-18.87a8.17,8.17,0,0,1,6.06,2.16c2.46,2.51,2.4,6.47,2.34,10,0,.53,0,1.06,0,1.58v6.68C362.06,365.27,362.06,372.39,350.79,372.39Zm2.89-30.4c-7.58,0-16.39,6.5-16.39,14.87,0,7.57,6.79,11.53,13.5,11.53,6.94,0,7.27-2.4,7.27-10V351.7c0-.54,0-1.1,0-1.65.05-2.84.1-5.78-1.19-7.09A4.35,4.35,0,0,0,353.68,342Z" transform="translate(-105.4 -256.18)"/><path class="cls-1" d="M442.75,388.33c-2,0-5.32.45-5.32-2.44,0-1.52,7.75-21.73,7.75-52.59,0-10.79-.91-24.31-11.25-24.31-5.77,0-17.63,3.8-17.63,33.89,0,18.24,4.41,41.65,4.41,43.47,0,2.13-2.59,2-4.11,2H403.68c-5.62,0-7.9,2.58-7.9-37.55,0-68.85,5.32-64.59,17-64.59,5.32,0,10.8-.76,10.8,2.73,0,1.52-1.37,3.35-1.37,5.47,0,1.52.76,2.89,2.28,2.89,2.58,0,9.57-6.23,19.3-6.23,4.26,0,21.89.61,21.89,40.58,0,59.74-4.71,56.7-9.88,56.7Z" transform="translate(-105.4 -256.18)"/><path class="cls-1" d="M401.9,390.36a5.53,5.53,0,0,1-4.19-1.45c-2.72-2.64-3.93-8.77-3.93-38.13,0-47.75,2.59-59.34,7.37-64,2.81-2.75,6.19-2.68,9.77-2.6,1.36,0,2.86,0,4.3,0,3.89-.08,7.25-.16,9.13,1.69a4.17,4.17,0,0,1,1.25,3.08,8.47,8.47,0,0,1-.73,3,7.4,7.4,0,0,0-.64,2.48,1.33,1.33,0,0,0,.23.89,16.5,16.5,0,0,0,3.23-1.44c3.67-1.91,9.21-4.79,16.12-4.79,8.92,0,23.89,5.53,23.89,42.58,0,42.55-2.39,53.59-6,57.08a6.6,6.6,0,0,1-5.25,1.63H442.07c-1.66,0-3.94.09-5.44-1.36a4.17,4.17,0,0,1-1.2-3.09,13.42,13.42,0,0,1,.75-3.18,173.84,173.84,0,0,0,7-49.41c0-11-1.1-22.31-9.25-22.31-4.7,0-15.63,3.1-15.63,31.89,0,13.71,2.53,30.45,3.74,38.49.5,3.26.67,4.42.67,5a3.68,3.68,0,0,1-1.06,2.67c-1.34,1.33-3.4,1.32-4.77,1.31h-14.1Zm7.31-102.22c-2.47,0-4,.23-5.26,1.48-4.44,4.34-6.17,21.49-6.17,61.16,0,17,.33,32.94,2.71,35.26.34.33.86.34,2.18.3H416.9a8.38,8.38,0,0,0,1.79-.12c-.06-.64-.32-2.4-.6-4.24-1.23-8.14-3.79-25.08-3.79-39.09,0-32.4,13.73-35.89,19.63-35.89,13.25,0,13.25,18.44,13.25,26.31A177.35,177.35,0,0,1,440,383.81c-.26.91-.52,1.84-.59,2.18a.63.63,0,0,0,0,.16,7.64,7.64,0,0,0,2.51.19h14.62c1.32,0,1.83,0,2.35-.5,3.25-3.16,4.76-20.38,4.76-54.21,0-24.88-7.07-38.58-19.89-38.58-5.93,0-10.76,2.51-14.28,4.33-2.2,1.15-3.66,1.9-5,1.9-2.48,0-4.28-2-4.28-4.89a11,11,0,0,1,.9-3.9,6.34,6.34,0,0,0,.47-1.57.54.54,0,0,0,0-.22c-.69-.67-4-.6-6.25-.55-1.5,0-3.06,0-4.48,0Z" transform="translate(-105.4 -256.18)"/><path class="cls-1" d="M515.25,272.05c0,4.1-4.56,13.38-4.56,15.2,0,2.74.76,4.56,3,4.56,2,0,3.8-.76,5.77-.76,5.78,0,5.93,4.1,5.93,9.27,0,2.13,0,7.9-3.19,7.9-1.21,0-4.25-1.36-7-1.36-8.36,0-8.36,9.73-8.36,23.25,0,40.43,8.51,47.12,8.51,49.7,0,2.28-17.63,10.8-21.13,10.8-5.77,0-7.29-33.9-7.29-42.26,0-18.69.91-26,.91-28.88,0-4.56,1.37-12.61-5.47-12.61-2.74,0-4.26,1.82-5.93,1.82-2,0-1.82-2-1.82-4.71,0-11.55,3.34-12.92,9.12-12.92a22.35,22.35,0,0,0,2.88.61c4.72,0,5.17-7.45,5.93-12.77.76-5.77,17.79-10,20.83-10C514.49,268.86,515.25,269.16,515.25,272.05Z" transform="translate(-105.4 -256.18)"/><path class="cls-1" d="M494.27,392.61c-2.86,0-5.79-2.4-7.8-19.77-1.09-9.41-1.49-20-1.49-24.49,0-13.48.48-21.2.74-25.35.1-1.61.17-2.77.17-3.53s0-1.34.05-2.09c.1-2.66.24-6.3-1.15-7.74a3,3,0,0,0-2.37-.78,6.1,6.1,0,0,0-2.81.87,7,7,0,0,1-3.12.95,3.57,3.57,0,0,1-2.6-1c-1.24-1.24-1.23-3.06-1.22-5.17V304c0-12.48,4.07-14.92,11.12-14.92a5.1,5.1,0,0,1,1.57.32,4.78,4.78,0,0,0,1.31.29c2.3,0,3.05-4.25,3.73-9.37.07-.58.15-1.14.22-1.68,1-7.82,20.44-11.75,22.81-11.75,3.82,0,3.82,3.77,3.82,5.19,0,2.83-1.64,7.15-3.09,10.95a35.38,35.38,0,0,0-1.47,4.3c0,2.51.65,2.51,1,2.51a13.37,13.37,0,0,0,2.49-.34,16.06,16.06,0,0,1,3.28-.42c7.93,0,7.93,6.52,7.93,11.27,0,2.45,0,9.9-5.19,9.9a11,11,0,0,1-2.74-.55,16.91,16.91,0,0,0-4.25-.81c-6.08,0-6.36,7.29-6.36,21.25,0,31.8,5.37,42.48,7.4,46.5a7.33,7.33,0,0,1,1.11,3.2c0,1.08,0,2.89-10.36,8C505.45,388.65,497.35,392.61,494.27,392.61Zm-11.85-87.75a7,7,0,0,1,5.25,2c2.57,2.66,2.4,7.1,2.27,10.66,0,.69-.05,1.35-.05,1.94,0,.88-.07,2-.18,3.78-.26,4.11-.73,11.74-.73,25.1,0,14.49,2.32,38.11,5.42,40.25,3-.19,16.32-6.66,18.86-9.09-.14-.31-.35-.72-.55-1.11-2.34-4.65-7.82-15.54-7.82-48.29,0-14.11,0-25.25,10.36-25.25a19.84,19.84,0,0,1,5.33,1,11.13,11.13,0,0,0,1.67.4s1.18-.06,1.18-5.9c0-6.18-.58-7.27-3.93-7.27a13.49,13.49,0,0,0-2.49.34,16.06,16.06,0,0,1-3.28.42c-1.88,0-5-.85-5-6.56,0-1.05.56-2.58,1.73-5.67s2.83-7.43,2.83-9.53a8.88,8.88,0,0,0-.07-1.18c-3.88.19-18.11,4.6-18.59,8.28-.08.55-.16,1.1-.23,1.66-.71,5.42-1.69,12.85-7.69,12.85a8.17,8.17,0,0,1-2.52-.48l-.44-.13c-4.24,0-7,.07-7,10.92v.55a17.4,17.4,0,0,0,.06,2.11,9,9,0,0,0,1.1-.48A9.75,9.75,0,0,1,482.42,304.86Zm31.14,74.31Z" transform="translate(-105.4 -256.18)"/><path class="cls-1" d="M542.91,388.33c-7.44,0-8,3.19-8-50.31,0-52,2.43-47,7.45-47h8.35c6.39,0,6.54.46,6.54,2.28,0,5.62-1.82,11.25-1.82,27.81,0,38.31,5.92,61.87,5.92,63.23,0,4.87-4.55,4-8,4Zm-6.38-119.17c0-6.53,5.62-10.48,11.7-10.48s11.71,3.95,11.71,10.48-5.63,10-11.71,10S536.53,275.7,536.53,269.16Z" transform="translate(-105.4 -256.18)"/><path class="cls-1" d="M556.24,390.39c-.54,0-1.08,0-1.6,0l-1.39,0H541.77c-1.87.05-3.81.1-5.37-1.43-3.24-3.15-3.54-11.83-3.54-50.89,0-37.84,1.26-45.38,4.08-48a5.17,5.17,0,0,1,4.33-1.06c.33,0,.67.06,1,.06h8.35c5.33,0,8.54,0,8.54,4.28a58.61,58.61,0,0,1-.57,7,156.92,156.92,0,0,0-1.25,20.82c0,32,4.13,53.5,5.49,60.55a17.65,17.65,0,0,1,.43,2.68,5.82,5.82,0,0,1-1.61,4.37C560.23,390.15,558.21,390.39,556.24,390.39Zm-13.33-4.06h10.34l1.52,0c1.56.05,3.5.12,4.14-.5a2.2,2.2,0,0,0,.39-1.49c0-.11-.18-1-.36-1.92-1.38-7.15-5.56-28.9-5.56-61.31a160.64,160.64,0,0,1,1.28-21.29,57,57,0,0,0,.54-6.52v-.07a30.22,30.22,0,0,0-4.54-.21h-8.35c-.49,0-.95,0-1.4-.08-.7-.06-1.13-.09-1.27,0-2.45,2.25-2.78,24-2.78,45,0,30.07.1,45.86,2.33,48,.33.32,1,.33,2.48.3Zm5.32-105.13c-6.81,0-13.7-4.14-13.7-12,0-7.11,5.89-12.48,13.7-12.48s13.71,5.37,13.71,12.48C561.94,277.06,555,281.2,548.23,281.2Zm0-20.52c-4.82,0-9.7,2.91-9.7,8.48s4.87,8,9.7,8c4.68,0,9.71-2.52,9.71-8S553.06,260.68,548.23,260.68Z" transform="translate(-105.4 -256.18)"/><path class="cls-1" d="M571.49,344.55c0-26.14,13.22-55.78,43.16-55.78,13.23,0,22.8,7.14,22.8,15.81,0,4.56-3.34,13.37-9,13.37-3.5,0-2.89-11.24-15.2-11.24-15.66,0-21.28,20.67-21.28,33.43,0,14.75,7,27.06,21.43,27.06,16.41,0,20.21-15.05,21.58-15.05.76,0,2.28,2.74,2.28,9,0,18.24-12,29.49-29.94,29.49C582.13,390.61,571.49,366.74,571.49,344.55Z" transform="translate(-105.4 -256.18)"/><path class="cls-1" d="M607.36,392.61c-26.16,0-37.87-24.14-37.87-48.06,0-27.83,14.13-57.78,45.16-57.78,14.14,0,24.8,7.66,24.8,17.81,0,5.36-3.76,15.37-11,15.37-2.42,0-3.55-2.13-4.64-4.19-1.75-3.31-3.74-7.05-10.56-7.05-14,0-19.28,19.28-19.28,31.43s5.1,25.06,19.43,25.06c11.57,0,16.21-8.18,18.44-12.11,1-1.77,1.67-2.94,3.14-2.94,3.16,0,4.28,5.67,4.28,11C639.3,380.25,626.76,392.61,607.36,392.61Zm7.29-101.84c-28.28,0-41.16,27.88-41.16,53.78,0,21.93,10.47,44.06,33.87,44.06,17.23,0,27.94-10.54,27.94-27.49a24.16,24.16,0,0,0-.47-5.13c-2.66,4.59-8.42,13.21-21.39,13.21-14.24,0-23.43-11.4-23.43-29.06,0-13.7,6.32-35.43,23.28-35.43,9.23,0,12.27,5.74,14.09,9.17a12.09,12.09,0,0,0,1.25,2.07c4-.18,6.82-7.52,6.82-11.37C635.45,296.84,626.32,290.77,614.65,290.77Z" transform="translate(-105.4 -256.18)"/><path class="cls-1" d="M645.66,339.54c0-24.48,11.71-50.77,38.15-50.77S722,315.06,722,339.54c0,35.71-20.67,51.07-38.15,51.07S645.66,375.25,645.66,339.54Zm57.46-3.8c0-12-4.26-29-19.31-29s-19.3,17-19.3,29,4,29.48,19.3,29.48S703.12,347.9,703.12,335.74Z" transform="translate(-105.4 -256.18)"/><path class="cls-1" d="M683.81,392.61c-10,0-19.91-4.68-27.12-12.82-8.52-9.62-13-23.54-13-40.25,0-25.42,12.57-52.77,40.15-52.77S724,314.12,724,339.54c0,16.71-4.5,30.63-13,40.25C703.73,387.93,693.84,392.61,683.81,392.61Zm0-101.84c-24.83,0-36.15,25.28-36.15,48.77,0,33.71,18.74,49.07,36.15,49.07S720,373.25,720,339.54C720,316.05,708.65,290.77,683.81,290.77Zm0,76.45c-15.7,0-21.3-16.26-21.3-31.48,0-14.32,5.58-31,21.3-31s21.31,16.71,21.31,31C705.12,351,699.52,367.22,683.81,367.22Zm0-58.51c-16.81,0-17.3,24.26-17.3,27,0,4.59.83,27.48,17.3,27.48s17.31-22.89,17.31-27.48C701.12,333,700.63,308.71,683.81,308.71Z" transform="translate(-105.4 -256.18)"/><path class="cls-1" d="M810.12,325.1c4.41-.76,7.91-1.52,7.91-6.54,0-7.75-8.06-11.85-14.75-11.85-15.5,0-13.22,13.07-16.56,13.07-4.87,0-10.19-5.93-10.19-12.47,0-11.24,12.62-18.54,26.6-18.54,4.87,0,25.69-.15,33.44,21.13,3.19,8.81,3.5,53.8,3.5,59.12,0,6.69,1.21,10.64,1.21,15.81,0,3.19-14.29,3.5-27.81,3.5-36.63,0-39.22-18.85-39.22-28C774.25,341.21,793.1,328,810.12,325.1Zm9.43,26.6c0-5.32.91-11.71-6.39-11.71-9,0-18.39,7.6-18.39,16.87,0,8.52,7.45,13.53,15.51,13.53,9,0,9.27-4.56,9.27-12Z" transform="translate(-105.4 -256.18)"/><path class="cls-1" d="M813.47,390.33c-27,0-41.22-10.37-41.22-30,0-20.05,19.34-34.15,37.54-37.24,4.91-.84,6.24-1.51,6.24-4.56,0-6.8-7.45-9.85-12.75-9.85-9.2,0-11,4.8-12.46,8.66-.78,2.07-1.66,4.41-4.1,4.41-6.27,0-12.19-7-12.19-14.47,0-11.71,12.3-20.54,28.6-20.54h.12c22.33,0,31.47,12.2,35.2,22.44,3.52,9.72,3.62,59.32,3.62,59.81a66.24,66.24,0,0,0,.65,8.71,55.5,55.5,0,0,1,.56,7.1C843.28,389.14,836.87,390.33,813.47,390.33Zm-10.19-85.62c8.23,0,16.75,5.18,16.75,13.85,0,6.86-5.53,7.81-9.57,8.51h0c-16.58,2.81-34.21,15.44-34.21,33.29,0,6.42,0,26,37.22,26,5.75,0,23,0,25.81-1.9a55.52,55.52,0,0,0-.53-6.21,70.42,70.42,0,0,1-.68-9.2c0-10.37-.58-50.7-3.38-58.44-3.29-9-11.42-19.81-31.44-19.81h-.12c-12.09,0-24.6,6.19-24.6,16.54,0,5.34,4.26,10.12,7.8,10.45a18.64,18.64,0,0,0,.75-1.8C788.56,312,791.31,304.71,803.28,304.71Zm7,67.68c-8.49,0-17.51-5.44-17.51-15.53,0-10.8,10.77-18.87,20.39-18.87a8.18,8.18,0,0,1,6.07,2.16c2.46,2.51,2.39,6.47,2.33,10,0,.53,0,1.06,0,1.58v6.68C821.55,365.27,821.55,372.39,810.28,372.39Zm2.88-30.4c-7.58,0-16.39,6.5-16.39,14.87,0,7.57,6.8,11.53,13.51,11.53,6.94,0,7.27-2.4,7.27-10V351.7c0-.54,0-1.1,0-1.65,0-2.84.09-5.78-1.19-7.09A4.38,4.38,0,0,0,813.16,342Z" transform="translate(-105.4 -256.18)"/><path class="cls-1" d="M881.11,258.68c1.36,0,2.43,1.67,2.43,3.19,0,2.13-5.78,17-5.78,29.18,0,1.83,0,4.71,2.59,4.71,1.21,0,3.64-1.37,7-3.34a27.3,27.3,0,0,1,12.76-3.65c13.84,0,24,9.88,24,46.51,0,14.59-2.13,53.05-6.84,53.05H901.47c-1.37,0-5.47.45-5.47-2,0-1.06,7.6-31.16,7.6-51.37,0-23.56-4-28.27-11.4-28.27-15.5,0-15.81,23.71-15.81,34.5,0,30.4,3.35,40.28,3.35,44.68,0,2.44-2.89,2.44-4.41,2.44H860.28c-4.41,0-4.41,5.16-4.41-62.32,0-12.16.31-67.33,8.67-67.33Z" transform="translate(-105.4 -256.18)"/><path class="cls-1" d="M858.76,390.42a3.34,3.34,0,0,1-2.37-.86c-2.52-2.3-2.52-6.93-2.52-63.55,0-8.2.16-24.08,1.21-38.37,2-27.21,5.72-31,9.46-31h16.57c2.65,0,4.43,2.68,4.43,5.19,0,.87-.37,2.2-1.29,5.37-1.68,5.81-4.49,15.52-4.49,23.81,0,.58,0,2.36.36,2.69h0a1,1,0,0,0,.23,0c.89-.06,4.32-2.09,6-3.06l.09-.06c3.46-1.8,8.14-3.87,13.69-3.87,17.75,0,26,15.41,26,48.51,0,7.33-.52,20.54-1.66,32.19-2.07,21.09-4.68,22.86-7.18,22.86H901c-1.61.05-4.3.14-5.87-1.38a3.57,3.57,0,0,1-1.08-2.61,24.5,24.5,0,0,1,.74-3.8c1.88-8.58,6.86-31.35,6.86-47.57,0-24.3-4.26-26.27-9.4-26.27-12.37,0-13.81,18.55-13.81,32.5,0,21.86,1.76,33.12,2.7,39.17a39.13,39.13,0,0,1,.65,5.51c0,2.95-2.16,4.44-6.41,4.44H860.28c-.25,0-.48,0-.69,0S859.06,390.42,858.76,390.42Zm5.78-129.74c-2.66.86-6.67,19-6.67,65.33,0,41.18,0,57.56,1.14,60.39l.22,0c.32,0,.68-.05,1-.05h15.05a5.06,5.06,0,0,0,2.41-.32s0-.05,0-.12a38.3,38.3,0,0,0-.6-4.9c-1-6.15-2.75-17.61-2.75-39.78,0-4.9,0-14,2.17-21.83,3.35-12.13,10.36-14.67,15.64-14.67,9.89,0,13.4,7.92,13.4,30.27,0,16.65-5.05,39.73-7,48.42-.25,1.13-.48,2.21-.6,2.77a9.06,9.06,0,0,0,2.77.17h16c2.93-3.73,5.27-33.15,5.27-51.05,0-39.45-11.77-44.51-22-44.51a25.26,25.26,0,0,0-11.79,3.4c-4.29,2.53-6.35,3.59-8,3.59-4.59,0-4.59-5.05-4.59-6.71,0-8.86,2.91-18.91,4.65-24.92.51-1.78,1.1-3.81,1.13-4.29a1.64,1.64,0,0,0-.51-1.16Z" transform="translate(-105.4 -256.18)"/><path class="cls-1" d="M1001.94,291.05c6.39,0,6.54,31.92,6.54,46.36,0,55.78-4,53.2-14.9,53.2-16,0-3.8-8.52-12.46-8.52-1.37,0-4.86,3.2-7.6,5a20.57,20.57,0,0,1-11.25,3.5c-12.61,0-24.32-7.91-24.32-51.38,0-2.58,1.07-48.18,7.45-48.18h14c2,0,6.08-.76,6.08,2.28,0,2.28-7,17.48-7,46.21,0,8.51-.15,31.61,12.92,31.61,5,0,16.57-1.52,16.57-34.2,0-18.24-5.32-41.64-5.32-44.07,0-2,3.5-1.83,5.17-1.83Z" transform="translate(-105.4 -256.18)"/><path class="cls-1" d="M996.17,392.62h-2.59c-5,0-7.92-.77-9.56-2.49a6,6,0,0,1-1.38-4.82,7,7,0,0,0,0-1,4.19,4.19,0,0,0-1.41-.19,26,26,0,0,0-3.62,2.49c-1,.76-2,1.55-3,2.19a22.64,22.64,0,0,1-12.36,3.84c-18.2,0-26.32-16.47-26.32-53.38,0-1.31.27-13.42,1.34-25.24,1.88-20.7,4.6-24.94,8.11-24.94h14l.94,0c1.83-.09,4.33-.22,5.92,1.29a4,4,0,0,1,1.22,3,16.32,16.32,0,0,1-1,4c-1.8,6-6,20.13-6,42.25v.29c0,4.18,0,12,1.56,18.47,2.6,10.85,7.69,10.85,9.36,10.85,9.67,0,14.57-10.83,14.57-32.2,0-13.18-2.83-29.18-4.35-37.77a57.7,57.7,0,0,1-1-6.3,3.32,3.32,0,0,1,1-2.39c1.48-1.46,4.11-1.45,5.86-1.44h14.46c6.22,0,8.54,13.11,8.54,48.36s-1.5,48.08-6.17,52.71C1002,392.38,999.19,392.62,996.17,392.62Zm-15-12.53c1.33,0,3.25.15,4.47,1.43a5,5,0,0,1,1,4c0,1.06,0,1.55.27,1.88s1.72,1.25,6.67,1.25H995c3.34,0,5.14,0,6.49-1.35,3.64-3.59,5-17.11,5-49.86,0-5.66,0-17.44-.78-27.36-1.21-15.41-3.56-16.89-3.78-17H987.46a12.59,12.59,0,0,0-2.79.2c.11.91.49,3,.88,5.23,1.54,8.71,4.41,24.94,4.41,38.47,0,24-6.25,36.2-18.57,36.2-4.52,0-10.49-2.41-13.25-13.92-1.67-7-1.67-15.06-1.67-19.4v-.29c0-22.71,4.36-37.21,6.21-43.4.37-1.23.75-2.51.79-2.85,0-.09,0-.14,0-.14a8.7,8.7,0,0,0-2.93-.14c-.41,0-.8,0-1.14,0H945.6c-.52.48-2.83,3.65-4.46,22.86-.95,11.21-1.19,22.16-1.19,23.32,0,43.76,11.93,49.38,22.32,49.38a18.61,18.61,0,0,0,10.21-3.21c.79-.53,1.77-1.28,2.72-2C978,381.29,979.61,380.09,981.12,380.09Z" transform="translate(-105.4 -256.18)"/><path class="cls-1" d="M1030.83,388.33c-5.17,0-8.37,4.86-8.37-40.13,0-64-2-62,18.7-62,3.19,0,6.54.15,6.54,2.43,0,1.82-1.83,4.71-1.83,6.84a2.87,2.87,0,0,0,3,2.58c1.83,0,3.95-1.82,7.3-3.49a28.83,28.83,0,0,1,14.29-3.5c7.44,0,12.31,7,16.11,7a17.06,17.06,0,0,0,9-2.73c3.8-2.13,8.51-4.26,14-4.26,28,0,27.36,36.63,27.36,56.08,0,46.36-5.78,41.2-10.19,41.2H1116.4c-1.52,0-5.78.3-5.78-2.44s5.78-19.45,5.78-44.83c0-29-10.34-32.07-16.11-32.07-5.32,0-10.34-.46-10.34,24.62,0,54.56-.76,54.72-5.62,54.72h-13.68c-2.89,0-5.32.6-5.32-1.52,0-2.28,5.77-32.84,5.77-47.27,0-9.12,0-30.55-12.46-30.55-11.4,0-15.66,14-15.66,36.63,0,30.55,4.26,36.32,4.26,40.58,0,2.58-2.74,2.13-4.41,2.13Z" transform="translate(-105.4 -256.18)"/><path class="cls-1" d="M1129.22,390.5c-.54,0-1-.06-1.48-.1a8.72,8.72,0,0,0-1-.07H1116c-1.7,0-4.54.06-6.22-1.59a3.9,3.9,0,0,1-1.16-2.85,28.23,28.23,0,0,1,.94-5,170.42,170.42,0,0,0,4.84-39.87c0-13.72-2.45-30.07-14.11-30.07H1100c-2.16,0-3.44,0-4.51,1.11-2.35,2.35-3.54,9.58-3.54,21.51,0,26.16-.15,40.77-1,48.05-.78,6.72-2.27,8.67-6.62,8.67h-13.68c-.53,0-1,0-1.52,0-1.84.07-3.58.15-4.8-1a3.39,3.39,0,0,1-1-2.54c0-.78.33-2.92,1.16-8.1,1.61-10.14,4.61-29,4.61-39.17,0-8.55,0-28.55-10.46-28.55-9.19,0-13.66,11.32-13.66,34.63,0,22,2.23,31,3.43,35.82a20.45,20.45,0,0,1,.83,4.76,3.93,3.93,0,0,1-1.15,2.95c-1.34,1.3-3.25,1.23-4.65,1.19h-12.61a11.76,11.76,0,0,0-1.21.07,5.76,5.76,0,0,1-4.8-1.16c-2.89-2.64-4.36-9.71-4.36-41,0-5.6,0-10.69,0-15.32-.09-30.63-.13-40.94,4.58-45.65,3.08-3.08,7.57-3.06,14.34-3.05h1.8c3,0,8.54,0,8.54,4.43a11.52,11.52,0,0,1-1,3.87,10.77,10.77,0,0,0-.84,3c0,.22.48.58,1,.58a9.58,9.58,0,0,0,3.21-1.51c.93-.55,2-1.16,3.19-1.77a30.9,30.9,0,0,1,15.19-3.71c5,0,8.77,2.61,11.82,4.71,1.64,1.12,3.32,2.28,4.29,2.28a15.29,15.29,0,0,0,7.94-2.45c3.8-2.13,8.88-4.54,15-4.54,12.84,0,21.54,7.22,25.87,21.46,3.5,11.53,3.49,25.33,3.49,35.41v1.21c0,32.29-2.75,39.22-5.73,41.91A5.67,5.67,0,0,1,1129.22,390.5Zm-12.82-4.17h10.33a12.72,12.72,0,0,1,1.42.09c1.29.13,1.82.14,2.36-.35,2.92-2.64,4.41-15.74,4.41-38.94v-1.21c0-9.83,0-23.28-3.32-34.25-3.8-12.53-11-18.62-22-18.62-5.2,0-9.68,2.14-13,4a19.05,19.05,0,0,1-9.94,3c-2.21,0-4.22-1.38-6.55-3-2.74-1.88-5.84-4-9.56-4a27.1,27.1,0,0,0-13.33,3.25c-1.16.58-2.15,1.16-3,1.67-2,1.16-3.51,2.07-5.25,2.07a4.83,4.83,0,0,1-5-4.58,13.06,13.06,0,0,1,1.09-4.38,11,11,0,0,0,.73-2.39c-.36-.24-1.46-.5-4.53-.5h-1.81c-6,0-9.6,0-11.5,1.87-3.53,3.54-3.5,15-3.41,42.82,0,4.64,0,9.73,0,15.33,0,15.15.32,35.58,3.06,38.08.25.23.61.24,1.75.14a14.44,14.44,0,0,1,1.56-.09h12.73a7.66,7.66,0,0,0,1.68-.06v-.08a17.82,17.82,0,0,0-.71-3.8c-1.24-5-3.55-14.29-3.55-36.78,0-26,5.78-38.63,17.66-38.63,14.46,0,14.46,22.81,14.46,32.55,0,10.49-2.92,28.83-4.66,39.8-.49,3-.94,5.92-1.08,7.06.45,0,1.09,0,1.6,0s1.1,0,1.69,0h13.68c1.57,0,2.05,0,2.65-5.13.81-7,1-22.16,1-47.59,0-13.76,1.41-21,4.72-24.34,2.29-2.29,5.1-2.27,7.34-2.28h.28c8.26,0,18.11,5.91,18.11,34.07a173.77,173.77,0,0,1-5,40.77c-.4,1.78-.83,3.61-.83,4.06.18.22.93.46,3.33.44Z" transform="translate(-105.4 -256.18)"/><path class="cls-1" d="M1184.8,325.1c4.41-.76,7.9-1.52,7.9-6.54,0-7.75-8-11.85-14.74-11.85-15.51,0-13.22,13.07-16.57,13.07-4.86,0-10.18-5.93-10.18-12.47,0-11.24,12.61-18.54,26.6-18.54,4.86,0,25.68-.15,33.44,21.13,3.19,8.81,3.49,53.8,3.49,59.12,0,6.69,1.22,10.64,1.22,15.81,0,3.19-14.29,3.5-27.82,3.5-36.63,0-39.21-18.85-39.21-28C1148.93,341.21,1167.78,328,1184.8,325.1Zm9.42,26.6c0-5.32.91-11.71-6.38-11.71-9,0-18.39,7.6-18.39,16.87,0,8.52,7.44,13.53,15.5,13.53,9,0,9.27-4.56,9.27-12Z" transform="translate(-105.4 -256.18)"/><path class="cls-1" d="M1188.14,390.33c-27,0-41.21-10.37-41.21-30,0-20.05,19.34-34.15,37.53-37.24,4.91-.84,6.24-1.51,6.24-4.56,0-6.8-7.45-9.85-12.74-9.85-9.2,0-11,4.8-12.47,8.66-.77,2.07-1.65,4.41-4.1,4.41-6.26,0-12.18-7-12.18-14.47,0-11.71,12.29-20.54,28.6-20.54h.11c22.34,0,31.47,12.2,35.2,22.44,3.52,9.72,3.62,59.32,3.62,59.81a66.24,66.24,0,0,0,.65,8.71,55.47,55.47,0,0,1,.57,7.1C1218,389.14,1211.55,390.33,1188.14,390.33ZM1178,304.71c8.23,0,16.74,5.18,16.74,13.85,0,6.86-5.53,7.81-9.56,8.51h0c-16.58,2.81-34.2,15.44-34.2,33.29,0,6.42,0,26,37.21,26,5.76,0,23,0,25.81-1.9a53.25,53.25,0,0,0-.53-6.21,70.42,70.42,0,0,1-.68-9.2c0-10.37-.57-50.7-3.38-58.44-3.29-9-11.42-19.81-31.44-19.81h-.11c-12.1,0-24.6,6.19-24.6,16.54,0,5.34,4.25,10.12,7.79,10.45a16.41,16.41,0,0,0,.75-1.8C1163.23,312,1166,304.71,1178,304.71Zm7,67.68c-8.48,0-17.5-5.44-17.5-15.53,0-10.8,10.76-18.87,20.39-18.87a8.17,8.17,0,0,1,6.06,2.16c2.46,2.51,2.4,6.47,2.34,10,0,.53,0,1.06,0,1.58v6.68C1196.22,365.27,1196.22,372.39,1185,372.39Zm2.89-30.4c-7.58,0-16.39,6.5-16.39,14.87,0,7.57,6.79,11.53,13.5,11.53,6.94,0,7.27-2.4,7.27-10V351.7c0-.54,0-1.1,0-1.65,0-2.84.1-5.78-1.19-7.09A4.35,4.35,0,0,0,1187.84,342Z" transform="translate(-105.4 -256.18)"/><path class="cls-1" d="M1258.06,388.33c-17,0-31.92-15.05-31.92-45.75,0-34.81,23.11-53.81,36.48-53.81,3.19,0,6.54,3.5,8.66,3.5,3,0,3.5-5.47,3.5-7.91,0-12.31-3.8-17.78-3.8-23.56,0-2.12,3.8-2.12,5.32-2.12h15.81c6.84,0,6.23,68.09,6.23,75.23,0,3.5.61,54.42-4.71,54.42Zm19.76-56.54c0-26.76-4.1-28.58-9.73-28.58-6.53,0-21.43,8.51-21.43,36.17,0,10.49,3.95,26.75,16.87,26.75C1280,366.13,1277.82,342.73,1277.82,331.79Z" transform="translate(-105.4 -256.18)"/><path class="cls-1" d="M1293.63,390.33h-35.57c-9.4,0-17.9-4.32-23.93-12.15-6.53-8.48-10-20.8-10-35.6,0-20.26,7.44-33.6,13.68-41.23,7.36-9,16.86-14.58,24.8-14.58,2.3,0,4.37,1.22,6.2,2.29a9.85,9.85,0,0,0,2.46,1.21c.6,0,1.5-2.36,1.5-5.91a54.35,54.35,0,0,0-2.36-15.66,30,30,0,0,1-1.44-7.9c0-4.12,5.51-4.12,7.32-4.12h15.81a3.28,3.28,0,0,1,2.34,1c1.51,1.52,6.11,6.13,5.89,74.53V335c.28,49.57-3.36,53.23-4.55,54.43A3,3,0,0,1,1293.63,390.33Zm-31-99.56c-6.67,0-15.19,5.15-21.71,13.12-5.82,7.12-12.77,19.61-12.77,38.69,0,26.57,11.75,43.75,29.92,43.75h35c.76-1.34,3.47-9.06,3.23-51.36v-2.75c.2-61.07-3.53-70.19-4.6-71.54H1276.3a9,9,0,0,0-3.32.37,28.42,28.42,0,0,0,1.3,6.6,58,58,0,0,1,2.5,16.71c0,6.2-2.06,9.91-5.5,9.91-1.5,0-3-.86-4.49-1.76C1265.4,291.69,1263.83,290.77,1262.62,290.77Zm.91,77.36c-14.89,0-18.87-18.07-18.87-28.75,0-28.84,15.79-38.17,23.43-38.17,8,0,11.73,4.57,11.73,30.58,0,1,0,2.18,0,3.41.15,8.88.37,22.31-6.15,28.94A13.7,13.7,0,0,1,1263.53,368.13Zm4.56-62.92c-6.09,0-19.43,8.6-19.43,34.17,0,8.57,3.11,24.75,14.87,24.75a9.71,9.71,0,0,0,7.33-2.8c5.35-5.43,5.14-17.85,5-26.06,0-1.26,0-2.43,0-3.48C1275.82,305.21,1271.71,305.21,1268.09,305.21Z" transform="translate(-105.4 -256.18)"/><path class="cls-1" d="M1308.52,339.54c0-24.48,11.71-50.77,38.15-50.77s38.16,26.29,38.16,50.77c0,35.71-20.68,51.07-38.16,51.07S1308.52,375.25,1308.52,339.54Zm57.46-3.8c0-12-4.26-29-19.31-29s-19.3,17-19.3,29,4,29.48,19.3,29.48S1366,347.9,1366,335.74Z" transform="translate(-105.4 -256.18)"/><path class="cls-1" d="M1346.67,392.61c-10,0-19.91-4.68-27.12-12.82-8.52-9.62-13-23.54-13-40.25,0-25.42,12.57-52.77,40.15-52.77s40.16,27.35,40.16,52.77c0,16.71-4.51,30.63-13,40.25C1366.59,387.93,1356.7,392.61,1346.67,392.61Zm0-101.84c-24.83,0-36.15,25.28-36.15,48.77,0,33.71,18.74,49.07,36.15,49.07s36.16-15.36,36.16-49.07C1382.83,316.05,1371.51,290.77,1346.67,290.77Zm0,76.45c-15.7,0-21.3-16.26-21.3-31.48,0-14.32,5.58-31,21.3-31s21.31,16.71,21.31,31C1368,351,1362.38,367.22,1346.67,367.22Zm0-58.51c-16.81,0-17.3,24.26-17.3,27,0,4.59.84,27.48,17.3,27.48S1364,340.33,1364,335.74C1364,333,1363.49,308.71,1346.67,308.71Z" transform="translate(-105.4 -256.18)"/></svg>