<svg id="Capa_1" data-name="Capa 1" xmlns="http://www.w3.org/2000/svg" viewBox="0 0 376 166"><defs><style>.cls-1,.cls-2{fill:#531314;stroke:#531314;stroke-miterlimit:10;}.cls-1{stroke-width:1px;}.cls-3{fill:none;}</style></defs><path class="cls-1" d="M72.32,27.6l.58-.9.68.13a1.18,1.18,0,0,0,1-.58c.28-.38.5-.59.67-.63s.38-.26.62-.64a1.83,1.83,0,0,1,1-.8,1.64,1.64,0,0,0,1-.8,1.58,1.58,0,0,1,.7-.74,3.83,3.83,0,0,0,.91-.54l3.11-1.79s.17.09.38.26h.14c.27,0,.54-.2.8-.61a1.14,1.14,0,0,1,.94-.61,3.14,3.14,0,0,0,1.33-.76l.21.38c.36-.77.67-1.15.92-1.15h.21a4,4,0,0,1,.61.26,3,3,0,0,1,1.41-.51l.78-.13a.36.36,0,0,1,.21.13,1.18,1.18,0,0,1,.75-.71h.38l1.4-.64.41.26a1.39,1.39,0,0,1,1.27-.64h.34l.34.13a2.89,2.89,0,0,0,.63-.39,6.13,6.13,0,0,1,2.76-.38l.89.26a6,6,0,0,1,.92-.64l1,.38L102,15h.14s.16.08.34.25h.07l2.46-.64a.85.85,0,0,1,.28.13c.18-.3.32-.45.41-.45l.65.32c.18,0,.5-.23,1-.7l.2.38,2.33-.51.85.13.76-.26a1.82,1.82,0,0,1,1.69,1.12,4.94,4.94,0,0,1,.56,2.27l.14,2-.2,1.09-.07,1.27a1.73,1.73,0,0,1-.52,1c0,.08-.1.18-.3.28a2,2,0,0,0-.62.55c-.2.25-.88.38-2,.38-.57,0-.93-.33-1.09-1s-.33-1-.51-1.12L107,20.31c-.05-.08-.19-.13-.41-.13h-.28l-1.4.26a1.57,1.57,0,0,1-.38-.13,3.55,3.55,0,0,1-.47.39l-2.53-.26-1,.13-.72-.26a1.4,1.4,0,0,0-.48.19,4.23,4.23,0,0,1-1.43.32,1.14,1.14,0,0,0-1.1,1.28,4.72,4.72,0,0,0,.29,1.53A4.2,4.2,0,0,1,97.36,25a6.82,6.82,0,0,0-.51,1.72c-.09.13-.25.41-.48.83s-.65,1.1-1.26,2a9.3,9.3,0,0,0-1.27,2.52c-.22.77-.5,1.15-.82,1.15a8.48,8.48,0,0,0-.85,2l-.28.51a1.73,1.73,0,0,0-.06.58,1.56,1.56,0,0,1-.21.76l-.31,1.54a18.26,18.26,0,0,0-1.4,3.32l-.41.38-.41.9h-.48c-.2,0-.31.25-.31.76l.14,1.86A7.41,7.41,0,0,0,87.62,48l-.41,1.28a9.25,9.25,0,0,0-.72,1.47,23.06,23.06,0,0,1-.68,2.75l-.07.64q0,1.08-2.39,6.26a16,16,0,0,0-.41,3.7c-.69,2.52-1.16,3.73-1.41,3.64a20.18,20.18,0,0,1-.42,4q-.36,1.53-.93,4.5A18.45,18.45,0,0,1,79,80.5l-.13.51a10.25,10.25,0,0,1-.35,1,52.8,52.8,0,0,1-.65,5.5l-.2,2.74L77,93.85a3.39,3.39,0,0,0-.1.77,4.18,4.18,0,0,0,.22,1A4.73,4.73,0,0,1,77.33,97a4.68,4.68,0,0,1-.18,1.44A5.06,5.06,0,0,0,77,99.86a2.74,2.74,0,0,1-1.13,2.62h-.27l-.72.12c-1,0-1.82-.85-2.6-2.55a17.42,17.42,0,0,1-1.16-7c0-.17.07-.82.2-2s.22-1.86.24-2.2a6,6,0,0,1,.18-1.06,6.89,6.89,0,0,0,.13-1.56,15.8,15.8,0,0,1,.84-5.43c.56-1.54.93-2.64,1.11-3.32a1,1,0,0,1,.24-.58,6.57,6.57,0,0,1-.1-1.28,4.91,4.91,0,0,1,.85-3c0-.34.13-.74.24-1.18s.36-1.54.72-3.26.85-2.74,1.44-3a3.28,3.28,0,0,1,.41-1l-.14-2.23a4.72,4.72,0,0,1,.62-1.73l.58-1.79a3.79,3.79,0,0,1,.89-2,1.41,1.41,0,0,1,.44-.77c0-.16.12-.7.3-1.59a17.5,17.5,0,0,1,1.09-3.36c.56-1.34,1.1-2.73,1.61-4.18s1-2.19,1.4-2.24.66-.49.7-1.34l.21-2.36a13,13,0,0,0,1.2-2.24l.47-1a2.75,2.75,0,0,1,.36-1.18,5.5,5.5,0,0,0,.57-1.19,7.08,7.08,0,0,1,.85-1.59,9.55,9.55,0,0,1,2-4.54l.55-1.09a11,11,0,0,1,1-2.07,3.83,3.83,0,0,0,.56-1.44,2.26,2.26,0,0,1,.74-1.34,1.31,1.31,0,0,0,.54-1,.24.24,0,0,0-.27-.26,2.32,2.32,0,0,0-.92.38h-.28l-.61.26h-.21L91.25,22a2,2,0,0,1-1,.39,4.9,4.9,0,0,1-.44.57H89.1l-.42.77-.3.13-.89-.26c-.28,0-.61.26-1,.77,0,.08-.38.23-1.12.45A5.41,5.41,0,0,0,83.28,26a3.9,3.9,0,0,1-1.2.86l-.61-.26H81.4c-.3,0-.57.28-.82.83a1.69,1.69,0,0,1-1.1,1h-.41a2.5,2.5,0,0,0-1.39.76,6.69,6.69,0,0,1-.94.77l-.61-.13a3.59,3.59,0,0,1-.71.71,2.05,2.05,0,0,0-.56.6,2.23,2.23,0,0,1-.55.61,3,3,0,0,0-.63.7q-.36.51-.57.51H73l-.42-.12c-.16,0-.36.26-.61.79a2.26,2.26,0,0,1-.7,1,2,2,0,0,0-.62.61,1.06,1.06,0,0,1-.6.48,7.52,7.52,0,0,0-.48,1.41A7.93,7.93,0,0,1,68.76,39a6.86,6.86,0,0,0-.63,1.25c-.11.3-.2.44-.29.44-1.12,0-1.68-1.29-1.68-3.89l.68-2.75q.72-3.25,2.19-4,.38,0,2-1.41Z" transform="translate(-13 22)"/><path class="cls-1" d="M117.71,84.14l.54-.89c.34,0,.55-.29.62-.87A2,2,0,0,1,119.6,81a4.75,4.75,0,0,0,1.18-2.08c.36-1,.74-1.56,1.12-1.56.14,0,.3.21.48.64a2.76,2.76,0,0,1,.27,1,15,15,0,0,1-.68,4.34l-.14,1.79-.24.83a2.43,2.43,0,0,0-.66,1.09,4.3,4.3,0,0,1-.81,1.4l-.34.9a2.26,2.26,0,0,0-1,1.47c-.17.68-.41,1.06-.72,1.15s-.64.51-1,1.28a3.71,3.71,0,0,1-.82.57l-.07.64a2.36,2.36,0,0,1-1.07,1,4.72,4.72,0,0,0-1.1.74c-.24.23-.4.35-.49.35a1.76,1.76,0,0,1-1.2-.48,2.57,2.57,0,0,0-1.13-.61,2,2,0,0,1-.24-.83,3.81,3.81,0,0,0-.34-1.18,5.23,5.23,0,0,1-.31-2l.14-1.22a1.74,1.74,0,0,0-.17-.64,1.49,1.49,0,0,1-.17-.63.82.82,0,0,1,.07-.39.91.91,0,0,0,.06-.38,4.51,4.51,0,0,0-.06-.7,3.43,3.43,0,0,1-.07-.64l.2-3.13c0-.26,0-.39-.13-.39s-.26.22-.5.64-.52.64-.84.64a4.12,4.12,0,0,0-.44,1.6,5.09,5.09,0,0,1-.69,1.15l-.14.38a1,1,0,0,1-.51.74,1.48,1.48,0,0,0-.61.73l-.35.64-.65-.13c0,.09-.17.46-.37,1.12a5.5,5.5,0,0,1-.79,1.63l-2.6,4a13.76,13.76,0,0,1-1.2,1.28l-.2.38q-2.75,3.39-3.87,3.39a3.75,3.75,0,0,1-2.16-1,3.18,3.18,0,0,1-1.33-2.3l-.34-2.62a7.83,7.83,0,0,1-.31-2.49,4.49,4.49,0,0,1,.07-1v-.39l-.07-2.11c0-.51.22-.76.65-.76l-.07-1.73a12.89,12.89,0,0,1,.6-2,11.48,11.48,0,0,1,.8-2l.35-.83a2.82,2.82,0,0,1,.48-1.63,10,10,0,0,0,.82-1.76,6.91,6.91,0,0,1,1.16-2l1-1.92a14.2,14.2,0,0,1,2.6-3.57,5.17,5.17,0,0,0,.84-1.28,4.76,4.76,0,0,1,1.44-1.7,8.89,8.89,0,0,0,1.58-1.37c.51-.55.92-.83,1.21-.83H106a12.87,12.87,0,0,0,1.81-1.6H108c.09,0,.31.17.65.51h.07l.55-.51a.49.49,0,0,1,.34-.12q2.11,0,2.33,5.49c0,.77.16,1.15.34,1.15s.55-.78,1-2.33,1.31-2.33,2.68-2.33q1.47,0,1.47,3.51a16.44,16.44,0,0,1-2,7.86,8.19,8.19,0,0,0-.21,1.15l-.47,2.62v.13a3,3,0,0,1-.29,1,3,3,0,0,0-.3,1.18l.07,1.6-.13,1.79a3.66,3.66,0,0,0,.23,1.6A3.12,3.12,0,0,0,116,87.3a4,4,0,0,1,.7-1.31l.34-.25A6.84,6.84,0,0,1,117.71,84.14Zm-11.36,0a3.47,3.47,0,0,1,.84-2.14,3,3,0,0,0,.83-1.5,28.4,28.4,0,0,0,1.87-3.2,10.11,10.11,0,0,0,1.21-2.81c0-.13,0-.19-.13-.19h-.07l-.28.32-.61-.13-.65.13-.48-.45-.45.13-.68-.25a1.22,1.22,0,0,0-.94.41,5.08,5.08,0,0,1-1.51.93,5.11,5.11,0,0,0-2,1.75c-.59.83-1,1.25-1.3,1.25a8.87,8.87,0,0,1-1.61,2.75,3,3,0,0,0-1.06,2.23,7.05,7.05,0,0,0-.89,1.54L98.2,86a2.42,2.42,0,0,1-.68.74c-.28.19-.44.64-.48,1.34A5.64,5.64,0,0,1,96.58,90a3.62,3.62,0,0,0-.4,1.37c0,2.09.22,3.13.65,3.13A2.8,2.8,0,0,0,98,93.82a4.57,4.57,0,0,0,1-.93,1.45,1.45,0,0,1,.55-.51l.65-.64a.64.64,0,0,1,.31-.32c.11,0,.22-.18.34-.41a2.76,2.76,0,0,1,.61-.77,2.61,2.61,0,0,0,.69-1.12c.39-.42,1-1.08,1.88-2l.72-1a3,3,0,0,0,.92-1.09A2.42,2.42,0,0,1,106.35,84.14Z" transform="translate(-13 22)"/><path class="cls-1" d="M131.67,42.93l.48-.26.34-.63h.07l.31.25h.06a2,2,0,0,0,1.46-.61,6.75,6.75,0,0,1,1.07-.86,2.56,2.56,0,0,0,.54-.38c.07-.09.13-.13.17-.13l.56.13c.18,0,.42-.61.73-1.82a8.56,8.56,0,0,1,1-2.65,10.57,10.57,0,0,0,1.17-3.13,7.8,7.8,0,0,0,.3-1c.12-.45.21-.68.28-.68.34,0,.61-.4.82-1.21.68-1.49,1.24-2.24,1.67-2.24s1,1,1.2,3.07l.34,2.43s-.06.35-.17.93a7.7,7.7,0,0,0-.15,1.72,6.52,6.52,0,0,1,0,1.15,4.36,4.36,0,0,0,0,.67c0,.34.19.51.58.51.14,0,.39-.17.76-.51l.2-.13c.23.26.42.39.58.39a8,8,0,0,0,1-.64,5.25,5.25,0,0,1,1.14-.7,3.18,3.18,0,0,0,.82-.52h.42l.27.2c.09,0,.28-.19.56-.55a2.36,2.36,0,0,1,1.63-.67l.48-.38h.13c.76,0,1.13.62,1.13,1.85a5.2,5.2,0,0,1-.32,1.34,13.14,13.14,0,0,0-.53,2.18l-1.58,3.7c-.52,1.28-1.05,1.92-1.57,1.92A5.88,5.88,0,0,1,148.7,44a.12.12,0,0,0-.14-.13,1.3,1.3,0,0,0-.72.26,1.23,1.23,0,0,1-.62.26,19.69,19.69,0,0,0-1.81.95l-.82.26a2.28,2.28,0,0,0-.65.26l-1.75.63a6.22,6.22,0,0,0-1.4,3.14,1.72,1.72,0,0,1-.34.57l-1.54,5.24a2.14,2.14,0,0,0-1,1.66l-.14.38a1.37,1.37,0,0,0-.68.8,7.42,7.42,0,0,1-.58,1.06L135.89,61q-.37.9-.75,2a10.64,10.64,0,0,0-.55,2.24,6.88,6.88,0,0,1-.28,1.37,1.63,1.63,0,0,0-.1.7l-.1.51a3.54,3.54,0,0,0-.41,1.73l.13,1c-.32,2-.48,3.13-.48,3.26s0,.32.07.7v.39a14.32,14.32,0,0,1-.55,3.51l.07,1-.2,2.88a18.16,18.16,0,0,0,.2,2.11.94.94,0,0,0-.14.38,9.25,9.25,0,0,0,1,3.93,16.6,16.6,0,0,1,1,6.68,8.78,8.78,0,0,1-.11,1.11c-.06.49-.11,1-.13,1.6a3.59,3.59,0,0,1-.53,1.69c-.34.56-.62.83-.84.83-1.21,0-2.12-1.64-2.71-4.92a46.72,46.72,0,0,1-.89-6.32l.07-2.49-.21-1.28.21-5.62-.14-1.34.79-5.5v-2a5.22,5.22,0,0,1,.48-1c0-.09,0-.13-.14-.13s-.32.26-.55.77a7.83,7.83,0,0,1-.86,1.47l-.27.89a.83.83,0,0,0-.27-.25,16.48,16.48,0,0,0-1.14,3c-.48.13-.85.64-1.13,1.53s-.65,1.34-1.13,1.34l-.13.13c-.1,1.24-.42,1.85-1,1.85l-.14.13c-.34,1.45-.7,2.15-1.06,2.11a3.42,3.42,0,0,1-1.68,2.62,2.55,2.55,0,0,1-.6,1.15,3.18,3.18,0,0,0-.57.7c-.11.22-.22.32-.31.32-.29,0-.44-.59-.44-1.79a3.26,3.26,0,0,1,.22-1.12,2.85,2.85,0,0,0,.22-.86,2.84,2.84,0,0,0-.34-.76,3.71,3.71,0,0,1,.55-2.5,3.15,3.15,0,0,0,.82-1.47,1.57,1.57,0,0,1,.69-1.08,1,1,0,0,0,.51-.83,4.63,4.63,0,0,1,.89-1.79,14.48,14.48,0,0,0,1.3-2.33c.28-.66.5-1,.69-1l.13-.26c0-1.06.27-1.6.65-1.6l.35-.38.07-.51.2-.26h.27l.18-.25a4,4,0,0,1,.8-2.49,32.7,32.7,0,0,0,2.69-5,33.84,33.84,0,0,0,2.19-5.27,29.57,29.57,0,0,1,.88-3.1,13.91,13.91,0,0,0,.7-3.67,2.75,2.75,0,0,0-.21-.51l-1.47,1.34c0-.13-.23-.32-.68-.58a4.15,4.15,0,0,0-.76,1.15c-.16.39-.28.58-.37.58l-.48-.13-1.51.32a4.77,4.77,0,0,0-3,1.53l-1.4.77h-.31c-.18,0-.46.21-.82.64l-.79-.13c-.73.73-1.27,1.09-1.61,1.09a1.89,1.89,0,0,1-.41-.13l-3.49,1.79a12,12,0,0,0-1.85,2.62l-.27.13c-.23,0-.5-.48-.8-1.44a8.53,8.53,0,0,1-.47-2.59q0-6.33,5.82-7.35l1.4-1h.07l.38.26h.14c.13,0,.35-.16.65-.48a6.72,6.72,0,0,1,2-1.19l1.4-.7.45.13c.23,0,.48-.17.77-.51a2.42,2.42,0,0,1,1.3-.74,3.32,3.32,0,0,0,1.21-.48l.55-.25c.09,0,.28-.15.56-.45a1.48,1.48,0,0,1,1.12-.45A1.86,1.86,0,0,1,131.67,42.93Z" transform="translate(-13 22)"/><path class="cls-1" d="M145.76,74.62l.72-1.09c.55-.08.84-.61.89-1.59a3.79,3.79,0,0,1,1.13-2.56l.41-1.09a9.11,9.11,0,0,1,2.8-2.49,4,4,0,0,0,.79-1.15c0-.08.09-.12.13-.12l.55.25a2.32,2.32,0,0,0,1.15-.45,2.54,2.54,0,0,1,1.35-.44l1.43-.13c.09,0,.28.13.57.38a1.48,1.48,0,0,0,1,.39c.5,0,1,.42,1.38,1.27a5.31,5.31,0,0,1,.64,2.37,8.46,8.46,0,0,1-1.1,4c-.72,1.37-1.3,2.13-1.74,2.3a5.88,5.88,0,0,1-.89,1.38,3.73,3.73,0,0,0-.63.89c-.21.41-.39.61-.53.61a.22.22,0,0,1-.2-.16.23.23,0,0,0-.21-.16c-.36,0-.76.83-1.19,2.49l-.62-.13a3.63,3.63,0,0,0-.75,1.54c-.11.55-.35.83-.71.83-.85,1.57-1.42,2.36-1.71,2.36a1.6,1.6,0,0,1-.48-.26,3.46,3.46,0,0,0-.27,1.35c0,.51-.19.81-.55.89l-.44.77-.34-.13-.69,1.34a1.52,1.52,0,0,0-1.06.64c0,.51-.11,1.16-.2,2s-.14,1.22-.14,1.31a1.62,1.62,0,0,0,1.81,1.85l1.65-.45a1.62,1.62,0,0,0,1.21-.63,1.62,1.62,0,0,1,1.22-.64,1.39,1.39,0,0,0,.61-.26l.34.26A4.27,4.27,0,0,1,154,90.4c.44-.51.78-.77,1-.77l.34-.38a1.89,1.89,0,0,1,.41-1l.28-.45q.27-.51.51-.51h.48l.14-.13q.4-1.65,1.14-2a1.44,1.44,0,0,0,.93-.92,1,1,0,0,1,.66-.77,1.36,1.36,0,0,0,.81-.86,6.79,6.79,0,0,1,.8-1.38c.32-.42.54-.74.67-1s.23-.32.32-.32.21.19.21.57.05.58.14.58.13-.09.13-.26a4.34,4.34,0,0,0-.06-.64V79.8a1.36,1.36,0,0,1,.54-1.28L165,76.66c.05-.89.18-1.41.4-1.56a1.69,1.69,0,0,0,.49-.51c.12-.19.24-.29.38-.29.3,0,.44.32.44,1l-.17,1.66.17,1.73a2.76,2.76,0,0,1-.32,1,7,7,0,0,0-.5,2c-.11.92-.26,1.42-.44,1.51h-.21a4.19,4.19,0,0,1-1,1.43,1.52,1.52,0,0,0-.57.8L162.58,88c-.23.43-.43.81-.59,1.15s-.28.51-.37.51l-.28-.51c0-.08,0-.12-.13-.12s-.37.25-.43.76a4.31,4.31,0,0,1-.36,1.34,4.7,4.7,0,0,0-1.34,1.67l-.2.12h-.62c-.29,0-.5.42-.61,1.25s-.44,1.31-1,1.44a1.7,1.7,0,0,0-1.15.76.7.7,0,0,1-.31.26,4.86,4.86,0,0,0-1,1l-2.88,1.92c-.23.21-.38.32-.45.32l-1,.25q-.21,0-.42-.51t-.27-.51l-.61.38a2.68,2.68,0,0,1-1.31.39,1.12,1.12,0,0,1-.75-.45,6.15,6.15,0,0,0-.65-.64c-.66,0-1.13-1-1.4-2.87l-.42.12a31.73,31.73,0,0,1-.92-4.53,1.36,1.36,0,0,0-.65-.74c-.3-.15-.44-.56-.44-1.24a7.7,7.7,0,0,1,.66-3.87,4.15,4.15,0,0,0,.74-1.5l.48-3.32a5.07,5.07,0,0,0,.34-1.28l.79-2.68C145.24,76.56,145.44,75.81,145.76,74.62ZM153,70.79l-.41.38a11,11,0,0,0-.81,1.12,9.94,9.94,0,0,1-1.3,1.6,7.85,7.85,0,0,0-1.3,3.16,23.94,23.94,0,0,0-.67,2.94c0,.25.07.38.21.38l1.16-1a6.53,6.53,0,0,0,1.22-1.47,22.18,22.18,0,0,1,1.62-2.17l.28-.51a3.14,3.14,0,0,1,.63-.93,5.24,5.24,0,0,0,.84-1.31l.34-.25A4.19,4.19,0,0,1,156,70.66c.4-.26.6-.51.6-.77,0-.51-.22-.76-.65-.76-.18,0-.46.21-.82.63h-.79c-.09,0-.34.26-.75.77Z" transform="translate(-13 22)"/><path class="cls-1" d="M173.76,66.38l.27-1.6a5.32,5.32,0,0,1,.72-2.62,14.62,14.62,0,0,1,.53-3,33.66,33.66,0,0,0,.75-3.42,7.05,7.05,0,0,1,1.22-3,17.47,17.47,0,0,0,.27-2,1.23,1.23,0,0,1,.59-.51c.16-.6.29-1.26.41-2l1.26-4.22c.09-.3.28-1,.55-2.17l1.85-3.32a2.58,2.58,0,0,1,.55-1.92,2.65,2.65,0,0,0,.66-1.69,5.39,5.39,0,0,1,.72-2.21,14.84,14.84,0,0,0,1-2,.7.7,0,0,0,.41-.64l.38-1c.25-.73.46-1.09.62-1.09h.27a6,6,0,0,1,1-2.46,16.81,16.81,0,0,0,1.3-2.36,3.56,3.56,0,0,1,.88-1.31l.27-.64c.16.08.59-.42,1.28-1.5s1.2-1.63,1.52-1.63l.65.12.75-.51c.73,0,1.31.79,1.75,2.37,0,0,.17-.15.37-.45l.82-.77a13.17,13.17,0,0,0,.7-1.18A5.88,5.88,0,0,1,200,16l.61-.77c.3-.34.56-.51.79-.51l2-.45a4.39,4.39,0,0,1,4,2.69,18.06,18.06,0,0,1,1.64,3.64.75.75,0,0,0,.07.38l-.21,1.85a5.19,5.19,0,0,0,.76,1.15l.1.64a.51.51,0,0,1-.26.51c-.17.09-.26.2-.26.32a1.21,1.21,0,0,0,.18.58,1.8,1.8,0,0,1,.17.83l-.14,2.94a25.39,25.39,0,0,1-.38,3.19c-.25,1.58-.37,2.41-.37,2.5l.27,2a2.87,2.87,0,0,1-.55,1.15,81.48,81.48,0,0,1-1.85,10.35v.51l-.41,1.85c-.27,1.28-.58,2-.92,2.24q0,.12-.48,3.93c-.32,2.53-.77,3.92-1.34,4.18a4.9,4.9,0,0,0-.55,1.82,15.92,15.92,0,0,1-.78,2.91l-.35,1.15a5.3,5.3,0,0,1-.53,1.63,12.74,12.74,0,0,0-.82,2.78c-.24,1.19-.59,1.89-1.05,2.11,0,.12-.06.46-.11,1a4.4,4.4,0,0,1-.36,1.4,4.36,4.36,0,0,0-.38,1.31,2.21,2.21,0,0,1-.89,1.38,9.33,9.33,0,0,1-.58,1.91,7.64,7.64,0,0,0-.53,1.57,2.07,2.07,0,0,1-1.25,1.5l-.24.26V85l-.2.84a3.86,3.86,0,0,0-.55,1.53,12.91,12.91,0,0,1-2.46,4.09c-.36,1.74-.83,2.75-1.4,3a2.47,2.47,0,0,0-.34,1.15l1.06,3.71.55.64a4.38,4.38,0,0,1,.78,2,1.56,1.56,0,0,1,.48.63v1a2.73,2.73,0,0,0,1.2.51l.82-.26c.25,0,.49.19.71.58l.21.13h.61c.39,0,.81.43,1.25,1.31a5.18,5.18,0,0,1,.67,2.33,3,3,0,0,1-.29,1.66,2.52,2.52,0,0,0-.5,1c-.14.42-.6.64-1.4.64-.09,0-.27.12-.55.38a4.3,4.3,0,0,0-1-.26,4.48,4.48,0,0,1-1.9-1.24,5.44,5.44,0,0,1-1.36-1.63,6.9,6.9,0,0,0-.57-1.18,7.75,7.75,0,0,1-.7-2,8.15,8.15,0,0,0-.51-1.7,5,5,0,0,1-.39-1.37,8.71,8.71,0,0,0-.53-1.76s-.07-.08-.07-.25l.07-1.28s-.06-.26-.16-.64-.19-.58-.25-.58c-.44,1.24-1,1.82-1.61,1.73a6.06,6.06,0,0,0-.67,1,11.65,11.65,0,0,1-2.41,2.46l-.71-.12c-.23.42-.46.64-.69.64h-.07l-.44-.13c-.36.64-.66,1-.89,1l-1.2-.45-.64.45-.41-.13-.48.13a.9.9,0,0,0-.67-.39.77.77,0,0,1-.63-.38,3.58,3.58,0,0,0-.53-.7,3.42,3.42,0,0,1-.63-1.06,3.42,3.42,0,0,0-1.08-1.31,4.78,4.78,0,0,1-1.21-2.87L172.08,91a22,22,0,0,1-.37-4.09,11.27,11.27,0,0,1,.3-1.54l-.13-1.08.07-3.39-.14-1.47c.36-1.28.55-2,.55-2l-.14-2a19.5,19.5,0,0,1,.41-2.75A20.92,20.92,0,0,0,173,70a5.49,5.49,0,0,1,.26-2.17A5.43,5.43,0,0,0,173.76,66.38Zm17.78,11.5.47-1.34.45-.39a3.92,3.92,0,0,0,.46-1.15,11.88,11.88,0,0,1,1.35-2.62c0-.17.14-.6.28-1.31a2.18,2.18,0,0,1,.72-1.43,5.53,5.53,0,0,1,.87-3.23A6.32,6.32,0,0,0,197.23,64a30.11,30.11,0,0,1,.91-3.39,43,43,0,0,1,1.69-4.15,5.5,5.5,0,0,0,.41-2.11,5.45,5.45,0,0,1,.39-2.07,4,4,0,0,0,.47-1.31c.12-.6.25-1.19.39-1.76a10.41,10.41,0,0,0,.27-1.66,2.8,2.8,0,0,1,.55-1.44,3.6,3.6,0,0,0,.34-1.09,3.49,3.49,0,0,1,.86-1.66l-.21-.89a8.86,8.86,0,0,1,.57-3.74,5.13,5.13,0,0,0,.56-1.37v-.39l-.14-.83V36a.82.82,0,0,0,.07-.39v-.76l1-8.63a10.91,10.91,0,0,0-.12-2.62,5.22,5.22,0,0,0-.66-2.11l-.41-.76c-.09-.26-.73-.43-1.92-.52L200,21.72l-4.13,5.37a7.57,7.57,0,0,0-.94,1.88,6.51,6.51,0,0,1-1.13,2,4.09,4.09,0,0,0-.87,1.7.89.89,0,0,1-.51.19c-.27,0-.48.81-.62,2.3l-.41,1.6a1.5,1.5,0,0,0-.59,1.05,6.33,6.33,0,0,1-.26,1.28,6.36,6.36,0,0,0-.27,1.31l-.21.77a18.84,18.84,0,0,0-.27,3.45,13.42,13.42,0,0,1,.61,3.51,11.52,11.52,0,0,1-.56,2.65q-.57,1.95-1.32,2-1.87,0-1.88-4.35a18.09,18.09,0,0,1,.82-4.6l-.07-1a4.37,4.37,0,0,1,.5-1.24,8.24,8.24,0,0,0,.67-1.76,6.77,6.77,0,0,1,.41-1.31,7.91,7.91,0,0,0,.39-2.11,10.15,10.15,0,0,1,1.56-3.93,8.84,8.84,0,0,1,.82-3.13l.34-1.15a13.88,13.88,0,0,1,1.47-2.23l.3-.84h-.37c-.18,0-.41.15-.68.45l-.35.13-.44.64a2.93,2.93,0,0,1-1.16,1l-.24.26a2.21,2.21,0,0,1-.5,1.11,5.09,5.09,0,0,0-.73,1.44,14.84,14.84,0,0,1-.92,2.05l-.72,2.11c-.37-.05-.73.66-1.08,2.1a17.33,17.33,0,0,1-.84,2.78,4.21,4.21,0,0,0-.41,1.5,2.41,2.41,0,0,1-.38,1.22,3,3,0,0,1-.65,1.72,3.52,3.52,0,0,0-.28,1.15l-.65,1.79a2.67,2.67,0,0,1-.48,1.54,2.89,2.89,0,0,0-.48.83l.21,1.08a9.29,9.29,0,0,1-.84,2.46,15.66,15.66,0,0,0-1.12,3.8l-.13.64a2.47,2.47,0,0,0-.59,1.73c0,.34,0,1.08-.13,2.23a4.68,4.68,0,0,0-.81,1.7,7.89,7.89,0,0,0-.48,2.65,9.64,9.64,0,0,1-.5,2.91,30.78,30.78,0,0,0-.89,4.63.28.28,0,0,0-.27.13l.21,1.4a20.13,20.13,0,0,0-.79,3.39l.3,1.72a2.53,2.53,0,0,0-.34,1.09l.07,1-.14,1.73.07,1.53a3.32,3.32,0,0,1-.07.83L176,86.89l.17,2a14.43,14.43,0,0,1-.17,1.79c.05.17.15.44.31.83,0,3.23.32,5.45,1,6.64.11.3.22.62.31,1l.68.13a.51.51,0,0,0,.38-.22.75.75,0,0,1,.46-.29.79.79,0,0,0,.5-.45,2.31,2.31,0,0,0,1.14-1,1.48,1.48,0,0,1,1-.83c.38,0,.88-.77,1.52-2.17l.45-.52,1.67-2.62.24-.19a.61.61,0,0,0,.24-.51,16.18,16.18,0,0,1-1.14-3.29c-.22-1-.47-1.5-.74-1.5-.09,0-.22.13-.38.38-.43.68-.82,1-1.16,1-1.3,0-1.95-.56-1.95-1.67q0-3.45,2.64-3.45c.43,0,1.11.49,2.05,1.47a12.16,12.16,0,0,0,.75,1.54l1.06,2.36c.09.17.16.26.21.26.29,0,.89-1,1.78-3.07a23.74,23.74,0,0,0,1.64-4.79A7.81,7.81,0,0,1,191.54,77.88Z" transform="translate(-13 22)"/><path class="cls-1" d="M204.88,74.75l.48.38a3.28,3.28,0,0,1,.65-1.85h.28c.22,0,.52-.58.89-1.73l.58-.64a.57.57,0,0,0,.42.13q.19,0,.39-.51c.13-.34.44-1,1-2h.13c.14,0,.31-.19.5-.57a.87.87,0,0,1,.77-.58l1.17-.57a3.83,3.83,0,0,1,.62-.26c.21-.13.71.65,1.51,2.33a11.5,11.5,0,0,1,1.19,4.89c0,.89-.25,1.43-.75,1.6l-.17.25v1.28l-.58,2.36a2.31,2.31,0,0,1-.58,1.22c-.21.68-.36,1.15-.45,1.4l-.48.13-.2.38V84a25.34,25.34,0,0,0-.89,3.36,20.41,20.41,0,0,0-.58,3.29c0,.81.09,1.21.27,1.21s.27-.1.41-.32a6.55,6.55,0,0,1,.56-.73,2.87,2.87,0,0,0,.53-.87,1.78,1.78,0,0,1,.72-.79,3.31,3.31,0,0,0,1-1.31c.32-.64.54-1.07.68-1.28a6,6,0,0,0,.45-.86c.16-.37.26-.55.3-.55a1.49,1.49,0,0,0,.65-.25,10.36,10.36,0,0,1,.14-1l.82-.76,2-3.32.28-.64a3,3,0,0,0,.68-.39,5.13,5.13,0,0,1,.92-2.49c0-.17.12-.3.35-.38a5,5,0,0,1,.7-1.63,5.8,5.8,0,0,0,.7-1.5l.78-1.22a1.32,1.32,0,0,0,.48-.76,27.57,27.57,0,0,1,2.21-3.36,1.94,1.94,0,0,1,1.38-.41c.64,0,1.16.46,1.56,1.37a6.72,6.72,0,0,0,1.3,2.08,3.82,3.82,0,0,1,.7,2.68,31.21,31.21,0,0,1-1.54,7.09c-.66,3.67-1,5.91-1,6.74s-.12,1.31-.3,1.44a.54.54,0,0,0-.28.45v.25c0,1,.09,1.54.28,1.54s.32-.22.56-.64a4.74,4.74,0,0,1,1.45-1.41l.31.13a10.42,10.42,0,0,1,1.33-3,2.46,2.46,0,0,0,.68-1.15c.23-.62.51-1,.84-1a.78.78,0,0,0,.63-.31,6.53,6.53,0,0,1,1.34-3.45c.88-1.28,1.38-1.92,1.52-1.92s.41.32.54,1a4.55,4.55,0,0,0,.43,1.31,1.14,1.14,0,0,1,.22.6V81.9a1.16,1.16,0,0,1-.44,1.09,4.13,4.13,0,0,1-.62,1.66l-.61-.13c-.11.26-.21.49-.29.71s-.13.29-.15.25a4.75,4.75,0,0,0-1,1.69c-.46,1-.88,1.91-1.24,2.59l-.14.39a1.74,1.74,0,0,1-.51.51l-.62,1c-.22-.26-.36-.39-.41-.39s-.14.17-.29.51a5.69,5.69,0,0,1-.88,1.31,5.6,5.6,0,0,0-1,1.82l-.55,1-.71.19c-.07,0-.19.19-.35.57l-.61,1.47a1.48,1.48,0,0,1-1.4,1.09c-.14,0-.31-.22-.53-.67a13,13,0,0,0-.61-1.15,30.37,30.37,0,0,1-1.3-2.88c-.67-1.59-1-2.44-1-2.52l.21-2.24-.07-1.53a4.46,4.46,0,0,1,.32-1.37q.33-.93.33-1l-.07-2.5a2.45,2.45,0,0,0,.14-.38l.47-1.47q-.06-.63-.06-1.41l.13-2.1a4.34,4.34,0,0,0-1.08,2.07c-.3,1-.71,1.57-1.21,1.57-.43,1.45-.76,2.15-1,2.11a2.75,2.75,0,0,0-.21.51l-.48.51-.58-.13-.2,1.6a4.1,4.1,0,0,0-1,1.37,5,5,0,0,1-.7,1.25l-.58,1h-.55a5.18,5.18,0,0,1-1.06,2.88l-.28.63-.61-.12a4.85,4.85,0,0,1-.86,2.49q-.59,0-1.59,2c-.67,1.32-1.14,2-1.42,2q-3,0-4.82-7-.07-.26-.33-1a6.82,6.82,0,0,1-.26-2.18,10.48,10.48,0,0,1,.36-3.38,27,27,0,0,0,.93-3.36c.37-1.63.65-2.35.84-2.14a3.55,3.55,0,0,0,.06-.76,5,5,0,0,0,.55-1.86c0-.17,0-.25-.14-.25s-.18.13-.41.38l-.48.39a.79.79,0,0,0-.44.51,2.18,2.18,0,0,1-.49.73c-.22.24-.41.44-.54.61h-.11q-.21-.39-.27-.39a6.06,6.06,0,0,1-.35,1.28l-.41.13c-.5,1-.83,1.47-1,1.47s-.3-.15-.62-.45a1.23,1.23,0,0,1-.48-.89l.24-2.49V78a1.22,1.22,0,0,1,.27-.51,6.32,6.32,0,0,0,.55-1.38C204.06,75.21,204.44,74.75,204.88,74.75Z" transform="translate(-13 22)"/><path class="cls-1" d="M236.41,78.52l.55-.9h.21c.15,0,.39-.32.71-1l.35-.25a4.87,4.87,0,0,1,1.2-2.24l.54-.76a1.41,1.41,0,0,1,.4-.45,4.78,4.78,0,0,0,.82-1.25c.38-.7.68-1,.91-1a1,1,0,0,1,.55.13,3.85,3.85,0,0,1,.82-1.5,5.88,5.88,0,0,0,1-1.76l.45-.39a5,5,0,0,0,1-1.3A1.27,1.27,0,0,1,247,65c.66,0,1.35.63,2.07,1.88a7.37,7.37,0,0,1,1.07,3.61l-.58,5q-.59,5.51-1.3,5.75l-.13,1.35a1.89,1.89,0,0,0-.48,1l.2,1.53a2.13,2.13,0,0,1-.37,1s-.07.13-.07.38v2.62a1.49,1.49,0,0,1-.48,1.15.91.91,0,0,0,.2.26c.14-.26.45-.38.93-.38l.54.12.75-1.4a3,3,0,0,0,.67-.61A10.84,10.84,0,0,1,251.47,87L256,80.63c.61-1.15,1.08-1.73,1.4-1.73s.51.41.51,1.21a7.77,7.77,0,0,1-.29,2.34,19.5,19.5,0,0,0-.53,2.23,5.66,5.66,0,0,1-.56,1.82,5,5,0,0,0-.53,1.12,7.08,7.08,0,0,1-1.11,1.76,15.36,15.36,0,0,0-1.54,2.33,11.65,11.65,0,0,1-1.05,1.69l-1.47,2-.2.63a3,3,0,0,1-.64.55,4.61,4.61,0,0,0-1,1.05l-.61.64a1,1,0,0,1-.67.32c-.31,0-.57.29-.8.73s-.41.68-.55.68l-.51-.13-.69.38c-.38,0-.86-.44-1.42-1.31a5.13,5.13,0,0,1-.83-2.78v-.38l.06-.9a9.29,9.29,0,0,0-.2-1.31c-.14-.7-.21-1.09-.21-1.18l.07-.89-.07-.39a10,10,0,0,1,.14-2.17,6.67,6.67,0,0,0,.21-1.24c0-.54.09-1,.13-1.31l.17-1.6a2.53,2.53,0,0,1,.35-1c0-.34.13-.92.27-1.73l.14-1.15.34-.89a3.34,3.34,0,0,0,.32-1.38,8,8,0,0,1,.36-1.82,6,6,0,0,0,.31-1.15c0-.51-.14-.76-.41-.76-.09,0-.38.34-.85,1l-.62-.39c-.05,0-.17.22-.38.64a.42.42,0,0,1-.31.39c-.2.08-.39.4-.58,1l-.27.12-.45-.38h-.13c-.23,0-.37.47-.41,1.41a2.35,2.35,0,0,1-1,1.34l-.75.38a1.78,1.78,0,0,0-.55,1.15,4.13,4.13,0,0,1-.68,1.63c-.34.49-.57.73-.69.73-.63,0-.95-.66-.95-2l.27-3Zm14.78-31.95-.2-2.49V43.7c0-2,.36-3.11,1.09-3.33a8.36,8.36,0,0,0,1.44-.83c.41.17.84.85,1.28,2a8.77,8.77,0,0,1,.67,3.1,4.84,4.84,0,0,1-.1.57,9.71,9.71,0,0,0-.14,1.69,4,4,0,0,1-.67,2.18,1.73,1.73,0,0,1-1.35.92c-.32,0-.72-.41-1.21-1.24A5.18,5.18,0,0,1,251.19,46.57Z" transform="translate(-13 22)"/><path class="cls-1" d="M262.29,74.62l.72-1.09c.55-.08.84-.61.89-1.59A3.79,3.79,0,0,1,265,69.38l.41-1.09a9.11,9.11,0,0,1,2.8-2.49,4,4,0,0,0,.79-1.15c0-.08.09-.12.13-.12l.55.25a2.26,2.26,0,0,0,1.14-.45,2.59,2.59,0,0,1,1.36-.44l1.43-.13c.09,0,.28.13.57.38a1.48,1.48,0,0,0,1,.39c.5,0,1,.42,1.38,1.27a5.31,5.31,0,0,1,.64,2.37,8.46,8.46,0,0,1-1.1,4c-.72,1.37-1.31,2.13-1.74,2.3a5.88,5.88,0,0,1-.89,1.38,3.73,3.73,0,0,0-.63.89c-.21.41-.39.61-.53.61a.22.22,0,0,1-.2-.16.23.23,0,0,0-.21-.16c-.36,0-.76.83-1.19,2.49l-.62-.13a3.63,3.63,0,0,0-.75,1.54c-.11.55-.35.83-.71.83-.85,1.57-1.42,2.36-1.71,2.36a1.6,1.6,0,0,1-.48-.26,3.46,3.46,0,0,0-.27,1.35c0,.51-.19.81-.55.89l-.44.77-.35-.13-.68,1.34a1.52,1.52,0,0,0-1.06.64c0,.51-.11,1.16-.2,2s-.14,1.22-.14,1.31a1.62,1.62,0,0,0,1.81,1.85l1.65-.45a1.63,1.63,0,0,0,1.21-.63,1.62,1.62,0,0,1,1.22-.64,1.39,1.39,0,0,0,.61-.26l.34.26a4.27,4.27,0,0,1,.89-1.73c.44-.51.78-.77,1-.77l.34-.38a1.89,1.89,0,0,1,.41-1l.28-.45q.27-.51.51-.51h.48l.14-.13q.4-1.65,1.14-2a1.44,1.44,0,0,0,.93-.92,1,1,0,0,1,.66-.77,1.36,1.36,0,0,0,.81-.86,6.79,6.79,0,0,1,.8-1.38c.32-.42.54-.74.67-1s.23-.32.32-.32.21.19.21.57.05.58.14.58.13-.09.13-.26a3.43,3.43,0,0,0-.07-.64V79.8a1.37,1.37,0,0,1,.55-1.28l1.54-1.86c.05-.89.18-1.41.4-1.56a1.69,1.69,0,0,0,.49-.51c.12-.19.24-.29.38-.29.29,0,.44.32.44,1l-.17,1.66.17,1.73a2.76,2.76,0,0,1-.32,1,7,7,0,0,0-.5,2c-.11.92-.26,1.42-.44,1.51h-.21a4,4,0,0,1-1,1.43,1.57,1.57,0,0,0-.56.8L279.11,88c-.23.43-.43.81-.59,1.15s-.28.51-.37.51l-.28-.51c0-.08,0-.12-.13-.12s-.38.25-.43.76A4.31,4.31,0,0,1,277,91.1a4.7,4.7,0,0,0-1.34,1.67l-.2.12h-.62c-.3,0-.5.42-.61,1.25s-.44,1.31-1,1.44a1.7,1.7,0,0,0-1.15.76.7.7,0,0,1-.31.26,4.86,4.86,0,0,0-.95,1l-2.88,1.92c-.23.21-.38.32-.45.32l-.95.25q-.21,0-.42-.51t-.27-.51l-.62.38a2.62,2.62,0,0,1-1.3.39,1.1,1.1,0,0,1-.75-.45,6.15,6.15,0,0,0-.65-.64c-.66,0-1.13-1-1.4-2.87l-.42.12a31.73,31.73,0,0,1-.92-4.53,1.36,1.36,0,0,0-.65-.74c-.3-.15-.45-.56-.45-1.24a7.67,7.67,0,0,1,.67-3.87,4.15,4.15,0,0,0,.74-1.5l.48-3.32a5.07,5.07,0,0,0,.34-1.28l.78-2.68C261.77,76.56,262,75.81,262.29,74.62Zm7.24-3.83-.41.38a11,11,0,0,0-.81,1.12,9.94,9.94,0,0,1-1.3,1.6,7.85,7.85,0,0,0-1.3,3.16A23.94,23.94,0,0,0,265,80c0,.25.07.38.21.38l1.16-1a6.53,6.53,0,0,0,1.22-1.47,20.66,20.66,0,0,1,1.62-2.17l.28-.51a3.14,3.14,0,0,1,.63-.93A5.54,5.54,0,0,0,271,73l.34-.25a4.19,4.19,0,0,1,1.18-2.11c.4-.26.6-.51.6-.77,0-.51-.22-.76-.65-.76-.18,0-.46.21-.82.63h-.79c-.09,0-.34.26-.75.77Z" transform="translate(-13 22)"/><path class="cls-1" d="M290.25,42.93l.47-.26.35-.63h.06l.31.25h.07a2,2,0,0,0,1.46-.61,6.75,6.75,0,0,1,1.07-.86,2.56,2.56,0,0,0,.54-.38c.07-.09.12-.13.17-.13l.55.13c.18,0,.43-.61.74-1.82a8.09,8.09,0,0,1,1-2.65,10.63,10.63,0,0,0,1.16-3.13,7.51,7.51,0,0,0,.31-1c.11-.45.21-.68.27-.68.35,0,.62-.4.82-1.21.69-1.49,1.25-2.24,1.68-2.24s1,1,1.2,3.07l.34,2.43s-.06.35-.17.93a7.71,7.71,0,0,0-.16,1.72,8.24,8.24,0,0,1,0,1.15,3.39,3.39,0,0,0-.05.67c0,.34.19.51.58.51q.21,0,.75-.51l.21-.13c.22.26.42.39.58.39a8.52,8.52,0,0,0,1-.64,5.46,5.46,0,0,1,1.15-.7,3.36,3.36,0,0,0,.82-.52h.41l.28.2c.09,0,.27-.19.56-.55a2.34,2.34,0,0,1,1.63-.67l.47-.38H311c.75,0,1.13.62,1.13,1.85a4.93,4.93,0,0,1-.33,1.34,15.49,15.49,0,0,0-.53,2.18l-1.57,3.7c-.52,1.28-1.05,1.92-1.57,1.92a6,6,0,0,1-.86-1.73c0-.08,0-.13-.14-.13a1.3,1.3,0,0,0-.71.26,1.26,1.26,0,0,1-.62.26,18.25,18.25,0,0,0-1.81.95l-.82.26a2.17,2.17,0,0,0-.65.26l-1.75.63a6.22,6.22,0,0,0-1.4,3.14,1.64,1.64,0,0,1-.35.57l-1.54,5.24a2.16,2.16,0,0,0-1,1.66l-.14.38a1.37,1.37,0,0,0-.68.8,6.48,6.48,0,0,1-.59,1.06L294.47,61c-.26.6-.51,1.25-.76,2a12,12,0,0,0-.55,2.24,6.46,6.46,0,0,1-.27,1.37,1.63,1.63,0,0,0-.1.7l-.11.51a3.65,3.65,0,0,0-.41,1.73l.14,1c-.32,2-.48,3.13-.48,3.26s0,.32.07.7v.39a14.32,14.32,0,0,1-.55,3.51l.07,1-.21,2.88a18.92,18.92,0,0,0,.21,2.11.94.94,0,0,0-.14.38,9.38,9.38,0,0,0,1,3.93,16.42,16.42,0,0,1,1,6.68,8.37,8.37,0,0,1-.1,1.11c-.07.49-.11,1-.14,1.6a3.49,3.49,0,0,1-.53,1.69c-.33.56-.61.83-.84.83q-1.82,0-2.71-4.92a48.51,48.51,0,0,1-.89-6.32l.07-2.49-.2-1.28.2-5.62-.13-1.34.78-5.5v-2a5.22,5.22,0,0,1,.48-1c0-.09,0-.13-.13-.13s-.32.26-.55.77a8.42,8.42,0,0,1-.86,1.47l-.27.89a.78.78,0,0,0-.28-.25,18,18,0,0,0-1.13,3c-.48.13-.86.64-1.13,1.53s-.65,1.34-1.13,1.34l-.14.13c-.09,1.24-.41,1.85-1,1.85l-.13.13c-.35,1.45-.7,2.15-1.07,2.11a3.42,3.42,0,0,1-1.68,2.62,2.37,2.37,0,0,1-.6,1.15,3.1,3.1,0,0,0-.56.7c-.12.22-.22.32-.31.32-.3,0-.45-.59-.45-1.79a3.29,3.29,0,0,1,.23-1.12,2.85,2.85,0,0,0,.22-.86,2.84,2.84,0,0,0-.34-.76,3.78,3.78,0,0,1,.54-2.5,3.16,3.16,0,0,0,.83-1.47,1.59,1.59,0,0,1,.68-1.08,1,1,0,0,0,.52-.83,4.48,4.48,0,0,1,.89-1.79,15.3,15.3,0,0,0,1.3-2.33c.27-.66.5-1,.68-1l.14-.26c.05-1.06.26-1.6.65-1.6l.34-.38.07-.51.21-.26h.27l.17-.25a4.11,4.11,0,0,1,.81-2.49,33.67,33.67,0,0,0,2.69-5,33.84,33.84,0,0,0,2.19-5.27,31.69,31.69,0,0,1,.87-3.1,13.52,13.52,0,0,0,.7-3.67,2.16,2.16,0,0,0-.2-.51L291,50.28c0-.13-.23-.32-.69-.58a4.34,4.34,0,0,0-.75,1.15c-.16.39-.28.58-.38.58l-.47-.13-1.51.32a4.75,4.75,0,0,0-3,1.53l-1.41.77h-.31c-.18,0-.45.21-.82.64l-.78-.13c-.73.73-1.27,1.09-1.61,1.09a1.74,1.74,0,0,1-.41-.13l-3.49,1.79a12,12,0,0,0-1.85,2.62l-.27.13q-.34,0-.81-1.44a8.81,8.81,0,0,1-.46-2.59q0-6.33,5.82-7.35l1.4-1h.07l.38.26h.13c.14,0,.36-.16.65-.48a7,7,0,0,1,2-1.19l1.4-.7.44.13A1.12,1.12,0,0,0,285,45a2.46,2.46,0,0,1,1.3-.74,3.31,3.31,0,0,0,1.22-.48l.55-.25c.09,0,.27-.15.56-.45a1.48,1.48,0,0,1,1.11-.45A1.73,1.73,0,0,1,290.25,42.93Z" transform="translate(-13 22)"/><path class="cls-1" d="M317.57,94,316,96.6c-.1-.17-.19-.26-.28-.26s-.51.39-.84,1.15-.56,1.15-.7,1.15l-.34-.12a5.13,5.13,0,0,1-1.23,1.4,4.11,4.11,0,0,0-.91.7,1.8,1.8,0,0,1-1,.58,1,1,0,0,0-.7.54c-.18.32-.63.48-1.34.48l-.54-.13c-.3.26-.49.39-.59.39s-.37-.18-.58-.55a1,1,0,0,0-.67-.6c-.24,0-.48-.34-.73-.9a4.3,4.3,0,0,0-.7-1.15,2.2,2.2,0,0,1-.53-.89l-.48-.77a8.6,8.6,0,0,1-1.13-2.81,13,13,0,0,1-.55-3.19v-.26l.07-1.21-.07-1.41a6,6,0,0,0,.34-1.09v-2l.82-5.11a1.13,1.13,0,0,0-.27-.83,2.2,2.2,0,0,1-.69,1.15,1.18,1.18,0,0,0-.46.89c-.08.47-.21.7-.4.7l-.41-.25a9.44,9.44,0,0,0-.31,1.31c-.16.79-.44,1.18-.83,1.18s-.62-.3-.62-.89l.07-1.15-.21-1.6a7.41,7.41,0,0,1,.55-2c.37-1,.7-1.58,1-1.73a2,2,0,0,0,.79-1.21,8.65,8.65,0,0,1,1.42-2.4c.41-.17.77-.72,1.06-1.66a3.84,3.84,0,0,1,1.25-1.15,2.77,2.77,0,0,0,1.17-1.31,11.13,11.13,0,0,1,2.33-2.68C310.06,65.64,311,65,311.6,65a1.67,1.67,0,0,0,.75-.29l.89-.51a3.68,3.68,0,0,0,.86-.7q.45-.48.72-.48l1,.63a6.31,6.31,0,0,1,1.34.84,3.39,3.39,0,0,0,.7.54,7.53,7.53,0,0,1,1.31,1.12,3.88,3.88,0,0,1,.66,2.62,15.8,15.8,0,0,0-.58,1.72c0,.17.26.43.79.77.18.64.46,1.47.82,2.49l.38,2.24.07,5.23-.07.52a2.39,2.39,0,0,0-.38.83l.1,1.27-.27,1.79a2.08,2.08,0,0,1-.34,1.09,1.24,1.24,0,0,0-.31.64l-.2.51c-.05.13-.15.5-.3,1.12a6.11,6.11,0,0,1-.49,1.44,3,3,0,0,0-.34,1.21,1.8,1.8,0,0,1-.35,1,2.2,2.2,0,0,0-.39.67A1.46,1.46,0,0,1,317.57,94Zm-10.64,1.66.14,1.47.07.13h.55l.17.13a3.18,3.18,0,0,0,1,.25,1.92,1.92,0,0,0,1.69-1c.42-.66.76-1,1-1s.46-.32.63-1a3.34,3.34,0,0,1,.32-1H313l.14-.12a2.72,2.72,0,0,1,.7-2.11,3.59,3.59,0,0,0,1-1.7,5.27,5.27,0,0,1,.66-1.59,3.39,3.39,0,0,0,.51-1.44l.28-.77a2.33,2.33,0,0,0,.13-1l.65-2.3a20.25,20.25,0,0,0,.21-2.49,3,3,0,0,0-.74-2.11,4.45,4.45,0,0,1-.73-3,4.94,4.94,0,0,1,.8-2.71,5.08,5.08,0,0,0,.81-1.51c0-.25-.07-.38-.21-.38a3.33,3.33,0,0,0-.79.51c-.15.6-1,1.39-2.42,2.37a5.06,5.06,0,0,0-.78-.64c-.14,0-.28.25-.41.76a4.39,4.39,0,0,1-.41,1.09H312a3.21,3.21,0,0,0-.44.83c-.25.55-.57.83-1,.83l-.41.77a3.56,3.56,0,0,1-.68,2.11l-.37.83c-.23.51-.53,1.11-.89,1.79l-.62,2.87a12.44,12.44,0,0,0-.37,2.49,2.08,2.08,0,0,1-.46.8,1.57,1.57,0,0,0-.36,1.06,2.38,2.38,0,0,0,.24.63,2.12,2.12,0,0,1,.24.77l-.14.83-.14,2.37Z" transform="translate(-13 22)"/><path class="cls-2" d="M266.29,9l1,.53c.5.18.83.71,1,1.59a1.4,1.4,0,0,1-.13.73,8.07,8.07,0,0,0-.29.91c-.75,2.44-1.9,3.8-3.43,4.07a4.74,4.74,0,0,1-2.53-.93,6.67,6.67,0,0,1-2.39-2.05,5.07,5.07,0,0,0-.92-1.25c-.22-.17-.34-.31-.36-.44a2.28,2.28,0,0,1,.21-1.25,4.5,4.5,0,0,0,.34-1.7,2,2,0,0,1,.81-1.6,4.67,4.67,0,0,0,1.09-1.12,1.33,1.33,0,0,1,.95-.62,1.26,1.26,0,0,1,.84.21,5.78,5.78,0,0,0,1.22.52A4.13,4.13,0,0,1,265.45,8Z" transform="translate(-13 22)"/><path class="cls-2" d="M287.45,7.28l.95.7q.69.39.69,1.74a1.3,1.3,0,0,1-.25.69,7.61,7.61,0,0,0-.45.85c-1.16,2.28-2.51,3.42-4.07,3.42A4.67,4.67,0,0,1,282,13.34a6.69,6.69,0,0,1-2-2.44,5.18,5.18,0,0,0-.69-1.39A.8.8,0,0,1,279,9a2.17,2.17,0,0,1,.43-1.19,4.75,4.75,0,0,0,.62-1.61,2,2,0,0,1,1.07-1.44,4.45,4.45,0,0,0,1.26-.92,1.37,1.37,0,0,1,1.05-.44,1.19,1.19,0,0,1,.79.35,5.73,5.73,0,0,0,1.12.72,4.18,4.18,0,0,1,1.46,1.61Z" transform="translate(-13 22)"/><path class="cls-2" d="M316.56,7.32l1.22,1.51c.63.62.75,1.64.38,3.07a2.34,2.34,0,0,1-.69,1,10.84,10.84,0,0,0-1.07,1.17q-4.23,4.76-8,3.77c-.8-.2-1.86-1.25-3.18-3.13a11.11,11.11,0,0,1-2.2-4.74,8.63,8.63,0,0,0-.52-2.52,1.35,1.35,0,0,1-.23-.91,3.63,3.63,0,0,1,1.18-1.74,7.58,7.58,0,0,0,1.67-2.32A3.36,3.36,0,0,1,307.47.63a7.68,7.68,0,0,0,2.41-.94,2.23,2.23,0,0,1,1.86-.28,2,2,0,0,1,1.13.9,9.47,9.47,0,0,0,1.49,1.62A6.91,6.91,0,0,1,316,5.13Z" transform="translate(-13 22)"/><path class="cls-2" d="M339.55,21.5l.44,1.08a1.85,1.85,0,0,1-.3,1.85,1.39,1.39,0,0,1-.57.47,5.73,5.73,0,0,0-.82.49q-3.27,2-5.26.82a4.72,4.72,0,0,1-1.3-2.36,6.65,6.65,0,0,1-.46-3.12,5.18,5.18,0,0,0,.13-1.55.81.81,0,0,1,0-.57,2.26,2.26,0,0,1,1-.8,4.54,4.54,0,0,0,1.36-1,2,2,0,0,1,1.66-.68A4.69,4.69,0,0,0,337,16a1.29,1.29,0,0,1,1.12.16,1.15,1.15,0,0,1,.5.7,5.45,5.45,0,0,0,.59,1.2,4.13,4.13,0,0,1,.41,2.14Z" transform="translate(-13 22)"/><rect class="cls-3" width="376" height="166"/></svg>