<svg id="Capa_1" data-name="Capa 1" xmlns="http://www.w3.org/2000/svg" viewBox="0 0 346.49 349.02"><defs><style>.cls-1{fill:#eff4ef;stroke:#eff4ef;}.cls-1,.cls-2{stroke-miterlimit:10;}.cls-2{fill:none;stroke:#000;stroke-width:1.38px;}</style></defs><path class="cls-1" d="M579.77,367.59a169.85,169.85,0,0,0-168.06-42.71q-2.65.8-5.28,1.66a169.64,169.64,0,0,0-91.55,248.81L295,634l-10.76,31.71,31-10.11L377,635.41a169.65,169.65,0,0,0,243-92.25c1.64-4.73,3.09-9.56,4.31-14.47a169.81,169.81,0,0,0-44.61-161.1Zm-1.13,196.77a141.38,141.38,0,0,1-196.51,41.27l-32.54,10.58-22.84,7.43,7.9-21.9L345.74,571a141.49,141.49,0,1,1,232.9-6.65Z" transform="translate(-283.44 -317.44)"/><path class="cls-2" d="M504.68,570.77a33.45,33.45,0,0,1-3.65-.59C502.24,570.39,503.46,570.59,504.68,570.77Z" transform="translate(-283.44 -317.44)"/><path class="cls-1" d="M546.5,533.43A37.59,37.59,0,0,1,508.91,571a36.47,36.47,0,0,1-4.07-.22l-.16,0c-1.22-.18-2.44-.38-3.65-.59-63.32-11-113.38-59.54-125.25-121.29l-.24-1.28a38.23,38.23,0,0,1-.52-6.29,37.57,37.57,0,0,1,37.59-37.59h.06a8,8,0,0,1,7.39,5.2l14.74,38.61a4.15,4.15,0,0,1-.62,4l-16.24,20.58a4.15,4.15,0,0,0-.22,4.82c.31.48.63,1,.95,1.44a154.58,154.58,0,0,0,53.1,49.26q4.26,2.39,8.68,4.52a4.09,4.09,0,0,0,4.87-1l17-19.76a4.11,4.11,0,0,1,5-.95l37,19.41a4,4,0,0,1,2.16,3.58Z" transform="translate(-283.44 -317.44)"/><line class="cls-2" x1="263.06" y1="213.54" x2="262.97" y2="213.5"/></svg>